<?xml version="1.0" standalone="no"?>
<!DOCTYPE svg PUBLIC "-//W3C//DTD SVG 1.1//EN" "http://www.w3.org/Graphics/SVG/1.1/DTD/svg11.dtd" >
<svg>
<metadata>
Created by FontForge 20090914 at Wed Jul 11 13:56:31 2018
 By www-data
Copyright (c) The Font Bureau, Inc., 2005. All rights reserved.
</metadata>
<defs>
<font id="KingsBureauGrot-FiveOne" horiz-adv-x="593" >
  <font-face 
    font-family="KingsBureauGrot FiveOne"
    font-weight="300"
    font-stretch="normal"
    units-per-em="1000"
    panose-1="2 0 5 6 4 0 0 2 0 4"
    ascent="800"
    descent="-200"
    x-height="574"
    cap-height="768"
    bbox="-187 -200.002 1000 934"
    underline-thickness="20"
    underline-position="-113"
    unicode-range="U+0020-U+FB02"
  />
<missing-glyph horiz-adv-x="500" 
 />
    <glyph glyph-name="fi" unicode="fi" horiz-adv-x="488" 
d="M432 686c0 -11.333 -0.667969 -20.832 -2.00098 -28.499s-2.66602 -14.167 -3.99902 -19.5l-81 4c4 5.33301 6 16.666 6 33.999c0 13.333 -5.66699 24.333 -17 33s-33.333 13 -66 13c-36 0 -61.333 -6.66699 -76 -20s-22 -34 -22 -62v-66h109v-68h-109v-506h-78v506h-85
v68h85v46c0 25.333 2.66699 48 8 68s14.5 36.833 27.5 50.5s30.5 24 52.5 31s49.333 10.5 82 10.5c52 0 93.333 -7.83301 124 -23.5s46 -39.167 46 -70.5zM349.999 0.000976562v574h78v-574h-78z" />
    <glyph glyph-name="fl" unicode="fl" horiz-adv-x="488" 
d="M350 0v686.001c-6.66699 7.33301 -17.167 15.166 -31.5 23.499s-31.166 12.5 -50.499 12.5c-36 0 -61.333 -6.66699 -76 -20s-22 -34 -22 -62v-66h109v-68h-109v-506h-78v506h-85v68h85v46c0 57.333 15.333 98.333 46 123s72 37 124 37c18 0 35.167 -2 51.5 -6
s30.166 -9.66699 41.499 -17h73v-757h-78z" />
    <glyph glyph-name="f_f_l" unicode="ffl" horiz-adv-x="746" 
d="M608 0v686c-6.66699 7.33301 -17.167 15.166 -31.5 23.499s-31.166 12.5 -50.499 12.5c-36 0 -61.333 -6.66699 -76 -20s-22 -34 -22 -62v-66h109v-68h-109v-506h-78v506h-180v-506h-78v506h-85v68h85v46c0 49.333 13.5 88.333 40.5 117s70.167 43 129.5 43
c30 0 55.5 -5.16699 76.5 -15.5s37.167 -20.166 48.5 -29.499c14.667 14 32.5 25 53.5 33s47.5 12 79.5 12c18 0 35.167 -2 51.5 -6s30.166 -9.66699 41.499 -17h73v-757h-78zM357 680c-6.66699 8 -18 17 -34 27s-34.333 15 -55 15c-36 0 -61.333 -6.66699 -76 -20
s-22 -34 -22 -62v-66h180v46c0 11.333 0.666992 21.833 2 31.5s3 19.167 5 28.5z" />
    <glyph glyph-name="f_f_i" unicode="ffi" horiz-adv-x="746" 
d="M690 686c0 -11.333 -0.666992 -20.832 -2 -28.499s-2.66602 -14.167 -3.99902 -19.5l-81 4c2 2.66699 3.5 7.16699 4.5 13.5s1.5 13.166 1.5 20.499c0 13.333 -5.66699 24.333 -17 33s-33.333 13 -66 13c-36 0 -61.333 -6.66699 -76 -20s-22 -34 -22 -62v-66h109v-68
h-109v-506h-78v506h-180v-506h-78v506h-85v68h85v46c0 49.333 13.5 88.333 40.5 117s70.167 43 129.5 43c30 0 55.167 -4.66699 75.5 -14s36.166 -18.666 47.499 -27.999c13.333 13.333 30.833 23.666 52.5 30.999s49.167 11 82.5 11c52 0 93.333 -7.83301 124 -23.5
s46 -39.167 46 -70.5zM608 0.000976562v574h78v-574h-78zM356 681.001c-6.66699 8 -17.832 16.833 -33.499 26.5s-33.834 14.5 -54.501 14.5c-36 0 -61.333 -6.66699 -76 -20s-22 -34 -22 -62v-66h180v46c0 22.667 2 43 6 61z" />
    <glyph glyph-name="f_f" unicode="ff" horiz-adv-x="545" 
d="M514 645c6 21.333 6.66797 39.001 2.00098 53.001s-18 21 -40 21c-15.333 0 -27.166 -5.66699 -35.499 -17s-12.5 -28 -12.5 -50v-78h109v-68h-109v-506h-78v506h-180v-506h-78v506h-85v68h85v46c0 57.333 15.333 98.333 46 123s72 37 124 37
c25.333 0 47.833 -3.66699 67.5 -11s36.167 -16 49.5 -26c9.33301 11.333 21.666 20.333 36.999 27s34.666 10 57.999 10c26 0 47 -4.16699 63 -12.5s28 -19.333 36 -33s12.5 -28.834 13.5 -45.501s-1.16699 -33 -6.5 -49zM354.001 682.001
c-10 11.333 -22.667 20.835 -38 28.502s-31.333 11.5 -48 11.5c-36 0 -61.333 -6.66699 -76 -20s-22 -34 -22 -62v-66h180v58c0 9.33301 0.333008 18.166 1 26.499s1.66699 16.166 3 23.499z" />
    <glyph glyph-name=".notdef" horiz-adv-x="500" 
 />
    <glyph glyph-name="space" unicode=" " horiz-adv-x="240" 
 />
    <glyph glyph-name="exclam" unicode="!" horiz-adv-x="179" 
d="M117 246h-55l-22 522h99zM39 0v115h101v-115h-101z" />
    <glyph glyph-name="quotedbl" unicode="&#x22;" horiz-adv-x="288" 
d="M233 545h-55l-5 223h65zM110 545h-55l-5 223h65z" />
    <glyph glyph-name="numbersign" unicode="#" horiz-adv-x="576" 
d="M435 476l-21 -184h99v-69h-107l-30 -223h-52l20 223h-142l-30 -223h-55l23 223h-104v69h112l21 184h-105v69h113l30 223h55l-23 -223h142l30 223h55l-23 -223h96v-69h-104zM231 476l-21 -184h142l21 184h-142z" />
    <glyph glyph-name="dollar" unicode="$" horiz-adv-x="576" 
d="M529 204c0 -36 -5.66406 -66.501 -16.9971 -91.501s-26.333 -45.5 -45 -61.5s-40.334 -28.333 -65.001 -37s-50.667 -15 -78 -19v-85h-65v85c-28 2 -54.5 6.66699 -79.5 14s-46.833 17.833 -65.5 31.5s-33.5 30.834 -44.5 51.501s-16.5 45.334 -16.5 74.001
c0 7.33301 0.333008 15.5 1 24.5s1.66699 18.167 3 27.5s3 18.333 5 27s4 16 6 22l70 -1c-2.66699 -10 -5.33398 -22.333 -8.00098 -37s-4 -27.334 -4 -38.001c0 -22 3.33301 -41 10 -57s15.834 -29.167 27.501 -39.5s25.667 -18.166 42 -23.499
s34.166 -8.66602 53.499 -9.99902v311l-36 14c-50.667 19.333 -90.167 43.166 -118.5 71.499s-42.5 65.166 -42.5 110.499c0 27.333 4.33301 53 13 77s21.5 45 38.5 63s37.667 32.5 62 43.5s52.166 17.5 83.499 19.5v55h65v-55c31.333 -2 59.333 -8.16699 84 -18.5
s45.5 -23.666 62.5 -39.999s30 -35.333 39 -57s13.5 -44.5 13.5 -68.5c0 -9.33301 -0.666992 -18.833 -2 -28.5s-3.66602 -18.834 -6.99902 -27.501h-76c6 14 9 33 9 57c0 14 -3.33301 27.667 -10 41s-15.667 25.333 -27 36s-24.333 19.5 -39 26.5
s-30.334 11.167 -47.001 12.5v-273c30 -11.333 57.5 -23.5 82.5 -36.5s46.667 -28.333 65 -46s32.5 -38.167 42.5 -61.5s15 -51 15 -83zM259.003 703.999c-40.667 -5.33301 -71.001 -19.167 -91.001 -41.5s-30 -49.5 -30 -81.5c0 -18 2.83301 -33.333 8.5 -46
s13.834 -23.667 24.501 -33s23.5 -17.833 38.5 -25.5s31.5 -15.5 49.5 -23.5v251zM454.002 196.998c0 40 -12.166 72 -36.499 96s-55.5 42.333 -93.5 55v-284c16 2 31.667 5.83301 47 11.5s29.166 14 41.499 25s22.333 24.333 30 40s11.5 34.5 11.5 56.5z" />
    <glyph glyph-name="percent" unicode="%" horiz-adv-x="696" 
d="M304 579c0 -30 -1.83301 -57.167 -5.5 -81.5s-10.5 -45.333 -20.5 -63s-23.5 -31.334 -40.5 -41.001s-39.167 -14.5 -66.5 -14.5c-26.667 0 -48.667 4.83301 -66 14.5s-31 23.334 -41 41.001s-16.833 38.667 -20.5 63s-5.5 51.5 -5.5 81.5s1.83301 57.333 5.5 82
s10.5 45.834 20.5 63.501s23.667 31.334 41 41.001s39.333 14.5 66 14.5c27.333 0 49.5 -4.83301 66.5 -14.5s30.5 -23.334 40.5 -41.001s16.833 -38.834 20.5 -63.501s5.5 -52 5.5 -82zM170 0h-65l422 768h64zM658 188c0 -30 -1.83301 -57.167 -5.5 -81.5
s-10.5 -45.333 -20.5 -63s-23.5 -31.334 -40.5 -41.001s-39.167 -14.5 -66.5 -14.5c-26.667 0 -48.667 4.83301 -66 14.5s-31 23.334 -41 41.001s-16.833 38.667 -20.5 63s-5.5 51.5 -5.5 81.5s1.83301 57.333 5.5 82s10.5 45.834 20.5 63.501s23.667 31.334 41 41.001
s39.333 14.5 66 14.5c27.333 0 49.5 -4.83301 66.5 -14.5s30.5 -23.334 40.5 -41.001s16.833 -38.834 20.5 -63.501s5.5 -52 5.5 -82zM232 579c0 26.667 -0.5 49 -1.5 67s-3.5 32.5 -7.5 43.5s-10.167 18.833 -18.5 23.5s-19.5 7 -33.5 7s-25.167 -2.33301 -33.5 -7
s-14.5 -12.5 -18.5 -23.5s-6.5 -25.5 -7.5 -43.5s-1.5 -40.333 -1.5 -67s0.5 -49 1.5 -67s3.5 -32.5 7.5 -43.5s10.167 -18.833 18.5 -23.5s19.5 -7 33.5 -7s25.167 2.33301 33.5 7s14.5 12.5 18.5 23.5s6.5 25.5 7.5 43.5s1.5 40.333 1.5 67zM586 188
c0 26.667 -0.5 49 -1.5 67s-3.5 32.5 -7.5 43.5s-10.167 18.833 -18.5 23.5s-19.5 7 -33.5 7s-25.167 -2.33301 -33.5 -7s-14.5 -12.5 -18.5 -23.5s-6.5 -25.5 -7.5 -43.5s-1.5 -40.333 -1.5 -67s0.5 -49 1.5 -67s3.5 -32.5 7.5 -43.5s10.167 -18.833 18.5 -23.5
s19.5 -7 33.5 -7s25.167 2.33301 33.5 7s14.5 12.5 18.5 23.5s6.5 25.5 7.5 43.5s1.5 40.333 1.5 67z" />
    <glyph glyph-name="ampersand" unicode="&#x26;" horiz-adv-x="752" 
d="M722 146c0 -20.667 -2.66602 -40.333 -7.99902 -59s-13.666 -35 -24.999 -49s-25.833 -25.167 -43.5 -33.5s-39.167 -12.5 -64.5 -12.5c-32 0 -58.167 6.66699 -78.5 20s-39.833 32.666 -58.5 57.999c-28.667 -24.667 -57.167 -44.5 -85.5 -59.5
s-62.166 -22.5 -101.499 -22.5c-34.667 0 -65.5 5.5 -92.5 16.5s-49.833 26.167 -68.5 45.5s-32.834 42 -42.501 68s-14.5 54 -14.5 84c0 26.667 4.83301 52.167 14.5 76.5s22.5 47.166 38.5 68.499s34.333 40.833 55 58.5s42 32.834 64 45.501
c-15.333 24 -27.166 48 -35.499 72s-12.5 54.333 -12.5 91c0 23.333 4 45.166 12 65.499s19 38 33 53s30.667 26.667 50 35s40.333 12.5 63 12.5c22 0 42.167 -3.83301 60.5 -11.5s33.833 -18.334 46.5 -32.001s22.5 -30 29.5 -49s10.5 -40.167 10.5 -63.5
c0 -46.667 -15 -85.5 -45 -116.5s-68.667 -57.167 -116 -78.5l68.5 -121c24.333 -44 51.166 -86.333 80.499 -127c8.66699 11.333 17.667 27 27 47s18.166 42.167 26.499 66.5s15.5 49.666 21.5 75.999s10 51.5 12 75.5l70 -13c-3.33301 -20 -8 -42.667 -14 -68
s-13.5 -51.666 -22.5 -78.999s-20 -54.666 -33 -81.999s-28.167 -52.666 -45.5 -75.999c12 -21.333 24.667 -38 38 -50s29.333 -18 48 -18c10 0 19.667 1.5 29 4.5s17.333 8.5 24 16.5s12 19 16 33s6 32.333 6 55c0 14.667 -0.5 27.834 -1.5 39.501
s-3.16699 24.167 -6.5 37.5h59l6 -36c1.33301 -10 2.66602 -20.833 3.99902 -32.5s2 -22.167 2 -31.5zM393.001 637.001c0 22.667 -6.5 41.001 -19.5 55.001s-30.833 21 -53.5 21c-12.667 0 -24.167 -2.83301 -34.5 -8.5s-19 -13 -26 -22s-12.333 -19.333 -16 -31
s-5.5 -23.167 -5.5 -34.5c0 -26 2.83301 -48.667 8.5 -68s15.167 -40.333 28.5 -63c19.333 10.667 36.333 21 51 31s27 20.667 37 32s17.5 24.166 22.5 38.499s7.5 30.833 7.5 49.5zM407.001 123.002c-30 42.667 -58.335 86.667 -85.002 132l-77 136
c-16 -8.66699 -31.5 -19.167 -46.5 -31.5s-28.5 -26.333 -40.5 -42s-21.5 -32.5 -28.5 -50.5s-10.5 -37 -10.5 -57c0 -20.667 3.33301 -40.5 10 -59.5s16.167 -35.667 28.5 -50s27.333 -25.833 45 -34.5s37.5 -13 59.5 -13c30.667 0 57.334 6.66699 80.001 20
s44.334 30 65.001 50z" />
    <glyph glyph-name="quotesingle" unicode="'" horiz-adv-x="169" 
d="M114 545h-59l-5 223h69z" />
    <glyph glyph-name="parenleft" unicode="(" horiz-adv-x="361" 
d="M236 -112c-64 50 -110.333 114.166 -139 192.499s-43 164.5 -43 258.5c0 46.667 3.5 91.667 10.5 135s17.833 84.333 32.5 123s33.5 74.5 56.5 107.5s50.5 61.833 82.5 86.5h71c-32 -24.667 -58.833 -53.5 -80.5 -86.5s-39.167 -68.833 -52.5 -107.5
s-22.833 -79.667 -28.5 -123s-8.5 -88.333 -8.5 -135s2.83301 -91.667 8.5 -135s15.167 -84.166 28.5 -122.499s30.833 -74 52.5 -107s48.5 -61.833 80.5 -86.5h-71z" />
    <glyph glyph-name="parenright" unicode=")" horiz-adv-x="361" 
d="M307 339c0 -94 -14.333 -180.166 -43 -258.499s-75 -142.5 -139 -192.5h-71c32 24.667 58.833 53.5 80.5 86.5s39.167 68.667 52.5 107s22.833 79.166 28.5 122.499s8.5 88.333 8.5 135s-2.83301 91.667 -8.5 135s-15.167 84.333 -28.5 123s-30.833 74.5 -52.5 107.5
s-48.5 61.833 -80.5 86.5h71c32 -24.667 59.5 -53.5 82.5 -86.5s41.833 -68.833 56.5 -107.5s25.5 -79.667 32.5 -123s10.5 -88.333 10.5 -135z" />
    <glyph glyph-name="asterisk" unicode="*" horiz-adv-x="394" 
d="M317 526l-90 52v-104h-57v103l-90 -52l-29 50l90 52l-90 52l29 50l90 -52v103h57v-104l90 52l28 -50l-88 -51l88 -51z" />
    <glyph glyph-name="plus" unicode="+" horiz-adv-x="660" 
d="M365 340v-212h-70v212h-215v69h215v212h70v-212h215v-69h-215z" />
    <glyph glyph-name="comma" unicode="," horiz-adv-x="259" 
d="M186 0c0 -28 -3.83301 -50.334 -11.5 -67.001s-19.834 -31 -36.501 -43c-9.33301 -7.33301 -20.833 -13.166 -34.5 -17.499s-28.167 -7.5 -43.5 -9.5l-9 40c10.667 3.33301 20.834 7 30.501 11s17.834 8.66699 24.501 14c9.33301 9.33301 15.666 20.333 18.999 33
s3.33301 25.667 0 39h-52v124h113v-124v0z" />
    <glyph glyph-name="hyphen" unicode="-" horiz-adv-x="305" 
d="M50 290v77h205v-77h-205z" />
    <glyph glyph-name="period" unicode="." horiz-adv-x="259" 
d="M70 0v126h119v-126h-119z" />
    <glyph glyph-name="slash" unicode="/" horiz-adv-x="450" 
d="M70 0h-70l380 768h70z" />
    <glyph glyph-name="zero" unicode="0" horiz-adv-x="517" 
d="M473 350c0 -51.333 -3.16699 -99.1689 -9.5 -143.502s-17.666 -82.666 -33.999 -114.999s-38.333 -57.666 -66 -75.999s-62.834 -27.5 -105.501 -27.5c-41.333 0 -75.833 8.5 -103.5 25.5s-49.667 41.333 -66 73s-27.833 69.834 -34.5 114.501s-10 94.334 -10 149.001
c0 72 3.33301 134.833 10 188.5s18.167 98.334 34.5 134.001s38.333 62.5 66 80.5s62.167 27 103.5 27c42 0 76.833 -8.83301 104.5 -26.5s49.667 -44.334 66 -80.001s27.833 -80.334 34.5 -134.001s10 -116.834 10 -189.501zM389 375.997
c0 43.333 -1.16699 85.167 -3.5 125.5s-7.83301 76 -16.5 107s-21.834 55.833 -39.501 74.5s-41.5 28 -71.5 28s-53.667 -9.5 -71 -28.5s-30.5 -44 -39.5 -75s-14.667 -66.667 -17 -107s-3.5 -81.833 -3.5 -124.5c0 -38.667 0.833008 -77.167 2.5 -115.5
s6.83398 -72.5 15.501 -102.5s21.667 -54.333 39 -73s42 -28 74 -28s56.833 9.33301 74.5 28s30.667 43.167 39 73.5s13.333 64.5 15 102.5s2.5 76.333 2.5 115z" />
    <glyph glyph-name="one" unicode="1" horiz-adv-x="315" 
d="M172 0l0.00195312 611.002c-13.333 -6 -28.5 -10.667 -45.5 -14s-30.5 -5 -40.5 -5h-37c-12 0 -22.667 0.666992 -32 2v49c44 2 84.333 15 121 39c17.333 11.333 30.666 23.666 39.999 36.999s17.666 29.666 24.999 48.999h51v-768h-82z" />
    <glyph glyph-name="two" unicode="2" horiz-adv-x="500" 
d="M460 542c0 -27.333 -4.83301 -54.998 -14.5 -82.998s-22.334 -55.833 -38.001 -83.5s-33.5 -54.667 -53.5 -81s-40.5 -51.166 -61.5 -74.499s-41.667 -44.666 -62 -63.999l-54.5 -51l-34 -30h310v-75h-397v93l30 26c36.667 32 72.5 65.5 107.5 100.5s66 70.667 93 107
s48.667 72.666 65 108.999s24.5 71.166 24.5 104.499c0 63.333 -11 107.666 -33 132.999s-52 38 -90 38c-37.333 0 -65 -14.5 -83 -43.5s-27 -69.5 -27 -121.5c0 -8.66699 0.5 -18.667 1.5 -30s2.16699 -22 3.5 -32c2 -12 3.66699 -24 5 -36h-80l-6 44
c-1.33301 12.667 -2.83301 25.667 -4.5 39s-2.5 24.666 -2.5 33.999c0 28 4 55 12 81s20 48.833 36 68.5s36 35.5 60 47.5s52 18 84 18c34.667 0 65 -4.33301 91 -13s47.833 -22.5 65.5 -41.5s30.834 -43.5 39.501 -73.5s13 -66.667 13 -110z" />
    <glyph glyph-name="three" unicode="3" horiz-adv-x="500" 
d="M455 253c0 -48.667 -5.16504 -89.833 -15.498 -123.5s-25 -61 -44 -82s-41.667 -36.167 -68 -45.5s-55.5 -14 -87.5 -14c-27.333 0 -52.5 4 -75.5 12s-42.667 19.5 -59 34.5s-29 33.333 -38 55s-13.5 46.5 -13.5 74.5c0 19.333 0.833008 34.833 2.5 46.5
s4.83398 24.5 9.50098 38.5l75 5c-2 -7.33301 -4 -15.833 -6 -25.5s-3 -22.167 -3 -37.5c0 -44 10.167 -78 30.5 -102s48.5 -36 84.5 -36c18 0 34.5 3.66699 49.5 11s28.167 18.833 39.5 34.5s20.166 35.667 26.499 60s9.5 53.5 9.5 87.5c0 29.333 -2.5 54.5 -7.5 75.5
s-11.667 38 -20 51s-18.5 22.5 -30.5 28.5s-25 9 -39 9c-20.667 0 -35.834 -3.66699 -45.501 -11s-21.167 -17.333 -34.5 -30l-49 43l193 279h-267v77h353v-77l-166 -234c8.66699 5.33301 17.167 8.83301 25.5 10.5s20.166 2.5 35.499 2.5c14.667 0 30 -4.16699 46 -12.5
s30.5 -21.333 43.5 -39s23.833 -40.167 32.5 -67.5s13 -60 13 -98z" />
    <glyph glyph-name="four" unicode="4" horiz-adv-x="500" 
d="M383 184v-184h-81v184h-266v87l239 497h108v-512h94v-72h-94zM302 674l-202 -418h202v418z" />
    <glyph glyph-name="five" unicode="5" horiz-adv-x="480" 
d="M438 257c0 -94.667 -17.501 -163.168 -52.501 -205.501s-83.833 -63.5 -146.5 -63.5c-60.667 0 -107.167 14.833 -139.5 44.5s-48.5 74.167 -48.5 133.5c0 27.333 2.33301 50.666 7 69.999l74 -1c-1.33301 -5.33301 -2.33301 -12.5 -3 -21.5s-1 -18.167 -1 -27.5
c0 -46 8.66699 -79.167 26 -99.5s43.666 -30.5 78.999 -30.5c22.667 0 41.5 4.5 56.5 13.5s27.167 22.167 36.5 39.5s16 38.5 20 63.5s6 53.5 6 85.5c0 76 -8.5 129.5 -25.5 160.5s-43.833 46.5 -80.5 46.5c-33.333 0 -59.166 -11.167 -77.499 -33.5
s-32.5 -54.5 -42.5 -96.5l-64 16l19 417h312l-3 -71h-242l-13 -234c7.33301 10 15 19.333 23 28s17.167 16.334 27.5 23.001s22.5 11.834 36.5 15.501s31 5.5 51 5.5c50.667 0 90.834 -22 120.501 -66s44.5 -114.667 44.5 -212z" />
    <glyph glyph-name="six" unicode="6" horiz-adv-x="500" 
d="M461 236c0 -40 -5 -75.335 -15 -106.002s-24 -56.5 -42 -77.5s-39.5 -37 -64.5 -48s-52.833 -16.5 -83.5 -16.5c-32 0 -61 5.33301 -87 16s-48 30 -66 58s-31.833 66.5 -41.5 115.5s-14.5 111.5 -14.5 187.5c0 78.667 4.16699 144.5 12.5 197.5s21.166 95.667 38.499 128
s39.166 55.333 65.499 69s57.5 20.5 93.5 20.5c57.333 0 101.333 -14.167 132 -42.5s47.667 -63.5 51 -105.5c0.666992 -6.66699 1 -14 1 -22s-0.333008 -14.667 -1 -20l-82 -6c1.33301 4.66699 2 9.16699 2 13.5v14.5c-1.33301 30 -10.333 54.333 -27 73s-42.667 28 -78 28
c-20.667 0 -38.5 -5.16699 -53.5 -15.5s-27.667 -24.666 -38 -42.999s-18.5 -40 -24.5 -65s-10 -52.5 -12 -82.5c-0.666992 -6.66699 -1.16699 -16.167 -1.5 -28.5s-0.833008 -24.833 -1.5 -37.5s-1 -24.667 -1 -36v-24c11.333 30.667 30.333 55.667 57 75
s59.334 29 98.001 29c24.667 0 48.167 -4.16699 70.5 -12.5s41.833 -22.166 58.5 -41.499s29.834 -44.833 39.501 -76.5s14.5 -71.167 14.5 -118.5zM378 237.998c0 32 -1.99902 59.165 -5.99902 81.498s-10.667 40.5 -20 54.5s-22 24.167 -38 30.5s-35.667 9.5 -59 9.5
c-18.667 0 -35.834 -4.66699 -51.501 -14s-29 -22.166 -40 -38.499s-19.5 -35.5 -25.5 -57.5s-9 -46 -9 -72c0 -29.333 3.5 -55 10.5 -77s16.333 -40.167 28 -54.5s25 -25.166 40 -32.499s30.833 -11 47.5 -11c17.333 0 33.5 3.5 48.5 10.5s28 17.667 39 32s19.667 33 26 56
s9.5 50.5 9.5 82.5z" />
    <glyph glyph-name="seven" unicode="7" horiz-adv-x="476" 
d="M438 681c-34 -34 -63.3311 -72.001 -87.998 -114.001s-45.334 -85.333 -62.001 -130s-29 -89.667 -37 -135s-12 -88.666 -12 -129.999c0 -16 0.333008 -32.667 1 -50s1.5 -34 2.5 -50s2 -30.333 3 -43s1.83301 -22.334 2.5 -29.001h-97
c-0.666992 10.667 -1.33398 22.5 -2.00098 35.5s-1 27.167 -1 42.5c0 67.333 6.5 133 19.5 197s30.333 123.167 52 177.5s46.5 102.333 74.5 144s57 73.834 87 96.501h-349l-3 75h409v-87v0z" />
    <glyph glyph-name="eight" unicode="8" horiz-adv-x="500" 
d="M456 203c0 -32 -4.50293 -61.332 -13.5029 -87.999s-22 -49.334 -39 -68.001s-38 -33.167 -63 -43.5s-53.5 -15.5 -85.5 -15.5c-62 0 -111 17.667 -147 53s-54 89.333 -54 162c0 27.333 3.33301 52 10 74s15 41 25 57s21 29 33 39s23.333 17.333 34 22
c-10.667 4 -21.167 10.167 -31.5 18.5s-19.5 19.166 -27.5 32.499s-14.5 29.166 -19.5 47.499s-7.5 39.166 -7.5 62.499c0 74.667 16.333 130.667 49 168s78.334 56 137.001 56c63.333 0 110.666 -19 141.999 -57s47 -93.333 47 -166c0 -24 -2.66699 -45.167 -8 -63.5
s-12.5 -34.166 -21.5 -47.499s-19.167 -24.166 -30.5 -32.499s-22.666 -14.5 -33.999 -18.5c14 -4 27.333 -11.167 40 -21.5s23.834 -23.666 33.501 -39.999s17.334 -35.333 23.001 -57s8.5 -46.167 8.5 -73.5zM367.997 570.001c0 48 -8.99902 84.167 -26.999 108.5
s-46.667 36.5 -86 36.5c-38.667 0 -66.334 -12.833 -83.001 -38.5s-25 -60.5 -25 -104.5c0 -47.333 10.5 -83 31.5 -107s46.5 -36 76.5 -36c36 0 63.833 11 83.5 33s29.5 58 29.5 108zM375.998 207.001c0 46 -9.66699 83.167 -29 111.5s-50 42.5 -92 42.5
c-40 0 -70.167 -14.5 -90.5 -43.5s-30.5 -65.833 -30.5 -110.5c0 -55.333 10.5 -94.833 31.5 -118.5s50.833 -35.5 89.5 -35.5c40.667 0 71 12.167 91 36.5s30 63.5 30 117.5z" />
    <glyph glyph-name="nine" unicode="9" horiz-adv-x="500" 
d="M456 403c0 -76.667 -4.33496 -141.329 -13.002 -193.996s-21.667 -95.334 -39 -128.001s-39.166 -56.334 -65.499 -71.001s-57.5 -22 -93.5 -22c-60.667 0 -106.834 15.667 -138.501 47s-47.5 72.666 -47.5 123.999c0 9.33301 0.5 17.5 1.5 24.5l2.5 17.5l82 5
c-1.33301 -4.66699 -2 -9 -2 -13v-14c0 -17.333 1.83301 -33.5 5.5 -48.5s9.5 -28.167 17.5 -39.5s18.667 -20.166 32 -26.499s29.666 -9.5 48.999 -9.5c38.667 0 67.834 17.5 87.501 52.5s32.167 92.833 37.5 173.5c0.666992 7.33301 1.16699 16.166 1.5 26.499
s0.5 20.833 0.5 31.5v29.5v20.5c-12.667 -30.667 -31.167 -56 -55.5 -76s-56.166 -30 -95.499 -30c-24.667 0 -48.167 4.16699 -70.5 12.5s-41.666 22.166 -57.999 41.499s-29.333 44.833 -39 76.5s-14.5 71.167 -14.5 118.5c0 41.333 4.83301 77.5 14.5 108.5
s23.5 56.833 41.5 77.5s39.667 36.167 65 46.5s53.333 15.5 84 15.5c32.667 0 62 -5 88 -15s48 -28.833 66 -56.5s31.833 -66 41.5 -115s14.5 -112.5 14.5 -190.5zM368.998 536.005c0 26 -2.67188 49.668 -8.00488 71.001s-13.166 39.833 -23.499 55.5
s-23.166 27.834 -38.499 36.501s-32.666 13 -51.999 13c-42.667 0 -73.667 -15.667 -93 -47s-29 -76.333 -29 -135c0 -34 2.5 -62.333 7.5 -85s12.333 -40.834 22 -54.501s21.667 -23.334 36 -29.001s30.833 -8.5 49.5 -8.5s35.834 4.66699 51.501 14
s29.334 22.333 41.001 39s20.667 36 27 58s9.5 46 9.5 72z" />
    <glyph glyph-name="colon" unicode=":" horiz-adv-x="259" 
d="M72 404v124h115v-124h-115zM72 0v124h115v-124h-115z" />
    <glyph glyph-name="semicolon" unicode=";" horiz-adv-x="259" 
d="M72 404v124h115v-124h-115zM186 0c0 -28 -3.83301 -50.334 -11.5 -67.001s-19.834 -31 -36.501 -43c-9.33301 -7.33301 -20.833 -13.166 -34.5 -17.499s-28.167 -7.5 -43.5 -9.5l-9 40c10.667 3.33301 20.834 7 30.501 11s17.834 8.66699 24.501 14
c9.33301 9.33301 15.666 20.333 18.999 33s3.33301 25.667 0 39h-52v124h113v-124v0z" />
    <glyph glyph-name="less" unicode="&#x3c;" horiz-adv-x="437" 
d="M62 274v96l306 150v-68l-256 -130l256 -130v-68z" />
    <glyph glyph-name="equal" unicode="=" horiz-adv-x="508" 
d="M55 378v70h398v-70h-398zM55 186v70h398v-70h-398z" />
    <glyph glyph-name="greater" unicode="&#x3e;" horiz-adv-x="437" 
d="M70 124v68l256 130l-256 130v68l306 -150v-96z" />
    <glyph glyph-name="question" unicode="?" horiz-adv-x="462" 
d="M434 548c0 -50 -4.00195 -91.501 -12.002 -124.501s-19 -59 -33 -78s-30.667 -32.333 -50 -40s-40.666 -11.5 -63.999 -11.5c-26 0 -48.667 5 -68 15s-32.666 24.667 -39.999 44c1.33301 -9.33301 2.33301 -18.333 3 -27c0.666992 -7.33301 1.16699 -15.333 1.5 -24
s0.5 -16.667 0.5 -24v-63h-64v264h55c0.666992 -15.333 2.83398 -30.333 6.50098 -45s9.16699 -27.667 16.5 -39s16.833 -20.5 28.5 -27.5s25.834 -10.5 42.501 -10.5c18 0 32.833 3.33301 44.5 10s21 17.334 28 32.001s12 33.834 15 57.501s4.5 52.5 4.5 86.5
c0 48.667 -9 88.5 -27 119.5s-46.333 46.5 -85 46.5c-20 0 -36.333 -2.33301 -49 -7s-22.834 -11.334 -30.501 -20.001s-12.834 -19.334 -15.501 -32.001s-4 -26.667 -4 -42c0 -12 1 -21.667 3 -29s4.33301 -14.333 7 -21h-72c-3.33301 8.66699 -5.83301 18.167 -7.5 28.5
s-2.5 22.833 -2.5 37.5c0 20.667 3.16699 40.334 9.5 59.001s16.333 35.167 30 49.5s31.5 25.833 53.5 34.5s48.667 13 80 13c62 0 110 -20.167 144 -60.5s51 -97.5 51 -171.5zM92.998 -0.000976562v115h103v-115h-103z" />
    <glyph glyph-name="at" unicode="@" horiz-adv-x="842" 
d="M797 388c0 -101.333 -17.3301 -179.339 -51.9971 -234.006s-85.667 -82 -153 -82c-27.333 0 -48.166 7.66699 -62.499 23s-21.5 35.333 -21.5 60c-4.66699 -16 -11.834 -29.333 -21.501 -40s-20.334 -19.5 -32.001 -26.5s-23.667 -12 -36 -15s-24.166 -4.5 -35.499 -4.5
c-44.667 0 -79.334 12.667 -104.001 38s-37 60 -37 104c0 20 3.5 38 10.5 54s16.833 30.5 29.5 43.5s27.334 24.167 44.001 33.5s35 17.333 55 24c29.333 9.33301 54.833 15.5 76.5 18.5l46.5 6.5c0 29.333 -1.66699 52.666 -5 69.999s-8.5 30.833 -15.5 40.5
s-16.333 16 -28 19s-25.834 4.5 -42.501 4.5c-17.333 0 -31.166 -2 -41.499 -6s-18.166 -9.16699 -23.499 -15.5s-8.83301 -13.666 -10.5 -21.999s-2.5 -17.166 -2.5 -26.499c0 -3.33301 0.333008 -7 1 -11s1.66699 -7.66699 3 -11l-74 -5
c-0.666992 2.66699 -1.5 7.83398 -2.5 15.501s-1.5 14.5 -1.5 20.5c0 38 13.333 68 40 90s64.667 33 114 33c26 0 48.833 -2.66699 68.5 -8s36.167 -14.333 49.5 -27s23.333 -29.834 30 -51.501s10 -48.5 10 -80.5v-236c0 -21.333 2.33301 -36.166 7 -44.499
s15.667 -12.5 33 -12.5c19.333 0 36.5 6.33301 51.5 19s27.5 30.334 37.5 53.001s17.667 49.834 23 81.501s8 66.167 8 103.5c0 44.667 -6 87.834 -18 129.501s-30.5 78.5 -55.5 110.5s-57 57.667 -96 77s-85.5 29 -139.5 29c-42.667 0 -83 -10.5 -121 -31.5
s-71.167 -50.167 -99.5 -87.5s-50.833 -81.666 -67.5 -132.999s-25 -107.333 -25 -168c0 -67.333 7.66699 -126.333 23 -177s37.166 -93 65.499 -127s62.5 -59.667 102.5 -77s85 -26 135 -26c21.333 0 42.166 3 62.499 9s39.333 13.5 57 22.5s33.167 18.833 46.5 29.5
s23.666 20.334 30.999 29.001l35 -36c-10.667 -10.667 -23.5 -21.834 -38.5 -33.501s-32.167 -22.5 -51.5 -32.5s-41.166 -18.167 -65.499 -24.5s-51.5 -9.5 -81.5 -9.5c-60 0 -113.833 9.16699 -161.5 27.5s-88.167 46.166 -121.5 83.499s-59 84.5 -77 141.5
s-27 124.167 -27 201.5c0 70 9.33301 133.833 28 191.5s45 107.334 79 149.001s74.833 74 122.5 97s100.5 34.5 158.5 34.5c60.667 0 113.667 -9.83301 159 -29.5s83.166 -47.167 113.499 -82.5s53.166 -77 68.499 -125s23 -100.667 23 -158zM504.003 332.994
c-66.667 -10 -115 -25.666 -145 -46.999s-45 -49 -45 -83c0 -24 6.5 -41.333 19.5 -52s33.833 -16 62.5 -16c13.333 0 26.5 3 39.5 9s24.5 14.167 34.5 24.5s18.167 22.666 24.5 36.999s9.5 29.833 9.5 46.5v81z" />
    <glyph glyph-name="A" unicode="A" horiz-adv-x="602" 
d="M494 0l-54 188h-291l-50 -188h-79l214 768h123l225 -768h-88zM294 705l-128 -450h258z" />
    <glyph glyph-name="B" unicode="B" 
d="M547 217c0 -42.667 -5.5 -78 -16.5 -106s-25.833 -50.167 -44.5 -66.5s-40.5 -27.833 -65.5 -34.5s-51.833 -10 -80.5 -10h-278v768h246c72.667 0 127.5 -17.5 164.5 -52.5s55.5 -86.5 55.5 -154.5c0 -52 -10.667 -90.333 -32 -115s-49.666 -39 -84.999 -43
c18 -1.33301 35.333 -6 52 -14s31.167 -19.5 43.5 -34.5s22.166 -33.833 29.499 -56.5s11 -49.667 11 -81zM446 558c0 27.333 -3.83301 50 -11.5 68s-18 32.5 -31 43.5s-28.333 18.667 -46 23s-36.5 6.5 -56.5 6.5h-157v-262h159c49.333 0 85.5 9.16699 108.5 27.5
s34.5 49.5 34.5 93.5zM465 224c0 44 -11.6689 78.832 -35.002 104.499s-62 38.5 -116 38.5h-170v-297h172c23.333 0 44.333 2.5 63 7.5s34.334 13.333 47.001 25s22.334 27.334 29.001 47.001s10 44.5 10 74.5z" />
    <glyph glyph-name="C" unicode="C" horiz-adv-x="622" 
d="M564 265c-0.666992 -45.333 -5.50293 -85.1699 -14.5029 -119.503s-22.667 -63.166 -41 -86.499s-42 -41 -71 -53s-64.5 -18 -106.5 -18c-46 0 -86.667 6.83301 -122 20.5s-65.166 35.667 -89.499 66s-42.833 69.833 -55.5 118.5s-19 107.667 -19 177
c0 74.667 6.33301 138 19 190s31 94.333 55 127s53.333 56.334 88 71.001s74 22 118 22c52 0 94.167 -8 126.5 -24s57.333 -36.667 75 -62s29 -54.166 34 -86.499s6.16699 -65.166 3.5 -98.499h-86c3.33301 28 2.5 54.333 -2.5 79s-13.667 46.167 -26 64.5
s-28.666 32.833 -48.999 43.5s-44.166 16 -71.499 16c-33.333 0 -62.333 -6.5 -87 -19.5s-45.167 -33 -61.5 -60s-28.5 -61.5 -36.5 -103.5s-12 -92.333 -12 -151c0 -106 15.167 -185.833 45.5 -239.5s81.833 -80.5 154.5 -80.5c34 0 60.5 5.5 79.5 16.5
s33.333 26.167 43 45.5s16 42.166 19 68.499s4.83301 54.5 5.5 84.5l85 -8v0z" />
    <glyph glyph-name="D" unicode="D" horiz-adv-x="628" 
d="M582 370c0 -66 -5.83203 -122.498 -17.499 -169.498s-30.667 -85.333 -57 -115s-60.833 -51.334 -103.5 -65.001s-95 -20.5 -157 -20.5h-185v768h224c43.333 0 83.166 -7.83301 119.499 -23.5s67.5 -39.834 93.5 -72.501s46.333 -74 61 -124s22 -109.333 22 -178z
M500.001 370.002c0 108 -19.668 189.333 -59.001 244s-100.333 82 -183 82h-114v-624h98c44.667 0 83.334 4.66699 116.001 14s59.5 25.333 80.5 48s36.5 53.167 46.5 91.5s15 86.5 15 144.5z" />
    <glyph glyph-name="E" unicode="E" horiz-adv-x="518" 
d="M62 0v768h402v-69h-320v-270h293v-69h-293v-291h343v-69h-425z" />
    <glyph glyph-name="F" unicode="F" horiz-adv-x="481" 
d="M144 699v-283h288v-69h-288v-347h-82v768h392v-69h-310z" />
    <glyph glyph-name="G" unicode="G" horiz-adv-x="645" 
d="M540 -5c-4 10 -7.66992 19.667 -11.0029 29c-3.33301 8 -6.5 16 -9.5 24s-5.83301 14.667 -8.5 20c-20.667 -28 -46.5 -48.333 -77.5 -61s-66.5 -19 -106.5 -19c-38 0 -74 6 -108 18s-63.833 32.5 -89.5 61.5s-46.167 67.5 -61.5 115.5s-23 107.667 -23 179
c0 74 6.83301 137.5 20.5 190.5s32.834 96.333 57.501 130s54.5 58.334 89.5 74.001s73.833 23.5 116.5 23.5c89.333 0 154.5 -22.667 195.5 -68s58.833 -107.333 53.5 -186l-86 -14c2.66699 35.333 0.833984 65.666 -5.49902 90.999s-16.5 46 -30.5 62
s-31.5 27.833 -52.5 35.5s-44.5 11.5 -70.5 11.5c-72 0 -124 -29.333 -156 -88s-48 -145.667 -48 -261c0 -56 4.33301 -103.5 13 -142.5s21.834 -70.833 39.501 -95.5s40 -42.667 67 -54s59.167 -17 96.5 -17c30.667 0 56.5 4.5 77.5 13.5s38.167 21.667 51.5 38
s23 36.333 29 60s9 50.167 9 79.5c0 11.333 -0.333008 22 -1 32s-1.66699 19.333 -3 28h-153v69h235v-371z" />
    <glyph glyph-name="H" unicode="H" horiz-adv-x="620" 
d="M476 0v376h-332v-376h-82v768h82v-323h332v323h82v-768h-82z" />
    <glyph glyph-name="I" unicode="I" horiz-adv-x="207" 
d="M62 0v768h83v-768h-83z" />
    <glyph glyph-name="J" unicode="J" horiz-adv-x="429" 
d="M376 219c0 -80.667 -13.8311 -139.332 -41.498 -175.999s-73.167 -55 -136.5 -55c-56.667 0 -100 14.167 -130 42.5s-45 71.166 -45 128.499c0 12 0.666992 24.167 2 36.5s3.33301 25.166 6 38.499l83 4c-2.66699 -13.333 -4.66699 -26.833 -6 -40.5s-2 -26.167 -2 -37.5
c0 -34.667 7.66699 -59.334 23 -74.001s38 -22 68 -22c19.333 0 35.166 2.66699 47.499 8s22.166 14.833 29.499 28.5s12.5 31.834 15.5 54.501s4.5 51.334 4.5 86.001v527h82v-549v0z" />
    <glyph glyph-name="K" unicode="K" horiz-adv-x="562" 
d="M448 0l-304 343v-343h-82v768h82v-340l283 340h96l-314 -374l346 -394h-107z" />
    <glyph glyph-name="L" unicode="L" horiz-adv-x="459" 
d="M62 0v768h82v-698h282v-70h-364z" />
    <glyph glyph-name="M" unicode="M" horiz-adv-x="739" 
d="M597 0v677l-193 -677h-69l-195 677v-677h-78v768h132l177 -622l177 622h129v-768h-80z" />
    <glyph glyph-name="N" unicode="N" horiz-adv-x="612" 
d="M445 0l-309 646v-646h-74v768h105l309 -646v646h74v-768h-105z" />
    <glyph glyph-name="O" unicode="O" horiz-adv-x="654" 
d="M609 384c0 -135.333 -21.999 -235.169 -65.999 -299.502s-116 -96.5 -216 -96.5c-48.667 0 -90.667 7.5 -126 22.5s-64.5 38.5 -87.5 70.5s-40.167 73 -51.5 123s-17 110 -17 180c0 136.667 24.667 236.834 74 300.501s118.666 95.5 207.999 95.5
c90 0 159.5 -32.167 208.5 -96.5s73.5 -164.166 73.5 -299.499zM525.001 383.997c0 112 -16.6699 194.668 -50.0029 248.001s-82.666 80 -147.999 80c-63.333 0 -112.166 -26.333 -146.499 -79s-51.5 -135.667 -51.5 -249c0 -58.667 3.83301 -108.834 11.5 -150.501
s19.5 -75.667 35.5 -102s36.5 -45.5 61.5 -57.5s54.833 -18 89.5 -18c37.333 0 68.5 6.5 93.5 19.5s45.333 33 61 60s26.834 61.167 33.501 102.5s10 90 10 146z" />
    <glyph glyph-name="P" unicode="P" horiz-adv-x="547" 
d="M515 526c0 -40.667 -6.5 -74.832 -19.5 -102.499s-30.667 -50 -53 -67s-48.5 -29.167 -78.5 -36.5s-62 -11 -96 -11h-124v-309h-82v768h203c38 0 72.333 -4.33301 103 -13s57 -22.5 79 -41.5s38.833 -43.833 50.5 -74.5s17.5 -68.334 17.5 -113.001zM433 530.002
c0 24 -3.33301 46.333 -10 67s-16.167 38.5 -28.5 53.5s-27.5 26.833 -45.5 35.5s-38.667 13 -62 13h-143v-320h140c48.667 0 85.667 13.667 111 41s38 64 38 110z" />
    <glyph glyph-name="Q" unicode="Q" horiz-adv-x="654" 
d="M609 384c0 -63.333 -4.83203 -118.501 -14.499 -165.501s-24.5 -86.5 -44.5 -118.5s-45.333 -56.667 -76 -74s-67.334 -28 -110.001 -32c-5.33301 -4.66699 -9.33301 -10 -12 -16s-4 -11.667 -4 -17c0 -23.333 6.16699 -41.666 18.5 -54.999s31.833 -20 58.5 -20
c19.333 0 34.5 3.5 45.5 10.5s22.167 17.167 33.5 30.5l36 -53c-10.667 -14 -26 -27.167 -46 -39.5s-43.333 -18.5 -70 -18.5c-48.667 0 -85.834 11.5 -111.501 34.5s-38.5 55.5 -38.5 97.5c0 8 1.33301 16.167 4 24.5s6.66699 15.5 12 21.5
c-80.667 5.33301 -141.667 39.5 -183 102.5s-62 158.833 -62 287.5c0 135.333 24.333 235.166 73 299.499s118.334 96.5 209.001 96.5c90 0 159.5 -32.167 208.5 -96.5s73.5 -164.166 73.5 -299.499zM525.001 383.999c0 114 -16.6689 197.167 -50.002 249.5
s-82.666 78.5 -147.999 78.5c-31.333 0 -59.166 -6.16699 -83.499 -18.5s-45 -31.666 -62 -57.999s-30 -60.333 -39 -102s-13.5 -91.5 -13.5 -149.5c0 -58.667 3.83301 -108.667 11.5 -150s19.5 -75 35.5 -101s36.5 -45 61.5 -57s54.833 -18 89.5 -18
c35.333 0 65.5 6 90.5 18s45.5 31.167 61.5 57.5s27.667 60.166 35 101.499s11 91 11 149z" />
    <glyph glyph-name="R" unicode="R" horiz-adv-x="588" 
d="M460 0c-5.33301 7.33301 -9.83203 18.498 -13.499 33.498s-5.5 33.167 -5.5 54.5v130c0 36.667 -9.83301 65.667 -29.5 87s-50.5 32 -92.5 32h-175v-337h-82v768h247c76.667 0 133.167 -18.5 169.5 -55.5s54.5 -94.167 54.5 -171.5c0 -28 -3 -52 -9 -72
s-14.167 -36.5 -24.5 -49.5s-22.833 -23.167 -37.5 -30.5s-31 -12 -49 -14c22 -2.66699 40.167 -8.33398 54.5 -17.001s25.666 -21.167 33.999 -37.5s14.166 -37.166 17.499 -62.499s5.33301 -56 6 -92c0 -11.333 0.333008 -25.166 1 -41.499
s1.33398 -29.166 2.00098 -38.499c2 -41.333 8.66699 -70 20 -86h-88zM449.001 540.998c0 54 -12.833 93.998 -38.5 119.998s-67.167 39 -124.5 39h-142v-293h154c30 0 54.667 3 74 9s34.833 14.833 46.5 26.5s19.667 25.834 24 42.501s6.5 35.334 6.5 56.001z" />
    <glyph glyph-name="S" unicode="S" horiz-adv-x="562" 
d="M515 196c0 -36.667 -5.49609 -68.0029 -16.4961 -94.0029s-27 -47.5 -48 -64.5s-46.5 -29.5 -76.5 -37.5s-64 -12 -102 -12c-72.667 0 -127.834 14.5 -165.501 43.5s-56.5 73.167 -56.5 132.5c0 15.333 1 28.5 3 39.5s4.33301 22.833 7 35.5l80 3
c-2.66699 -9.33301 -4.66699 -18.833 -6 -28.5s-2 -20.5 -2 -32.5c0 -44 11.333 -75.333 34 -94s59 -28 109 -28c52.667 0 92 10 118 30s39 55 39 105c0 18.667 -2.83301 35.5 -8.5 50.5s-14.834 29 -27.501 42s-29.167 25.5 -49.5 37.5s-45.5 24.333 -75.5 37l-93 40
c-38.667 16 -69.334 36.833 -92.001 62.5s-34 60.167 -34 103.5c0 31.333 4.16699 60 12.5 86s21.166 48.5 38.499 67.5s39.5 33.667 66.5 44s59.167 15.5 96.5 15.5c32.667 0 62.167 -4.5 88.5 -13.5s48.833 -21.667 67.5 -38s33.167 -35.833 43.5 -58.5
s15.5 -47.667 15.5 -75c0 -13.333 -0.5 -23.5 -1.5 -30.5s-2.5 -14.5 -4.5 -22.5l-78 -2c1.33301 5.33301 2.5 11 3.5 17s1.5 12.667 1.5 20c0 18 -2.5 35.167 -7.5 51.5s-13.167 30.666 -24.5 42.999s-25.833 22.166 -43.5 29.499s-39.5 11 -65.5 11
c-43.333 0 -75 -10.667 -95 -32s-30 -50.666 -30 -87.999c0 -17.333 2.16699 -32.166 6.5 -44.499s11.333 -23.5 21 -33.5s22 -19.333 37 -28s33.167 -17.667 54.5 -27l115 -51c26.667 -12 49.167 -25.667 67.5 -41s33.333 -32.166 45 -50.499s20 -37.666 25 -57.999
s7.5 -41.166 7.5 -62.499z" />
    <glyph glyph-name="T" unicode="T" horiz-adv-x="494" 
d="M288 697v-697h-82v697h-188v71h455v-71h-185z" />
    <glyph glyph-name="U" unicode="U" horiz-adv-x="610" 
d="M552 250c0 -39.333 -3.00195 -75.168 -9.00195 -107.501s-17.833 -60 -35.5 -83s-42.167 -40.667 -73.5 -53s-72.333 -18.5 -123 -18.5c-48.667 0 -89.167 5.16699 -121.5 15.5s-58.333 26.166 -78 47.499s-33.5 48.333 -41.5 81s-12 71.334 -12 116.001v520h82v-559
c0 -18 2.5 -36 7.5 -54s14 -34 27 -48s30.5 -25.5 52.5 -34.5s50 -13.5 84 -13.5c32.667 0 59.334 4.83301 80.001 14.5s36.834 22 48.501 37s19.667 31.333 24 49s6.5 34.834 6.5 51.501v557h82v-518v0z" />
    <glyph glyph-name="V" unicode="V" horiz-adv-x="567" 
d="M317 0h-81l-216 768h88l173 -647l186 647h80z" />
    <glyph glyph-name="W" unicode="W" horiz-adv-x="814" 
d="M616 0h-80l-131 628l-142 -628h-80l-163 768h85l123 -614l140 614h81l131 -614l133 614h78z" />
    <glyph glyph-name="X" unicode="X" horiz-adv-x="586" 
d="M463 0l-178 323l-173 -323h-83l217 401l-205 367h94l160 -291l156 291h81l-196 -369l221 -399h-94z" />
    <glyph glyph-name="Y" unicode="Y" horiz-adv-x="560" 
d="M326 322v-322h-82v322l-232 446h90l189 -366l176 366h81z" />
    <glyph glyph-name="Z" unicode="Z" horiz-adv-x="532" 
d="M39 0v90l373 609h-337v69h415v-92l-372 -607h372v-69h-451z" />
    <glyph glyph-name="bracketleft" unicode="[" horiz-adv-x="260" 
d="M79 -95v863h175v-65h-97v-733h97v-65h-175z" />
    <glyph glyph-name="backslash" unicode="\" horiz-adv-x="450" 
d="M380 0l-380 768h70l380 -768h-70z" />
    <glyph glyph-name="bracketright" unicode="]" horiz-adv-x="260" 
d="M6 -95v65h97v733h-97v65h175v-863h-175z" />
    <glyph glyph-name="asciicircum" unicode="^" horiz-adv-x="525" 
d="M355 234l-86 115l-82 -115h-63l120 195h52l121 -195h-62z" />
    <glyph glyph-name="underscore" unicode="_" horiz-adv-x="500" 
d="M0 -199v69h500v-69h-500z" />
    <glyph glyph-name="grave" unicode="`" horiz-adv-x="540" 
d="M319 636l-137 119v11h114l79 -130h-56z" />
    <glyph glyph-name="a" unicode="a" horiz-adv-x="500" 
d="M481 13c-8 -6 -17.498 -11 -28.498 -15s-24.167 -6 -39.5 -6c-43.333 0 -65 33.667 -65 101c-6 -20.667 -14.667 -37.667 -26 -51s-23.833 -24 -37.5 -32s-27.834 -13.667 -42.501 -17s-28.334 -5 -41.001 -5c-52 0 -92 14.333 -120 43s-42 69 -42 121
c0 23.333 4 44.333 12 63s19.167 35.334 33.5 50.001s31.333 27.5 51 38.5s40.834 20.167 63.501 27.5c34 11.333 64.167 18.666 90.5 21.999l54.5 7c0 34 -2 61.667 -6 83s-10.333 38 -19 50s-19.834 20.167 -33.501 24.5s-30.5 6.5 -50.5 6.5s-36.167 -2.5 -48.5 -7.5
s-21.833 -11.5 -28.5 -19.5s-11 -17.167 -13 -27.5s-3 -20.833 -3 -31.5c0 -4.66699 0.333008 -9.33398 1 -14.001s1.66699 -8.66699 3 -12l-81 -7c-0.666992 3.33301 -1.5 9.5 -2.5 18.5s-1.5 17.167 -1.5 24.5c0 44 15 79 45 105s74 39 132 39
c30 0 56.5 -3.16699 79.5 -9.5s42.167 -17 57.5 -32s26.833 -35 34.5 -60s11.5 -56.5 11.5 -94.5v-287c0 -15.333 2.66699 -27.166 8 -35.499s18.333 -12.5 39 -12.5h13v-48v0zM344.002 294c-4 0 -10 -0.50293 -18 -1.50293s-16.667 -2.16699 -26 -3.5
s-18.666 -3.16602 -27.999 -5.49902l-25 -6.5c-47.333 -15.333 -80.666 -33.666 -99.999 -54.999s-29 -48 -29 -80c0 -28 8 -48.5 24 -61.5s40.333 -19.5 73 -19.5c16 0 31.667 3.5 47 10.5s29.166 16.833 41.499 29.5s22.166 27.334 29.499 44.001s11 35 11 55v94z" />
    <glyph glyph-name="b" unicode="b" horiz-adv-x="524" 
d="M481 274c0 -54.667 -6.16797 -100.334 -18.501 -137.001s-28.166 -66 -47.499 -88s-41 -37.667 -65 -47s-47.667 -14 -71 -14c-19.333 0 -37 3 -53 9s-30.167 13.167 -42.5 21.5s-22.666 17.333 -30.999 27s-14.5 18.5 -18.5 26.5l-40 -74h-34v770h78v-280
c10.667 28.667 28.667 51.834 54 69.501s53.333 26.5 84 26.5c32 0 60.833 -5.66699 86.5 -17s47.167 -29.333 64.5 -54s30.666 -56.667 39.999 -96s14 -87 14 -143zM402.999 276c0 44 -2.99609 81.001 -8.99609 111.001s-14.5 54.333 -25.5 73s-24.667 32 -41 40
s-34.833 12 -55.5 12c-40.667 0 -73.167 -18.5 -97.5 -55.5s-36.5 -93.833 -36.5 -170.5c0 -42 2.83301 -77.333 8.5 -106s14.167 -51.834 25.5 -69.501s25.666 -30.167 42.999 -37.5s37.666 -11 60.999 -11c19.333 0 36.666 3.66699 51.999 11s28.666 19.333 39.999 36
s20 38.667 26 66s9 61 9 101z" />
    <glyph glyph-name="c" unicode="c" horiz-adv-x="483" 
d="M445 162c0 -21.333 -3.33203 -42.5039 -9.99902 -63.5039s-17.5 -39.667 -32.5 -56s-34.333 -29.5 -58 -39.5s-52.5 -15 -86.5 -15c-70.667 0 -124.167 22.667 -160.5 68s-54.5 118 -54.5 218c0 58.667 4.66699 108.334 14 149.001s23.333 73.5 42 98.5s42 43 70 54
s60.333 16.5 97 16.5c30 0 55.833 -4.5 77.5 -13.5s39.5 -21.167 53.5 -36.5s24.167 -33.666 30.5 -54.999s9.5 -44 9.5 -68c0 -9.33301 -0.333008 -17.333 -1 -24s-1.66699 -12.667 -3 -18l-73 -4c1.33301 3.33301 2.16602 7 2.49902 11s0.5 9.66699 0.5 17
c0 38 -8.33301 67.5 -25 88.5s-43 31.5 -79 31.5c-48.667 0 -83.5 -18.333 -104.5 -55s-31.5 -91.667 -31.5 -165c0 -48.667 2.66699 -88.834 8 -120.501s13.5 -56.667 24.5 -75s25 -31 42 -38s37.167 -10.5 60.5 -10.5c42 0 71.167 11.833 87.5 35.5
s24.5 57.834 24.5 102.501c0 12.667 -1.66699 26.667 -5 42l73 -4c2 -9.33301 3.66699 -19.666 5 -30.999s2 -24.666 2 -39.999z" />
    <glyph glyph-name="d" unicode="d" horiz-adv-x="524" 
d="M389 -1l0.000976562 79c-10.667 -25.333 -29.334 -46.333 -56.001 -63s-59 -25 -97 -25c-25.333 0 -49.666 4.5 -72.999 13.5s-43.833 24.5 -61.5 46.5s-31.834 51.167 -42.501 87.5s-16 81.833 -16 136.5c0 56 5 103.5 15 142.5s24 70.833 42 95.5
s39.167 42.5 63.5 53.5s50.5 16.5 78.5 16.5c30.667 0 59 -6.83301 85 -20.5s45.667 -34.5 59 -62.5v269h78v-769h-75zM386.001 286c0 36.667 -4.00195 69.167 -12.002 97.5s-18.5 52 -31.5 71s-28 33.333 -45 43s-34.5 14.5 -52.5 14.5
c-21.333 0 -39.666 -4.16699 -54.999 -12.5s-28 -21.833 -38 -40.5s-17.333 -43 -22 -73s-7 -66.667 -7 -110c0 -40 3 -73.667 9 -101s14.833 -49.333 26.5 -66s25.834 -28.667 42.501 -36s35.667 -11 57 -11c18.667 0 35.834 3.66699 51.501 11s29.167 19.5 40.5 36.5
s20.166 40 26.499 69s9.5 64.833 9.5 107.5z" />
    <glyph glyph-name="e" unicode="e" horiz-adv-x="508" 
d="M459 312l0.00195312 -18.502c0 -6.33301 -0.333008 -12.5 -1 -18.5h-334c0 -8.66699 0.166992 -17 0.5 -25s0.833008 -15.667 1.5 -23c4 -62 17.167 -105.833 39.5 -131.5s57.5 -38.5 105.5 -38.5c20.667 0 37.834 3 51.501 9s24.5 14 32.5 24s13.667 21.5 17 34.5
s5.33301 26.5 6 40.5v15c0 2.66699 -0.333008 5.33398 -1 8.00098l77 -8c1.33301 -5.33301 2 -10.666 2 -15.999s-0.333008 -12.333 -1 -21c-3.33301 -48 -21.166 -85.833 -53.499 -113.5s-78.833 -41.5 -139.5 -41.5c-38 0 -70.833 5.16699 -98.5 15.5
s-50.334 27 -68.001 50s-30.834 53 -39.501 90s-13 82.167 -13 135.5c0 58.667 4.66699 108 14 148s23.333 72.167 42 96.5s41.5 41.833 68.5 52.5s57.833 16 92.5 16c59.333 0 105.666 -18.667 138.999 -56s52.666 -94.333 57.999 -171
c0.666992 -7.33301 1.16699 -15.5 1.5 -24.5s0.5 -18.5 0.5 -28.5zM377.002 339.998c0 6.66699 -0.167969 16.001 -0.500977 28.001s-1.16602 22.667 -2.49902 32c-2.66699 17.333 -6.66699 33.5 -12 48.5s-12.5 28.167 -21.5 39.5s-20.167 20.166 -33.5 26.499
s-29.333 9.5 -48 9.5c-42 0 -75 -16.167 -99 -48.5s-36 -77.5 -36 -135.5h253v0z" />
    <glyph glyph-name="f" unicode="f" horiz-adv-x="287" 
d="M256 645c6 21.333 6.66504 39 1.99805 53s-18 21 -40 21c-15.333 0 -27.166 -5.66699 -35.499 -17s-12.5 -28 -12.5 -50v-78h109v-68h-109v-506h-78v506h-85v68h85v58c0 22 2 42.167 6 60.5s10.833 34 20.5 47s22.334 23 38.001 30s35.5 10.5 59.5 10.5
c26 0 47 -4.33301 63 -13s28 -19.667 36 -33s12.5 -28.333 13.5 -45s-1.16699 -33 -6.5 -49z" />
    <glyph glyph-name="g" unicode="g" horiz-adv-x="469" 
d="M455 -10c0 -60 -19.1699 -104.666 -57.5029 -133.999s-94.166 -44 -167.499 -44c-68.667 0 -118 10.5 -148 31.5s-45 50.167 -45 87.5c0 12.667 1.5 25.334 4.5 38.001s8 24.667 15 36s16.167 21.333 27.5 30s25.333 15.334 42 20.001
c-30 5.33301 -50.333 15.666 -61 30.999s-16 33.666 -16 54.999s6.5 40.666 19.5 57.999s34.5 31.333 64.5 42c-12 6.66699 -22.667 15.667 -32 27s-17.166 24.333 -23.499 39s-11 30.167 -14 46.5s-4.5 32.833 -4.5 49.5c0 57.333 15.333 103.166 46 137.499
s75.334 51.5 134.001 51.5c15.333 0 28.5 -1.33301 39.5 -4s20.167 -5.66699 27.5 -9l15 104h90l-66 -122c19.333 -14 36.666 -34.333 51.999 -61s23 -59 23 -97c0 -28 -4.16699 -53.667 -12.5 -77s-20.166 -43.333 -35.499 -60s-33.5 -29.667 -54.5 -39
s-44.167 -14 -69.5 -14c-15.333 0 -29.5 1 -42.5 3s-23.5 4 -31.5 6c-25.333 -7.33301 -41 -15.5 -47 -24.5s-9 -19.833 -9 -32.5c0 -14.667 6.83301 -25.5 20.5 -32.5s38.5 -8.83301 74.5 -5.5l75 7c22.667 2 44 0.833008 64 -3.5s37.667 -12.333 53 -24
s27.5 -27.167 36.5 -46.5s13.5 -42.666 13.5 -69.999zM341.997 403.001c0 38 -8.16602 68.667 -24.499 92s-42.5 35 -78.5 35c-36.667 0 -62.834 -11.167 -78.501 -33.5s-23.5 -53.5 -23.5 -93.5c0 -40.667 8.5 -72 25.5 -94s42.5 -33 76.5 -33c68.667 0 103 42.333 103 127
zM388.998 -21.999c0 30.667 -10.6689 51 -32.002 61s-49.666 15 -84.999 15c-16.667 0 -33.167 -0.666992 -49.5 -2s-30.166 -3.33301 -41.499 -6c-30 -14 -50.333 -29 -61 -45s-16 -32 -16 -48c0 -24.667 10.333 -44.167 31 -58.5s53 -21.5 97 -21.5
c57.333 0 97.833 9 121.5 27s35.5 44 35.5 78z" />
    <glyph glyph-name="h" unicode="h" horiz-adv-x="488" 
d="M353 0l0.000976562 373c0 27.333 -2 50 -6 68s-10.167 32.333 -18.5 43s-18.833 18.167 -31.5 22.5s-28 6.5 -46 6.5c-18.667 0 -35 -4.5 -49 -13.5s-25.833 -21.167 -35.5 -36.5s-16.834 -33.5 -21.501 -54.5s-7 -43.5 -7 -67.5v-341h-78v768h78v-281
c10 32 26.833 56.167 50.5 72.5s53.5 24.5 89.5 24.5c20.667 0 40.167 -2.83301 58.5 -8.5s34.5 -15.834 48.5 -30.501s25.167 -34.167 33.5 -58.5s12.5 -55.166 12.5 -92.499v-394h-78z" />
    <glyph glyph-name="i" unicode="i" horiz-adv-x="198" 
d="M55 671v97h88v-97h-88zM60 0v574h78v-574h-78z" />
    <glyph glyph-name="j" unicode="j" horiz-adv-x="210" 
d="M67 671v97h88v-97h-88zM150 -27c0 -54 -12.001 -92.998 -36.001 -116.998s-56 -36 -96 -36c-32.667 0 -60.5 7 -83.5 21s-37.167 38.667 -42.5 74c-1.33301 6 -1.83301 12.333 -1.5 19s0.833008 12 1.5 16l66 6c-0.666992 -8.66699 -0.666992 -16.334 0 -23.001
c2 -19.333 7.83301 -32.333 17.5 -39s22.834 -10 39.501 -10c10 0 18.667 1.83301 26 5.5s13.333 10.167 18 19.5s8 21.666 10 36.999s3 35 3 59v569h78v-601v0z" />
    <glyph glyph-name="k" unicode="k" horiz-adv-x="444" 
d="M336 0l-127 258l-71 -116v-142h-78v768h78v-499l183 305h88l-147 -238l167 -336h-93z" />
    <glyph glyph-name="l" unicode="l" horiz-adv-x="198" 
d="M60 0v768h78v-768h-78z" />
    <glyph glyph-name="m" unicode="m" horiz-adv-x="768" 
d="M634 0l0.00390625 373.002c0 27.333 -2 50 -6 68s-10 32.333 -18 43s-18.167 18.167 -30.5 22.5s-27.166 6.5 -44.499 6.5c-18.667 0 -34.834 -4.66699 -48.501 -14s-25.167 -21.833 -34.5 -37.5s-16.333 -33.834 -21 -54.501s-7 -42.667 -7 -66v-341h-77v373
c0 27.333 -2 50 -6 68s-10 32.333 -18 43s-18.333 18.167 -31 22.5s-27.667 6.5 -45 6.5c-18 0 -34 -4.66699 -48 -14s-25.5 -22 -34.5 -38s-15.833 -34.333 -20.5 -55s-7 -42.334 -7 -65.001v-341h-77v574h77v-87c9.33301 32 26.666 56.167 51.999 72.5
s53.666 24.5 84.999 24.5c40 0 71 -9.5 93 -28.5s37.667 -44.5 47 -76.5c5.33301 16 13 30.5 23 43.5s21.667 24 35 33s27.666 16 42.999 21s30.666 7.5 45.999 7.5c20 0 39 -2.83301 57 -8.5s34 -15.834 48 -30.501s25 -34.167 33 -58.5s12 -55.166 12 -92.499v-394h-77z
" />
    <glyph glyph-name="n" unicode="n" horiz-adv-x="488" 
d="M353 0l0.000976562 373.001c0 27.333 -2 50 -6 68s-10.167 32.333 -18.5 43s-18.833 18.167 -31.5 22.5s-28 6.5 -46 6.5c-18.667 0 -35 -4.66699 -49 -14s-25.833 -22 -35.5 -38s-16.834 -34.333 -21.501 -55s-7 -42.334 -7 -65.001v-341h-78v574h78v-84
c12.667 30.667 31.167 54 55.5 70s52.5 24 84.5 24c20.667 0 40.167 -2.83301 58.5 -8.5s34.5 -15.834 48.5 -30.501s25.167 -34.167 33.5 -58.5s12.5 -55.166 12.5 -92.499v-394h-78z" />
    <glyph glyph-name="o" unicode="o" horiz-adv-x="528" 
d="M485 290c0 -53.333 -5.66699 -99.166 -17 -137.499s-27 -69.666 -47 -93.999s-43.5 -42.166 -70.5 -53.499s-55.833 -17 -86.5 -17s-59.5 5.66699 -86.5 17s-50.5 29.166 -70.5 53.499s-35.667 55.666 -47 93.999s-17 84.166 -17 137.499c0 54 5.66699 100 17 138
s27 69.167 47 93.5s43.5 42.166 70.5 53.499s55.833 17 86.5 17s59.5 -5.66699 86.5 -17s50.5 -29.166 70.5 -53.499s35.667 -55.5 47 -93.5s17 -84 17 -138zM407 290c0 24.667 -1.83301 50.667 -5.5 78s-10.667 52.5 -21 75.5s-24.833 42.167 -43.5 57.5s-43 23 -73 23
s-54.333 -7.66699 -73 -23s-33.167 -34.5 -43.5 -57.5s-17.333 -48.167 -21 -75.5s-5.5 -53.333 -5.5 -78c0 -24 1.83301 -49.667 5.5 -77s10.667 -52.5 21 -75.5s24.833 -42 43.5 -57s43 -22.5 73 -22.5s54.333 7.5 73 22.5s33.167 34 43.5 57s17.333 48.167 21 75.5
s5.5 53 5.5 77z" />
    <glyph glyph-name="p" unicode="p" horiz-adv-x="524" 
d="M481 274c0 -54.667 -6.16895 -100.334 -18.502 -137.001s-28.166 -66 -47.499 -88s-41 -37.667 -65 -47s-47.667 -14 -71 -14c-18.667 0 -35.834 2.5 -51.501 7.5s-29.5 11.333 -41.5 19s-22 16.334 -30 26.001s-14 19.5 -18 29.5v-250h-78v754h78v-93
c10 34.667 27.833 60.834 53.5 78.501s53.834 26.5 84.501 26.5c28 0 54.5 -5.5 79.5 -16.5s46.833 -28.833 65.5 -53.5s33.334 -56.834 44.001 -96.501s16 -88.167 16 -145.5zM399.998 276c0 44.667 -2.66309 82.1689 -7.99609 112.502s-13.333 54.666 -24 72.999
s-24.334 31.333 -41.001 39s-36 11.5 -58 11.5s-41.167 -5.5 -57.5 -16.5s-30 -26.5 -41 -46.5s-19.167 -43.833 -24.5 -71.5s-8 -58.167 -8 -91.5c0 -40.667 3.16699 -75.167 9.5 -103.5s15.166 -51.5 26.499 -69.5s25.166 -31 41.499 -39s34.5 -12 54.5 -12
c19.333 0 37 3.33301 53 10s29.667 18.167 41 34.5s20.166 38.166 26.499 65.499s9.5 62 9.5 104z" />
    <glyph glyph-name="q" unicode="q" horiz-adv-x="524" 
d="M386 -179l-0.000976562 256.999c-4 -10 -10.5 -20.167 -19.5 -30.5s-20 -19.666 -33 -27.999s-27.667 -15.333 -44 -21s-34.166 -8.5 -53.499 -8.5c-25.333 0 -49.666 4.5 -72.999 13.5s-43.833 24.5 -61.5 46.5s-31.834 51.167 -42.501 87.5s-16 81.833 -16 136.5
c0 56 5 103.5 15 142.5s24 70.833 42 95.5s39.167 42.5 63.5 53.5s50.5 16.5 78.5 16.5c30.667 0 60.167 -7.66699 88.5 -23s47.833 -39 58.5 -71l34 86h41v-753h-78zM385.999 285.999c0 74 -11.834 130.166 -35.501 168.499s-54.167 57.5 -91.5 57.5
c-22.667 0 -42.5 -4.16699 -59.5 -12.5s-31.167 -21.666 -42.5 -39.999s-19.666 -42.5 -24.999 -72.5s-8 -67 -8 -111c0 -42 2.5 -76.833 7.5 -104.5s12.667 -49.834 23 -66.501s23.5 -28.5 39.5 -35.5s34.667 -10.5 56 -10.5c20 0 38.333 3.83301 55 11.5
s31 20.334 43 38.001s21.333 41 28 70s10 64.833 10 107.5z" />
    <glyph glyph-name="r" unicode="r" horiz-adv-x="411" 
d="M320 437c0 8.66699 -0.833984 17.5 -2.50098 26.5s-5 17 -10 24s-12.333 12.833 -22 17.5s-22.834 7 -39.501 7c-22.667 0 -43.834 -10.333 -63.501 -31s-34.167 -49.667 -43.5 -87v-395h-79v574h76v-77c4 10 10.5 20.167 19.5 30.5s19.833 20 32.5 29
s26.5 16.333 41.5 22s30.833 8.5 47.5 8.5c23.333 0 42.833 -3.5 58.5 -10.5s28.334 -16.333 38.001 -28s16.334 -25.167 20.001 -40.5s4.83398 -31.333 3.50098 -48z" />
    <glyph glyph-name="s" unicode="s" horiz-adv-x="455" 
d="M414 173c0 -60.667 -15 -106.668 -45 -138.001s-77.333 -47 -142 -47c-62.667 0 -108 12.167 -136 36.5s-42 57.5 -42 99.5c0 12.667 1.33301 25.167 4 37.5s5.66699 23.5 9 33.5l68 -8l-4.5 -23c-1.66699 -8.66699 -2.5 -16 -2.5 -22c0 -28 7.16699 -49.833 21.5 -65.5
s40.833 -23.5 79.5 -23.5c36.667 0 65.5 8.5 86.5 25.5s31.5 41.833 31.5 74.5c0 14 -2 25.667 -6 35s-10.667 17.833 -20 25.5s-21.333 14.834 -36 21.501s-33 14 -55 22l-62 23c-16.667 6 -31.667 13 -45 21s-24.833 17.667 -34.5 29s-17 24.5 -22 39.5
s-7.5 32.833 -7.5 53.5c0 52 14.333 93.167 43 123.5s69 45.5 121 45.5c28 0 53 -3.5 75 -10.5s40.333 -16.667 55 -29s25.834 -27 33.501 -44s11.5 -35.167 11.5 -54.5v-14.5c0 -4.33301 -0.666992 -8.5 -2 -12.5l-78 -10c0 5.33301 0.333008 11.166 1 17.499
s0.666992 12.833 0 19.5c-1.33301 19.333 -9.33301 36.333 -24 51s-37.334 22 -68.001 22c-32 0 -56.333 -8 -73 -24s-25 -37.667 -25 -65c0 -22.667 6.83301 -40.167 20.5 -52.5s35.5 -24.166 65.5 -35.499l68 -26c21.333 -8 40.5 -16.667 57.5 -26
s31.333 -19.833 43 -31.5s20.5 -25.167 26.5 -40.5s9 -33 9 -53z" />
    <glyph glyph-name="t" unicode="t" horiz-adv-x="314" 
d="M292 17c-10.667 -6 -23.8311 -11.5 -39.498 -16.5s-30.167 -7.5 -43.5 -7.5c-20.667 0 -38.667 2 -54 6s-27.833 11 -37.5 21s-16.834 23.833 -21.501 41.5s-7 40.167 -7 67.5v377h-78v68h80l-1 138h78l-1 -138h112v-68h-112v-365c0 -28 3.5 -48.5 10.5 -61.5
s24.5 -19.5 52.5 -19.5c11.333 0 22.166 1.83301 32.499 5.5l29.5 10.5v-59v0z" />
    <glyph glyph-name="u" unicode="u" horiz-adv-x="488" 
d="M350 0l-0.000976562 79c-11.333 -26 -29.5 -47.333 -54.5 -64s-53.5 -25 -85.5 -25c-20.667 0 -40.167 2.83301 -58.5 8.5s-34.5 15.834 -48.5 30.501s-25.167 34.167 -33.5 58.5s-12.5 55.166 -12.5 92.499v394h78v-373c0 -27.333 2 -50 6 -68s10.167 -32.333 18.5 -43
s18.833 -18.167 31.5 -22.5s28 -6.5 46 -6.5c18.667 0 35 5 49 15s25.833 23 35.5 39s16.834 34.333 21.501 55s7 41.667 7 63v341h78v-574h-78z" />
    <glyph glyph-name="v" unicode="v" horiz-adv-x="460" 
d="M282 0h-99l-168 574h83l137 -493l138 493h72z" />
    <glyph glyph-name="w" unicode="w" horiz-adv-x="679" 
d="M518 0h-77l-102 456l-103 -456h-79l-142 574h79l105 -462l106 462h76l103 -462l103 462h77z" />
    <glyph glyph-name="x" unicode="x" horiz-adv-x="466" 
d="M360 0l-127 232l-132 -232h-85l174 301l-156 273h89l110 -207l116 207h83l-154 -273l172 -301h-90z" />
    <glyph glyph-name="y" unicode="y" horiz-adv-x="451" 
d="M295 -5c-8 -34 -16.999 -62.168 -26.999 -84.501s-21.333 -40.333 -34 -54s-26.834 -23.167 -42.501 -28.5s-33.167 -8 -52.5 -8c-42 0 -73.5 8.33301 -94.5 25s-31.5 43.334 -31.5 80.001c0 7.33301 0.5 14 1.5 20l3.5 20h76c-1.33301 -5.33301 -2.33301 -11.5 -3 -18.5
s-1 -13.833 -1 -20.5c0 -12.667 4.16699 -23 12.5 -31s19.5 -12 33.5 -12c17.333 0 32 7 44 21s21.333 39.667 28 77l-197 593h80l155 -472l115 472h75z" />
    <glyph glyph-name="z" unicode="z" horiz-adv-x="449" 
d="M29 0v59l273 447h-248v68h346v-51l-276 -452h276v-71h-371z" />
    <glyph glyph-name="braceleft" unicode="{" horiz-adv-x="382" 
d="M257 -102c-21.333 0 -39.4971 2.16699 -54.4971 6.5s-27.333 11.5 -37 21.5s-16.667 23.5 -21 40.5s-6.5 38.5 -6.5 64.5v241c0 20 -3.33301 33.667 -10 41s-19.334 11 -38.001 11h-30v70h30c22 0 35.5 3.83301 40.5 11.5s7.5 23.5 7.5 47.5v179
c0 20.667 1.66699 39.334 5 56.001s9.5 31 18.5 43s21.167 21.167 36.5 27.5s35 9.5 59 9.5h67v-70h-70c-14.667 0 -24.834 -6 -30.501 -18s-8.5 -24 -8.5 -36v-202c0 -28 -4 -48.833 -12 -62.5s-24.667 -20.5 -50 -20.5c21.333 0 37 -7.83301 47 -23.5s15 -37.5 15 -65.5
v-254c0 -14.667 2.66699 -27.334 8 -38.001s15.666 -16 30.999 -16h70v-64h-67z" />
    <glyph glyph-name="bar" unicode="|" horiz-adv-x="243" 
d="M86 -200v1000h71v-1000h-71z" />
    <glyph glyph-name="braceright" unicode="}" horiz-adv-x="382" 
d="M275 324c-18.667 0 -31.3311 -3.66699 -37.998 -11s-10 -21 -10 -41v-241c0 -26 -2.16699 -47.5 -6.5 -64.5s-11.333 -30.5 -21 -40.5s-22 -17.167 -37 -21.5s-33.167 -6.5 -54.5 -6.5h-67v64h70c15.333 0 25.666 5.33301 30.999 16s8 23.334 8 38.001v254
c0 28 5 49.833 15 65.5s25.667 23.5 47 23.5c-25.333 0 -42 6.83301 -50 20.5s-12 34.5 -12 62.5v202c0 12 -2.83301 24 -8.5 36s-15.834 18 -30.501 18h-70v70h67c24 0 43.667 -3.16699 59 -9.5s27.5 -15.5 36.5 -27.5s15.167 -26.333 18.5 -43s5 -35.334 5 -56.001v-179
c0 -24 2.5 -39.833 7.5 -47.5s18.5 -11.5 40.5 -11.5h30v-70h-30z" />
    <glyph glyph-name="asciitilde" unicode="~" horiz-adv-x="525" 
d="M419 343c0 -31.333 -7.00293 -53.835 -21.0029 -67.502s-36 -20.5 -66 -20.5c-16.667 0 -31.167 4.16699 -43.5 12.5s-22.166 16.166 -29.499 23.499l-22 22c-7.33301 7.33301 -14.333 13 -21 17s-14 6 -22 6c-13.333 0 -22.5 -5 -27.5 -15s-7.5 -22 -7.5 -36
c0 -9.33301 1 -18.666 3 -27.999h-40c-6.66699 13.333 -10 33.666 -10 60.999c0 30 5.83301 53.333 17.5 70s32.167 25 61.5 25c20 0 36.333 -4.16699 49 -12.5s24.667 -17.166 36 -26.499l23 -21c7.33301 -6.66699 13.5 -11.5 18.5 -14.5s11.167 -4.5 18.5 -4.5
c12.667 0 21.834 4.83301 27.501 14.5s8.5 21.167 8.5 34.5c0 6 -0.166992 10.833 -0.5 14.5s-1.16602 7.16699 -2.49902 10.5h40c3.33301 -7.33301 5.83301 -15.666 7.5 -24.999s2.5 -22.666 2.5 -39.999z" />
    <glyph glyph-name="nonbreakingspace" unicode="&#xa0;" horiz-adv-x="120" 
 />
    <glyph glyph-name="exclamdown" unicode="&#xa1;" horiz-adv-x="179" 
d="M39 569v115h101v-115h-101zM40 -84l22 522h55l22 -522h-99z" />
    <glyph glyph-name="cent" unicode="&#xa2;" horiz-adv-x="482" 
d="M445 280c0 -18.667 -2.83008 -37.1689 -8.49707 -55.502s-14.834 -35 -27.501 -50s-29.167 -27.667 -49.5 -38s-44.833 -16.833 -73.5 -19.5v-59h-52v59c-62.667 4.66699 -110.167 28.334 -142.5 71.001s-48.5 108.334 -48.5 197.001c0 51.333 4 95 12 131s20 66 36 90
s35.833 42.167 59.5 54.5s51.5 19.833 83.5 22.5v55h52v-55c26.667 -2 49.5 -7.33301 68.5 -16s34.667 -20.167 47 -34.5s21.333 -31 27 -50s8.5 -39.167 8.5 -60.5c0 -9.33301 -0.333008 -17.333 -1 -24s-1.66699 -12 -3 -16l-73 -4c1.33301 4 2.16602 7.66699 2.49902 11
s0.5 8.66602 0.5 15.999c0 30.667 -6.16699 55.334 -18.5 74.001s-31.833 30.334 -58.5 35.001v-431c31.333 5.33301 53.166 18.666 65.499 39.999s18.5 50.666 18.5 87.999c0 9.33301 -1.66699 22.333 -5 39l73 -3c2 -9.33301 3.66699 -19.166 5 -29.499s2 -22.833 2 -37.5
zM234.003 614.998c-40 -5.33301 -68.5 -25 -85.5 -59s-25.5 -82.333 -25.5 -145c0 -42 2.16699 -77.167 6.5 -105.5s11 -51.333 20 -69s20.5 -30.667 34.5 -39s30.667 -13.5 50 -15.5v433z" />
    <glyph glyph-name="sterling" unicode="&#xa3;" horiz-adv-x="551" 
d="M531 162c0 -33.333 -2.83301 -61.1621 -8.5 -83.4951s-14 -40.166 -25 -53.499s-24.833 -22.833 -41.5 -28.5s-36.334 -8.5 -59.001 -8.5c-18.667 0 -35.167 1.83301 -49.5 5.5s-27.5 8.5 -39.5 14.5s-23 12.5 -33 19.5l-29 19.5c-17.333 -19.333 -38 -34 -62 -44
s-47 -15 -69 -15c-28 0 -49.667 8 -65 24s-23 38 -23 66c0 58 31 87 93 87c14.667 0 32.334 -3 53.001 -9s39.667 -15.333 57 -28c9.33301 17.333 16.166 36.166 20.499 56.499s6.5 39.5 6.5 57.5c0 17.333 -2 34.666 -6 51.999s-8.66699 32 -14 44h-127v69h88
c-9.33301 16.667 -17.833 38.667 -25.5 66s-11.5 56 -11.5 86c0 70.667 14 125.167 42 163.5s73 57.5 135 57.5c26.667 0 50.5 -3.66699 71.5 -11s38.667 -19.166 53 -35.499s25.166 -37.333 32.499 -63s11 -56.834 11 -93.501c0 -13.333 -0.5 -24 -1.5 -32
s-2.5 -17.333 -4.5 -28l-83 -9c2 11.333 3.5 23.666 4.5 36.999s1.5 25.666 1.5 36.999c0 51.333 -7.16699 86.833 -21.5 106.5s-36.166 29.5 -65.499 29.5s-53.166 -11.333 -71.499 -34s-27.5 -55 -27.5 -97c0 -32 3 -61.833 9 -89.5s17.667 -57.834 35 -90.501h139v-69
h-110c4.66699 -14 8.5 -28 11.5 -42s4.5 -29 4.5 -45c0 -26.667 -3.66699 -54 -11 -82s-17.666 -52.333 -30.999 -73c20 -12 38.5 -21 55.5 -27s34.833 -9 53.5 -9c25.333 0 43.166 8.5 53.499 25.5s15.5 43.833 15.5 80.5c0 12 -0.833008 24.167 -2.5 36.5
s-3.5 21.833 -5.5 28.5h68c2 -8 4 -18.333 6 -31s3 -25.334 3 -38.001zM195 80.0039c-9.33301 5.33301 -21.165 11.5 -35.498 18.5s-27.5 10.5 -39.5 10.5c-26 0 -39 -10.667 -39 -32s13.333 -32 40 -32c13.333 0 26.666 3.5 39.999 10.5s24.666 15.167 33.999 24.5z" />
    <glyph glyph-name="currency" unicode="&#xa4;" horiz-adv-x="558" 
d="M175 263c2 -32 5.66797 -60.665 11.001 -85.998s13.333 -46.833 24 -64.5s24.5 -31.334 41.5 -41.001s38.5 -14.5 64.5 -14.5s46.667 5.5 62 16.5s27 26.167 35 45.5s13.333 42.166 16 68.499s4.33398 54.5 5.00098 84.5l81 -7c-2 -91.333 -18.5 -160.333 -49.5 -207
s-81.833 -70 -152.5 -70c-39.333 0 -72.333 6.16699 -99 18.5s-48.5 30.333 -65.5 54s-29.833 52.5 -38.5 86.5s-14.667 72.667 -18 116h-65v69h62v30v23c0 8 0.333008 17 1 27h-63v69h68c10 105.333 33.667 181.5 71 228.5s89 70.5 155 70.5c41.333 0 75.333 -8 102 -24
s47.167 -36.667 61.5 -62s23.666 -54.166 27.999 -86.499s5.16602 -65.166 2.49902 -98.499h-82c3.33301 28 3.33301 54.167 0 78.5s-9.83301 45.666 -19.5 63.999s-22.5 32.666 -38.5 42.999s-35.667 15.5 -59 15.5c-44 0 -76.833 -19.333 -98.5 -58
s-35.5 -95.667 -41.5 -171h205v-69h-209v-39v-41h209v-69h-206v0z" />
    <glyph glyph-name="yen" unicode="&#xa5;" horiz-adv-x="576" 
d="M420 496h105v-70h-139l-42 -84h181v-70h-191v-272h-82v272h-196v70h186l-44 84h-142v70h106l-142 272h90l189 -367l176 367h81z" />
    <glyph glyph-name="brokenbar" unicode="&#xa6;" 
d="M554 334c0 -36.667 -6.83301 -71.167 -20.5 -103.5s-32.167 -60.666 -55.5 -84.999s-50.666 -43.5 -81.999 -57.5s-64.666 -21 -99.999 -21s-68.833 7 -100.5 21s-59.334 33.167 -83.001 57.5s-42.334 52.666 -56.001 84.999s-20.5 66.833 -20.5 103.5
s6.83301 71.167 20.5 103.5s32.334 60.666 56.001 84.999s51.334 43.5 83.001 57.5s65.167 21 100.5 21s68.666 -7 99.999 -21s58.666 -33.167 81.999 -57.5s41.833 -52.666 55.5 -84.999s20.5 -66.833 20.5 -103.5zM415 386l-67 169l-25 -100l-194 34l48 -150l-47 -177
l101 82l144 -131l6 159l143 72z" />
    <glyph glyph-name="section" unicode="&#xa7;" horiz-adv-x="464" 
d="M415 92c0 -60.667 -14.998 -106.662 -44.998 -137.995s-77.333 -47 -142 -47c-62.667 0 -108 12.167 -136 36.5s-42 57.5 -42 99.5c0 12.667 1.33301 25.167 4 37.5s5.66699 23.5 9 33.5l64 -8l-4.5 -23c-1.66699 -8.66699 -2.5 -16 -2.5 -22
c0 -28 7.5 -49.833 22.5 -65.5s42.5 -23.5 82.5 -23.5c38.667 0 68 7.83301 88 23.5s30 41.167 30 76.5c0 14 -2 25.833 -6 35.5s-10.5 18.5 -19.5 26.5s-20.833 15.5 -35.5 22.5s-33 14.5 -55 22.5l-62 23c-16.667 6 -31.834 12.667 -45.501 20s-25.334 16.5 -35.001 27.5
s-17 24 -22 39s-7.5 32.833 -7.5 53.5c0 38.667 6.33301 69 19 91s29.334 39.667 50.001 53c-8.66699 5.33301 -17.167 11.166 -25.5 17.499s-15.833 14.166 -22.5 23.499s-11.834 20.666 -15.501 33.999s-5.5 29.666 -5.5 48.999c0 52 14.333 93.167 43 123.5
s69 45.5 121 45.5c28 0 53 -3.5 75 -10.5s40.333 -16.667 55 -29s25.834 -27 33.501 -44s11.5 -35.167 11.5 -54.5v-14.5c0 -4.33301 -0.666992 -8.5 -2 -12.5l-75 -10c0.666992 5.33301 1.16699 11.166 1.5 17.499s0.166016 12.833 -0.500977 19.5
c-1.33301 19.333 -9.5 36.333 -24.5 51s-38.5 22 -70.5 22c-34 0 -58.833 -8 -74.5 -24s-23.5 -37.667 -23.5 -65c0 -22.667 6.66699 -40.667 20 -54s35 -25.666 65 -36.999l68 -26c41.333 -15.333 74.5 -34.833 99.5 -58.5s37.5 -55.834 37.5 -96.501c0 -22 -2 -41 -6 -57
s-9 -29.833 -15 -41.5s-12.833 -21.5 -20.5 -29.5s-15.167 -14.667 -22.5 -20c15.333 -9.33301 29.833 -22.5 43.5 -39.5s20.5 -41.5 20.5 -73.5zM343.002 338.005c0 24 -8.33105 43.833 -24.998 59.5s-35.334 27.5 -56.001 35.5l-90 34c-17.333 -12 -29.5 -26 -36.5 -42
s-10.5 -34.667 -10.5 -56c0 -25.333 5.16699 -45.5 15.5 -60.5s30.166 -28.167 59.499 -39.5l52.5 -20l53.5 -21c16.667 16.667 27 33.5 31 50.5s6 36.833 6 59.5z" />
    <glyph glyph-name="dieresis" unicode="&#xa8;" horiz-adv-x="540" 
d="M309 636v105h94v-105h-94zM137 636v105h94v-105h-94z" />
    <glyph glyph-name="copyright" unicode="&#xa9;" horiz-adv-x="779" 
d="M738 397c0 -48.667 -9.33398 -94.334 -28.001 -137.001s-44 -80 -76 -112s-69.333 -57.333 -112 -76s-88 -28 -136 -28c-48.667 0 -94.5 9.33301 -137.5 28s-80.5 44 -112.5 76s-57.333 69.333 -76 112s-28 88.334 -28 137.001s9.33301 94.5 28 137.5s44 80.667 76 113
s69.5 57.833 112.5 76.5s88.833 28 137.5 28s94.334 -9.33301 137.001 -28s80 -44.167 112 -76.5s57.167 -70 75.5 -113s27.5 -88.833 27.5 -137.5zM687.999 397c0 42 -8.00195 81.667 -24.002 119s-37.667 70 -65 98s-59.5 50.333 -96.5 67s-76.167 25 -117.5 25
c-42 0 -81.333 -8.33301 -118 -25s-68.667 -39 -96 -67s-49 -60.667 -65 -98s-24 -77 -24 -119c0 -42.667 7.83301 -82.667 23.5 -120s37.334 -69.833 65.001 -97.5s59.834 -49.5 96.501 -65.5s76 -24 118 -24c41.333 0 80.5 8 117.5 24s69.167 37.833 96.5 65.5
s49 60.167 65 97.5s24 77.333 24 120zM501.997 302c0 -14.667 -2 -28.8311 -6 -42.498s-10.667 -25.834 -20 -36.501s-21.666 -19.334 -36.999 -26.001s-34.333 -10 -57 -10c-20.667 0 -39.334 2.83301 -56.001 8.5s-30.667 15.5 -42 29.5s-20.166 32.833 -26.499 56.5
s-9.5 53.5 -9.5 89.5c0 42.667 2.33301 78.334 7 107.001s12.167 51.667 22.5 69s24.166 29.666 41.499 36.999s38.666 11 63.999 11c42 0 72 -9.33301 90 -28s27 -45.667 27 -81c0 -7.33301 -0.166992 -13.833 -0.5 -19.5s-1.16602 -11.5 -2.49902 -17.5l-65 -5
c1.33301 6.66699 2.5 12.834 3.5 18.501s1.5 12.167 1.5 19.5c0 17.333 -4.5 31.5 -13.5 42.5s-23.5 16.5 -43.5 16.5c-25.333 0 -42.5 -13 -51.5 -39s-13.5 -63.667 -13.5 -113c0 -28.667 1.5 -52.5 4.5 -71.5s7.33301 -34 13 -45s13 -18.833 22 -23.5s19.5 -7 31.5 -7
c16.667 0 29.167 6.66699 37.5 20s12.5 31.666 12.5 54.999c0 6.66699 -0.333008 13.167 -1 19.5s-1.66699 13.166 -3 20.499l64 2c2 -10 3.5 -19.167 4.5 -27.5s1.5 -18.166 1.5 -29.499z" />
    <glyph glyph-name="ordfeminine" unicode="&#xaa;" horiz-adv-x="320" 
d="M319 450c-6 -4 -13.833 -7.33301 -23.5 -10s-19.5 -4 -29.5 -4c-15.333 0 -27 3.66699 -35 11s-12.667 16.333 -14 27c-5.33301 -8 -15.166 -17 -29.499 -27s-33.166 -15 -56.499 -15c-22 0 -40 2.5 -54 7.5s-25 11.833 -33 20.5s-13.667 19.167 -17 31.5
s-5 25.833 -5 40.5c0 26.667 10.5 48.334 31.5 65.001s46.5 29.667 76.5 39c12 4 21.667 7 29 9s13.666 4 18.999 6s10.666 3.83301 15.999 5.5l21 6.5c0 13.333 -0.666992 24.166 -2 32.499s-4.33301 15.166 -9 20.499s-11 9 -19 11s-18.667 3 -32 3
c-17.333 0 -29.833 -3.16699 -37.5 -9.5s-11.5 -16.166 -11.5 -29.499c0 -5.33301 0.333008 -10 1 -14s1.66699 -8 3 -12l-69 -3l-3.5 16c-1 4.66699 -1.5 11 -1.5 19c0 25.333 10.5 45.5 31.5 60.5s50.833 22.5 89.5 22.5c40.667 0 72 -7.83301 94 -23.5
s33 -45.167 33 -88.5v-153c0 -9.33301 1 -16.333 3 -21s10 -7 24 -7h10v-37v0zM1 321v51h319v-51h-319zM215 612c-3.33301 -1.33301 -10 -3.50098 -20 -6.50098s-19.667 -6.16699 -29 -9.5c-30 -9.33301 -50.167 -19.5 -60.5 -30.5s-15.5 -24.167 -15.5 -39.5
s4.33301 -26.166 13 -32.499s21 -9.5 37 -9.5c20 0 37.5 6.5 52.5 19.5s22.5 28.5 22.5 46.5v62z" />
    <glyph glyph-name="guillemotleft" unicode="&#xab;" horiz-adv-x="631" 
d="M311 229v95l254 191v-98l-181 -141l181 -142v-98zM55 229v95l252 191v-98l-178 -141l178 -142v-98z" />
    <glyph glyph-name="logicalnot" unicode="&#xac;" 
d="M554 334c0 -36.667 -6.83301 -71.167 -20.5 -103.5s-32.167 -60.666 -55.5 -84.999s-50.666 -43.5 -81.999 -57.5s-64.666 -21 -99.999 -21s-68.833 7 -100.5 21s-59.334 33.167 -83.001 57.5s-42.334 52.666 -56.001 84.999s-20.5 66.833 -20.5 103.5
s6.83301 71.167 20.5 103.5s32.334 60.666 56.001 84.999s51.334 43.5 83.001 57.5s65.167 21 100.5 21s68.666 -7 99.999 -21s58.666 -33.167 81.999 -57.5s41.833 -52.666 55.5 -84.999s20.5 -66.833 20.5 -103.5zM415 386l-67 169l-25 -100l-194 34l48 -150l-47 -177
l101 82l144 -131l6 159l143 72z" />
    <glyph glyph-name="registered" unicode="&#xae;" horiz-adv-x="779" 
d="M738 397c0 -48.667 -9.33398 -94.334 -28.001 -137.001s-44 -80 -76 -112s-69.333 -57.333 -112 -76s-88 -28 -136 -28c-48.667 0 -94.5 9.33301 -137.5 28s-80.5 44 -112.5 76s-57.333 69.333 -76 112s-28 88.334 -28 137.001s9.33301 94.5 28 137.5s44 80.667 76 113
s69.5 57.833 112.5 76.5s88.833 28 137.5 28s94.334 -9.33301 137.001 -28s80 -44.167 112 -76.5s57.167 -70 75.5 -113s27.5 -88.833 27.5 -137.5zM687.999 397c0 42 -8.00195 81.667 -24.002 119s-37.667 70 -65 98s-59.5 50.333 -96.5 67s-76.167 25 -117.5 25
c-42 0 -81.333 -8.33301 -118 -25s-68.667 -39 -96 -67s-49 -60.667 -65 -98s-24 -77 -24 -119c0 -42.667 7.83301 -82.667 23.5 -120s37.334 -69.833 65.001 -97.5s59.834 -49.5 96.501 -65.5s76 -24 118 -24c41.333 0 80.5 8 117.5 24s69.167 37.833 96.5 65.5
s49 60.167 65 97.5s24 77.333 24 120zM451.997 188c-1.33301 5.33301 -3.16309 11.666 -5.49609 18.999s-3.5 17.333 -3.5 30v69c0 14 -5.33301 24.5 -16 31.5s-21.667 10.5 -33 10.5h-65v-160h-66v407h138c36 0 64 -9.33301 84 -28s30 -51.667 30 -99
c0 -24.667 -5.33301 -45.5 -16 -62.5s-30.334 -27.167 -59.001 -30.5c18.667 -2 32.667 -6.5 42 -13.5s16.166 -16.5 20.499 -28.5s6.66602 -26.333 6.99902 -43s0.833008 -35.667 1.5 -57c0 -8 0.666992 -16.167 2 -24.5s2.66602 -15.166 3.99902 -20.499h-65zM448 467
c0 27.333 -4.33301 46.833 -13 58.5s-22 17.5 -40 17.5h-66v-144h67c18.667 0 32 6 40 18s12 28.667 12 50z" />
    <glyph glyph-name="macron" unicode="&#xaf;" horiz-adv-x="540" 
d="M141 635v69h258v-69h-258z" />
    <glyph glyph-name="degree" unicode="&#xb0;" horiz-adv-x="400" 
d="M348 632c0 -20.667 -3.83301 -40 -11.5 -58s-18.167 -33.667 -31.5 -47s-29 -23.833 -47 -31.5s-37.333 -11.5 -58 -11.5s-40 3.83301 -58 11.5s-33.667 18.167 -47 31.5s-23.833 29 -31.5 47s-11.5 37.333 -11.5 58s3.83301 40 11.5 58s18.167 33.667 31.5 47
s29 23.833 47 31.5s37.333 11.5 58 11.5s40 -3.83301 58 -11.5s33.667 -18.167 47 -31.5s23.833 -29 31.5 -47s11.5 -37.333 11.5 -58zM289 632c0 25.333 -8.66699 46.666 -26 63.999s-38.666 26 -63.999 26s-46.666 -8.66699 -63.999 -26s-26 -38.666 -26 -63.999
s8.66699 -46.666 26 -63.999s38.666 -26 63.999 -26s46.666 8.66699 63.999 26s26 38.666 26 63.999z" />
    <glyph glyph-name="plusminus" unicode="&#xb1;" horiz-adv-x="746" 
d="M608 0v686c-6.66699 7.33301 -17.167 15.166 -31.5 23.499s-31.166 12.5 -50.499 12.5c-36 0 -61.333 -6.66699 -76 -20s-22 -34 -22 -62v-66h109v-68h-109v-506h-78v506h-180v-506h-78v506h-85v68h85v46c0 49.333 13.5 88.333 40.5 117s70.167 43 129.5 43
c30 0 55.5 -5.16699 76.5 -15.5s37.167 -20.166 48.5 -29.499c14.667 14 32.5 25 53.5 33s47.5 12 79.5 12c18 0 35.167 -2 51.5 -6s30.166 -9.66699 41.499 -17h73v-757h-78zM357 680c-6.66699 8 -18 17 -34 27s-34.333 15 -55 15c-36 0 -61.333 -6.66699 -76 -20
s-22 -34 -22 -62v-66h180v46c0 11.333 0.666992 21.833 2 31.5s3 19.167 5 28.5z" />
    <glyph glyph-name="twosuperior" unicode="&#xb2;" 
d="M554 334c0 -36.667 -6.83301 -71.167 -20.5 -103.5s-32.167 -60.666 -55.5 -84.999s-50.666 -43.5 -81.999 -57.5s-64.666 -21 -99.999 -21s-68.833 7 -100.5 21s-59.334 33.167 -83.001 57.5s-42.334 52.666 -56.001 84.999s-20.5 66.833 -20.5 103.5
s6.83301 71.167 20.5 103.5s32.334 60.666 56.001 84.999s51.334 43.5 83.001 57.5s65.167 21 100.5 21s68.666 -7 99.999 -21s58.666 -33.167 81.999 -57.5s41.833 -52.666 55.5 -84.999s20.5 -66.833 20.5 -103.5zM415 386l-67 169l-25 -100l-194 34l48 -150l-47 -177
l101 82l144 -131l6 159l143 72z" />
    <glyph glyph-name="threesuperior" unicode="&#xb3;" 
d="M554 334c0 -36.667 -6.83301 -71.167 -20.5 -103.5s-32.167 -60.666 -55.5 -84.999s-50.666 -43.5 -81.999 -57.5s-64.666 -21 -99.999 -21s-68.833 7 -100.5 21s-59.334 33.167 -83.001 57.5s-42.334 52.666 -56.001 84.999s-20.5 66.833 -20.5 103.5
s6.83301 71.167 20.5 103.5s32.334 60.666 56.001 84.999s51.334 43.5 83.001 57.5s65.167 21 100.5 21s68.666 -7 99.999 -21s58.666 -33.167 81.999 -57.5s41.833 -52.666 55.5 -84.999s20.5 -66.833 20.5 -103.5zM415 386l-67 169l-25 -100l-194 34l48 -150l-47 -177
l101 82l144 -131l6 159l143 72z" />
    <glyph glyph-name="acute" unicode="&#xb4;" horiz-adv-x="540" 
d="M222 635h-56l79 130h114v-11z" />
    <glyph glyph-name="mu" unicode="&#xb5;" 
d="M554 334c0 -36.667 -6.83301 -71.167 -20.5 -103.5s-32.167 -60.666 -55.5 -84.999s-50.666 -43.5 -81.999 -57.5s-64.666 -21 -99.999 -21s-68.833 7 -100.5 21s-59.334 33.167 -83.001 57.5s-42.334 52.666 -56.001 84.999s-20.5 66.833 -20.5 103.5
s6.83301 71.167 20.5 103.5s32.334 60.666 56.001 84.999s51.334 43.5 83.001 57.5s65.167 21 100.5 21s68.666 -7 99.999 -21s58.666 -33.167 81.999 -57.5s41.833 -52.666 55.5 -84.999s20.5 -66.833 20.5 -103.5zM415 386l-67 169l-25 -100l-194 34l48 -150l-47 -177
l101 82l144 -131l6 159l143 72z" />
    <glyph glyph-name="paragraph" unicode="&#xb6;" horiz-adv-x="583" 
d="M417 -47l0.00195312 758.999h-55v-759h-71v321h-73c-20 0 -40.667 3.5 -62 10.5s-40.833 19.5 -58.5 37.5s-32.167 42.333 -43.5 73s-17 69.667 -17 117c0 50 5.66699 91.333 17 124s26.166 58.834 44.499 78.501s38.666 33.5 60.999 41.5s44.5 12 66.5 12h262v-815h-71z
M291.002 711.999h-36c-10 0 -18.833 -2.66699 -26.5 -8s-14 -15.5 -19 -30.5s-8.83301 -35.333 -11.5 -61s-4 -59.167 -4 -100.5c0 -33.333 1.16699 -61.5 3.5 -84.5s5.83301 -41.5 10.5 -55.5s10.667 -24 18 -30s16.333 -9 27 -9h38v379z" />
    <glyph glyph-name="periodcentered" unicode="&#xb7;" horiz-adv-x="288" 
d="M88 321v126h119v-126h-119z" />
    <glyph glyph-name="cedilla" unicode="&#xb8;" horiz-adv-x="540" 
d="M397 -108c0 -28 -10.833 -50.3311 -32.5 -66.998s-53.5 -25 -95.5 -25c-33.333 0 -61.666 3.66699 -84.999 11s-41.333 15.666 -54 24.999l31 43c12 -8.66699 26.5 -15.5 43.5 -20.5s39.833 -7.5 68.5 -7.5c19.333 0 32.833 4.66699 40.5 14s11.5 18.666 11.5 27.999
c0 14.667 -4.33301 25.5 -13 32.5s-20.334 10.5 -35.001 10.5c-12.667 0 -27.667 -3 -45 -9l16 45l16 2l14.5 2c5 0.666992 9.16699 1 12.5 1c37.333 0 64.333 -7.83301 81 -23.5s25 -36.167 25 -61.5z" />
    <glyph glyph-name="onesuperior" unicode="&#xb9;" 
d="M554 334c0 -36.667 -6.83301 -71.167 -20.5 -103.5s-32.167 -60.666 -55.5 -84.999s-50.666 -43.5 -81.999 -57.5s-64.666 -21 -99.999 -21s-68.833 7 -100.5 21s-59.334 33.167 -83.001 57.5s-42.334 52.666 -56.001 84.999s-20.5 66.833 -20.5 103.5
s6.83301 71.167 20.5 103.5s32.334 60.666 56.001 84.999s51.334 43.5 83.001 57.5s65.167 21 100.5 21s68.666 -7 99.999 -21s58.666 -33.167 81.999 -57.5s41.833 -52.666 55.5 -84.999s20.5 -66.833 20.5 -103.5zM415 386l-67 169l-25 -100l-194 34l48 -150l-47 -177
l101 82l144 -131l6 159l143 72z" />
    <glyph glyph-name="ordmasculine" unicode="&#xba;" horiz-adv-x="343" 
d="M317 603c0 -23.333 -2.66699 -45.666 -8 -66.999s-13.666 -40.333 -24.999 -57s-26.333 -29.834 -45 -39.501s-41.334 -14.5 -68.001 -14.5s-49.334 4.83301 -68.001 14.5s-33.667 22.834 -45 39.501s-19.666 35.667 -24.999 57s-8 43.666 -8 66.999s2.66699 45.5 8 66.5
s13.833 39.833 25.5 56.5s26.667 29.834 45 39.501s40.833 14.5 67.5 14.5s49.167 -4.83301 67.5 -14.5s33.333 -22.834 45 -39.501s20.167 -35.5 25.5 -56.5s8 -43.167 8 -66.5zM14 321v51h315v-51h-315zM247 602c0 20 -1 37.501 -3 52.501s-5.83301 27.667 -11.5 38
s-13.5 18.166 -23.5 23.499s-22.667 8 -38 8c-30 0 -50.167 -10.167 -60.5 -30.5s-15.5 -50.833 -15.5 -91.5c0 -42 5.5 -72.667 16.5 -92s30.833 -29 59.5 -29s48.5 9.16699 59.5 27.5s16.5 49.5 16.5 93.5z" />
    <glyph glyph-name="guillemotright" unicode="&#xbb;" horiz-adv-x="631" 
d="M325 36v98l178 142l-178 141v98l252 -191v-95zM67 36v98l181 142l-181 141v98l254 -191v-95z" />
    <glyph glyph-name="onequarter" unicode="&#xbc;" 
d="M554 334c0 -36.667 -6.83301 -71.167 -20.5 -103.5s-32.167 -60.666 -55.5 -84.999s-50.666 -43.5 -81.999 -57.5s-64.666 -21 -99.999 -21s-68.833 7 -100.5 21s-59.334 33.167 -83.001 57.5s-42.334 52.666 -56.001 84.999s-20.5 66.833 -20.5 103.5
s6.83301 71.167 20.5 103.5s32.334 60.666 56.001 84.999s51.334 43.5 83.001 57.5s65.167 21 100.5 21s68.666 -7 99.999 -21s58.666 -33.167 81.999 -57.5s41.833 -52.666 55.5 -84.999s20.5 -66.833 20.5 -103.5zM415 386l-67 169l-25 -100l-194 34l48 -150l-47 -177
l101 82l144 -131l6 159l143 72z" />
    <glyph glyph-name="onehalf" unicode="&#xbd;" 
d="M554 334c0 -36.667 -6.83301 -71.167 -20.5 -103.5s-32.167 -60.666 -55.5 -84.999s-50.666 -43.5 -81.999 -57.5s-64.666 -21 -99.999 -21s-68.833 7 -100.5 21s-59.334 33.167 -83.001 57.5s-42.334 52.666 -56.001 84.999s-20.5 66.833 -20.5 103.5
s6.83301 71.167 20.5 103.5s32.334 60.666 56.001 84.999s51.334 43.5 83.001 57.5s65.167 21 100.5 21s68.666 -7 99.999 -21s58.666 -33.167 81.999 -57.5s41.833 -52.666 55.5 -84.999s20.5 -66.833 20.5 -103.5zM415 386l-67 169l-25 -100l-194 34l48 -150l-47 -177
l101 82l144 -131l6 159l143 72z" />
    <glyph glyph-name="threequarters" unicode="&#xbe;" 
d="M554 334c0 -36.667 -6.83301 -71.167 -20.5 -103.5s-32.167 -60.666 -55.5 -84.999s-50.666 -43.5 -81.999 -57.5s-64.666 -21 -99.999 -21s-68.833 7 -100.5 21s-59.334 33.167 -83.001 57.5s-42.334 52.666 -56.001 84.999s-20.5 66.833 -20.5 103.5
s6.83301 71.167 20.5 103.5s32.334 60.666 56.001 84.999s51.334 43.5 83.001 57.5s65.167 21 100.5 21s68.666 -7 99.999 -21s58.666 -33.167 81.999 -57.5s41.833 -52.666 55.5 -84.999s20.5 -66.833 20.5 -103.5zM415 386l-67 169l-25 -100l-194 34l48 -150l-47 -177
l101 82l144 -131l6 159l143 72z" />
    <glyph glyph-name="questiondown" unicode="&#xbf;" horiz-adv-x="462" 
d="M290 569v115h103v-115h-103zM420 60c0 -20.667 -3.16699 -40.333 -9.5 -59s-16.333 -35.167 -30 -49.5s-31.5 -25.833 -53.5 -34.5s-48.667 -13 -80 -13c-62 0 -110 20.167 -144 60.5s-51 97.5 -51 171.5c0 50 4 91.5 12 124.5s19 59 33 78s30.667 32.333 50 40
s40.666 11.5 63.999 11.5c26 0 48.667 -5 68 -15s32.666 -24.667 39.999 -44l-2 27c-0.666992 7.33301 -1.33398 15.333 -2.00098 24s-1 16.667 -1 24v63h64v-264h-55c-0.666992 15.333 -2.83398 30.333 -6.50098 45s-9.16699 27.667 -16.5 39s-16.666 20.5 -27.999 27.5
s-25.666 10.5 -42.999 10.5c-18 0 -32.833 -3.33301 -44.5 -10s-21 -17.334 -28 -32.001s-12 -33.834 -15 -57.501s-4.5 -52.5 -4.5 -86.5c0 -48.667 9 -88.5 27 -119.5s46.333 -46.5 85 -46.5c20 0 36.333 2.33301 49 7s22.834 11.334 30.501 20.001
s12.834 19.334 15.501 32.001s4 26.667 4 42c0 12 -1 21.667 -3 29s-4.33301 14.333 -7 21h72c3.33301 -8.66699 5.83301 -18.167 7.5 -28.5s2.5 -22.833 2.5 -37.5z" />
    <glyph glyph-name="Agrave" unicode="&#xc0;" horiz-adv-x="602" 
d="M283 791l-137 102v9h114l79 -111h-56zM494 0l-54 188h-291l-50 -188h-79l214 768h123l225 -768h-88zM294 705l-128 -450h258z" />
    <glyph glyph-name="Aacute" unicode="&#xc1;" horiz-adv-x="602" 
d="M292 791h-56l79 111h114v-9zM494 0l-54 188h-291l-50 -188h-79l214 768h123l225 -768h-88zM294 705l-128 -450h258z" />
    <glyph glyph-name="Acircumflex" unicode="&#xc2;" horiz-adv-x="602" 
d="M370 791l-76 51l-76 -51h-49l89 108h72l89 -108h-49zM494 0l-54 188h-291l-50 -188h-79l214 768h123l225 -768h-88zM294 705l-128 -450h258z" />
    <glyph glyph-name="Atilde" unicode="&#xc3;" horiz-adv-x="602" 
d="M494 0l-54 188h-291l-50 -188h-79l214 768h123l225 -768h-88zM294 705l-128 -450h258zM437 862c0 -24.667 -6.66797 -42.5 -20.001 -53.5s-34 -16.5 -62 -16.5c-16 0 -30 3.5 -42 10.5s-21.333 13.167 -28 18.5l-21 17c-6.66699 5.33301 -13.167 9.83301 -19.5 13.5
s-13.166 5.5 -20.499 5.5c-8.66699 0 -15.334 -2 -20.001 -6s-8 -9.16699 -10 -15.5s-3 -13.166 -3 -20.499s1 -14.333 3 -21h-39c-6 11.333 -9 27.333 -9 48c0 24 5.5 42.667 16.5 56s30.5 20 58.5 20c19.333 0 35 -3.33301 47 -10s23 -13.667 33 -21l22 -17
c6 -4.66699 11.5 -8.33398 16.5 -11.001s11.167 -4 18.5 -4c16 0 26.167 6.33301 30.5 19s4.83301 26 1.5 40h38c2.66699 -5.33301 4.83398 -11.833 6.50098 -19.5s2.5 -18.5 2.5 -32.5z" />
    <glyph glyph-name="Adieresis" unicode="&#xc4;" horiz-adv-x="602" 
d="M334 792v89h94v-89h-94zM162 792v89h94v-89h-94zM494 0l-54 188h-291l-50 -188h-79l214 768h123l225 -768h-88zM294 705l-128 -450h258z" />
    <glyph glyph-name="Aring" unicode="&#xc5;" horiz-adv-x="602" 
d="M473 0l-54.001 188h-291l-50 -188h-79l213 759c-10.667 9.33301 -19.167 20 -25.5 32s-9.5 25.333 -9.5 40c0 26.667 9.33301 49.167 28 67.5s41.334 27.5 68.001 27.5c13.333 0 26 -2.5 38 -7.5s22.5 -11.667 31.5 -20s16 -18.333 21 -30s7.5 -24.167 7.5 -37.5
c0 -14 -3.16699 -27 -9.5 -39s-14.5 -22.667 -24.5 -32l224 -760h-88zM319.999 831c0 12 -4.66699 22.5 -14 31.5s-20.333 13.5 -33 13.5c-11.333 0 -21.833 -4.5 -31.5 -13.5s-14.5 -19.5 -14.5 -31.5s4.83301 -22.5 14.5 -31.5s20.167 -13.5 31.5 -13.5
c12.667 0 23.667 4.5 33 13.5s14 19.5 14 31.5zM272.999 705l-128 -450h258z" />
    <glyph glyph-name="AE" unicode="&#xc6;" horiz-adv-x="840" 
d="M384 0v188h-235l-82 -188h-88l352 768h455v-69h-320v-270h293v-69h-293v-291h343v-69h-425zM384 705l-205 -450h205v450z" />
    <glyph glyph-name="Ccedilla" unicode="&#xc7;" horiz-adv-x="622" 
d="M564 265c-0.666992 -45.333 -5.50293 -85.1699 -14.5029 -119.503s-22.667 -63.166 -41 -86.499s-42 -41 -71 -53s-64.5 -18 -106.5 -18c-46 0 -86.667 6.83301 -122 20.5s-65.166 35.667 -89.499 66s-42.833 69.833 -55.5 118.5s-19 107.667 -19 177
c0 74.667 6.33301 138 19 190s31 94.333 55 127s53.333 56.334 88 71.001s74 22 118 22c52 0 94.167 -8 126.5 -24s57.333 -36.667 75 -62s29 -54.166 34 -86.499s6.16699 -65.166 3.5 -98.499h-86c3.33301 28 2.5 54.333 -2.5 79s-13.667 46.167 -26 64.5
s-28.666 32.833 -48.999 43.5s-44.166 16 -71.499 16c-33.333 0 -62.333 -6.5 -87 -19.5s-45.167 -33 -61.5 -60s-28.5 -61.5 -36.5 -103.5s-12 -92.333 -12 -151c0 -106 15.167 -185.833 45.5 -239.5s81.833 -80.5 154.5 -80.5c34 0 60.5 5.5 79.5 16.5
s33.333 26.167 43 45.5s16 42.166 19 68.499s4.83301 54.5 5.5 84.5l85 -8v0zM436.997 -108.004c0 -28 -10.833 -50.3311 -32.5 -66.998s-53.5 -25 -95.5 -25c-33.333 0 -61.666 3.66699 -84.999 11s-41.333 15.666 -54 24.999l31 43c12 -8.66699 26.5 -15.5 43.5 -20.5
s39.833 -7.5 68.5 -7.5c19.333 0 32.833 4.66699 40.5 14s11.5 18.666 11.5 27.999c0 14.667 -4.33301 25.5 -13 32.5s-20.334 10.5 -35.001 10.5c-12.667 0 -27.667 -3 -45 -9l16 45l16 2l14.5 2c5 0.666992 9.16699 1 12.5 1c37.333 0 64.333 -7.83301 81 -23.5
s25 -36.167 25 -61.5z" />
    <glyph glyph-name="Egrave" unicode="&#xc8;" horiz-adv-x="518" 
d="M285 791l-137 102v9h114l79 -111h-56zM62 0v768h402v-69h-320v-270h293v-69h-293v-291h343v-69h-425z" />
    <glyph glyph-name="Eacute" unicode="&#xc9;" horiz-adv-x="518" 
d="M292 791h-56l79 111h114v-9zM62 0v768h402v-69h-320v-270h293v-69h-293v-291h343v-69h-425z" />
    <glyph glyph-name="Ecircumflex" unicode="&#xca;" horiz-adv-x="518" 
d="M339 791l-76 51l-76 -51h-49l89 108h72l89 -108h-49zM62 0v768h402v-69h-320v-270h293v-69h-293v-291h343v-69h-425z" />
    <glyph glyph-name="Edieresis" unicode="&#xcb;" horiz-adv-x="518" 
d="M313 792v89h94v-89h-94zM141 792v89h94v-89h-94zM62 0v768h402v-69h-320v-270h293v-69h-293v-291h343v-69h-425z" />
    <glyph glyph-name="Igrave" unicode="&#xcc;" horiz-adv-x="207" 
d="M88 791l-137 102v9h114l79 -111h-56zM62 0v768h83v-768h-83z" />
    <glyph glyph-name="Iacute" unicode="&#xcd;" horiz-adv-x="207" 
d="M136 791h-56l79 111h114v-9zM62 0v768h83v-768h-83z" />
    <glyph glyph-name="Icircumflex" unicode="&#xce;" horiz-adv-x="207" 
d="M183 791l-76 51l-76 -51h-49l89 108h72l89 -108h-49zM62 0v768h83v-768h-83z" />
    <glyph glyph-name="Idieresis" unicode="&#xcf;" horiz-adv-x="207" 
d="M143 791v89h94v-89h-94zM-29 791v89h94v-89h-94zM62 0v768h83v-768h-83z" />
    <glyph glyph-name="Eth" unicode="&#xd0;" horiz-adv-x="638" 
d="M592 370c0 -66 -5.83301 -122.498 -17.5 -169.498s-30.667 -85.333 -57 -115s-60.833 -51.334 -103.5 -65.001s-95 -20.5 -157 -20.5h-185v341h-62v79h62v348h222c42.667 0 82.167 -7.83301 118.5 -23.5s67.833 -39.834 94.5 -72.501s47.5 -74 62.5 -124
s22.5 -109.333 22.5 -178zM510 370.002c0 108.667 -19.334 190.167 -58.001 244.5s-99.667 81.5 -183 81.5h-115v-276h145v-79h-145v-269h98c44.667 0 83.334 4.66699 116.001 14s59.5 25.333 80.5 48s36.5 53.167 46.5 91.5s15 86.5 15 144.5z" />
    <glyph glyph-name="Ntilde" unicode="&#xd1;" horiz-adv-x="612" 
d="M445 0l-309 646v-646h-74v768h105l309 -646v646h74v-768h-105zM457 862c0 -24.667 -6.66797 -42.5 -20.001 -53.5s-34 -16.5 -62 -16.5c-16 0 -30 3.5 -42 10.5s-21.333 13.167 -28 18.5l-21 17c-6.66699 5.33301 -13.167 9.83301 -19.5 13.5s-13.166 5.5 -20.499 5.5
c-8.66699 0 -15.334 -2 -20.001 -6s-8 -9.16699 -10 -15.5s-3 -13.166 -3 -20.499s1 -14.333 3 -21h-39c-6 11.333 -9 27.333 -9 48c0 24 5.5 42.667 16.5 56s30.5 20 58.5 20c19.333 0 35 -3.33301 47 -10s23 -13.667 33 -21l22 -17c6 -4.66699 11.5 -8.33398 16.5 -11.001
s11.167 -4 18.5 -4c16 0 26.167 6.33301 30.5 19s4.83301 26 1.5 40h38c2.66699 -5.33301 4.83398 -11.833 6.50098 -19.5s2.5 -18.5 2.5 -32.5z" />
    <glyph glyph-name="Ograve" unicode="&#xd2;" horiz-adv-x="654" 
d="M317 795l-137 102v9h114l79 -111h-56zM609 384c0 -135.333 -21.999 -235.169 -65.999 -299.502s-116 -96.5 -216 -96.5c-48.667 0 -90.667 7.5 -126 22.5s-64.5 38.5 -87.5 70.5s-40.167 73 -51.5 123s-17 110 -17 180c0 136.667 24.667 236.834 74 300.501
s118.666 95.5 207.999 95.5c90 0 159.5 -32.167 208.5 -96.5s73.5 -164.166 73.5 -299.499zM525.001 383.997c0 112 -16.6699 194.668 -50.0029 248.001s-82.666 80 -147.999 80c-63.333 0 -112.166 -26.333 -146.499 -79s-51.5 -135.667 -51.5 -249
c0 -58.667 3.83301 -108.834 11.5 -150.501s19.5 -75.667 35.5 -102s36.5 -45.5 61.5 -57.5s54.833 -18 89.5 -18c37.333 0 68.5 6.5 93.5 19.5s45.333 33 61 60s26.834 61.167 33.501 102.5s10 90 10 146z" />
    <glyph glyph-name="Oacute" unicode="&#xd3;" horiz-adv-x="654" 
d="M329 797h-56l79 111h114v-9zM609 384c0 -135.333 -21.999 -235.169 -65.999 -299.502s-116 -96.5 -216 -96.5c-48.667 0 -90.667 7.5 -126 22.5s-64.5 38.5 -87.5 70.5s-40.167 73 -51.5 123s-17 110 -17 180c0 136.667 24.667 236.834 74 300.501
s118.666 95.5 207.999 95.5c90 0 159.5 -32.167 208.5 -96.5s73.5 -164.166 73.5 -299.499zM525.001 383.997c0 112 -16.6699 194.668 -50.0029 248.001s-82.666 80 -147.999 80c-63.333 0 -112.166 -26.333 -146.499 -79s-51.5 -135.667 -51.5 -249
c0 -58.667 3.83301 -108.834 11.5 -150.501s19.5 -75.667 35.5 -102s36.5 -45.5 61.5 -57.5s54.833 -18 89.5 -18c37.333 0 68.5 6.5 93.5 19.5s45.333 33 61 60s26.834 61.167 33.501 102.5s10 90 10 146z" />
    <glyph glyph-name="Ocircumflex" unicode="&#xd4;" horiz-adv-x="654" 
d="M402 791l-76 51l-76 -51h-49l89 108h72l89 -108h-49zM609 384c0 -135.333 -21.999 -235.169 -65.999 -299.502s-116 -96.5 -216 -96.5c-48.667 0 -90.667 7.5 -126 22.5s-64.5 38.5 -87.5 70.5s-40.167 73 -51.5 123s-17 110 -17 180
c0 136.667 24.667 236.834 74 300.501s118.666 95.5 207.999 95.5c90 0 159.5 -32.167 208.5 -96.5s73.5 -164.166 73.5 -299.499zM525.001 383.997c0 112 -16.6699 194.668 -50.0029 248.001s-82.666 80 -147.999 80c-63.333 0 -112.166 -26.333 -146.499 -79
s-51.5 -135.667 -51.5 -249c0 -58.667 3.83301 -108.834 11.5 -150.501s19.5 -75.667 35.5 -102s36.5 -45.5 61.5 -57.5s54.833 -18 89.5 -18c37.333 0 68.5 6.5 93.5 19.5s45.333 33 61 60s26.834 61.167 33.501 102.5s10 90 10 146z" />
    <glyph glyph-name="Otilde" unicode="&#xd5;" horiz-adv-x="654" 
d="M609 384c0 -135.333 -21.999 -235.169 -65.999 -299.502s-116 -96.5 -216 -96.5c-48.667 0 -90.667 7.5 -126 22.5s-64.5 38.5 -87.5 70.5s-40.167 73 -51.5 123s-17 110 -17 180c0 136.667 24.667 236.834 74 300.501s118.666 95.5 207.999 95.5
c90 0 159.5 -32.167 208.5 -96.5s73.5 -164.166 73.5 -299.499zM525.001 383.997c0 112 -16.6699 194.668 -50.0029 248.001s-82.666 80 -147.999 80c-63.333 0 -112.166 -26.333 -146.499 -79s-51.5 -135.667 -51.5 -249c0 -58.667 3.83301 -108.834 11.5 -150.501
s19.5 -75.667 35.5 -102s36.5 -45.5 61.5 -57.5s54.833 -18 89.5 -18c37.333 0 68.5 6.5 93.5 19.5s45.333 33 61 60s26.834 61.167 33.501 102.5s10 90 10 146zM477.998 861.998c0 -24.667 -6.66797 -42.5 -20.001 -53.5s-34 -16.5 -62 -16.5c-16 0 -30 3.5 -42 10.5
s-21.333 13.167 -28 18.5l-21 17c-6.66699 5.33301 -13.167 9.83301 -19.5 13.5s-13.166 5.5 -20.499 5.5c-8.66699 0 -15.334 -2 -20.001 -6s-8 -9.16699 -10 -15.5s-3 -13.166 -3 -20.499s1 -14.333 3 -21h-39c-6 11.333 -9 27.333 -9 48c0 24 5.5 42.667 16.5 56
s30.5 20 58.5 20c19.333 0 35 -3.33301 47 -10s23 -13.667 33 -21l22 -17c6 -4.66699 11.5 -8.33398 16.5 -11.001s11.167 -4 18.5 -4c16 0 26.167 6.33301 30.5 19s4.83301 26 1.5 40h38c2.66699 -5.33301 4.83398 -11.833 6.50098 -19.5s2.5 -18.5 2.5 -32.5z" />
    <glyph glyph-name="Odieresis" unicode="&#xd6;" horiz-adv-x="654" 
d="M403 800v89h94v-89h-94zM157 800v89h94v-89h-94zM609 384c0 -135.333 -21.999 -235.169 -65.999 -299.502s-116 -96.5 -216 -96.5c-48.667 0 -90.667 7.5 -126 22.5s-64.5 38.5 -87.5 70.5s-40.167 73 -51.5 123s-17 110 -17 180c0 136.667 24.667 236.834 74 300.501
s118.666 95.5 207.999 95.5c90 0 159.5 -32.167 208.5 -96.5s73.5 -164.166 73.5 -299.499zM525.001 383.997c0 112 -16.6699 194.668 -50.0029 248.001s-82.666 80 -147.999 80c-63.333 0 -112.166 -26.333 -146.499 -79s-51.5 -135.667 -51.5 -249
c0 -58.667 3.83301 -108.834 11.5 -150.501s19.5 -75.667 35.5 -102s36.5 -45.5 61.5 -57.5s54.833 -18 89.5 -18c37.333 0 68.5 6.5 93.5 19.5s45.333 33 61 60s26.834 61.167 33.501 102.5s10 90 10 146z" />
    <glyph glyph-name="multiply" unicode="&#xd7;" 
d="M554 334c0 -36.667 -6.83301 -71.167 -20.5 -103.5s-32.167 -60.666 -55.5 -84.999s-50.666 -43.5 -81.999 -57.5s-64.666 -21 -99.999 -21s-68.833 7 -100.5 21s-59.334 33.167 -83.001 57.5s-42.334 52.666 -56.001 84.999s-20.5 66.833 -20.5 103.5
s6.83301 71.167 20.5 103.5s32.334 60.666 56.001 84.999s51.334 43.5 83.001 57.5s65.167 21 100.5 21s68.666 -7 99.999 -21s58.666 -33.167 81.999 -57.5s41.833 -52.666 55.5 -84.999s20.5 -66.833 20.5 -103.5zM415 386l-67 169l-25 -100l-194 34l48 -150l-47 -177
l101 82l144 -131l6 159l143 72z" />
    <glyph glyph-name="Oslash" unicode="&#xd8;" horiz-adv-x="654" 
d="M609 384c0 -135.333 -21.999 -235.17 -65.999 -299.503s-116 -96.5 -216 -96.5c-42.667 0 -80 5.66699 -112 17s-59.667 29 -83 53l-39 -58h-48l62 92c-20.667 32.667 -36.167 72.834 -46.5 120.501s-15.5 104.834 -15.5 171.501c0 136.667 24.667 236.834 74 300.501
s118.666 95.5 207.999 95.5c40 0 75.833 -6.16699 107.5 -18.5s59.5 -31.5 83.5 -57.5l43 64h48l-65 -97c21.333 -32.667 37.5 -72.667 48.5 -120s16.5 -103 16.5 -167zM472.001 634.996c-32.667 51.333 -81.001 77.001 -145.001 77.001
c-63.333 0 -112.166 -26.333 -146.499 -79s-51.5 -135.667 -51.5 -249c0 -46.667 2.33301 -87.834 7 -123.501s12 -66.5 22 -92.5l314 467v0zM525 383.997c0 88 -10.667 158.333 -32 211l-314 -467c31.333 -48 80.666 -72 147.999 -72c37.333 0 68.5 6.5 93.5 19.5
s45.333 33 61 60s26.834 61.167 33.501 102.5s10 90 10 146z" />
    <glyph glyph-name="Ugrave" unicode="&#xd9;" horiz-adv-x="610" 
d="M323 791l-137 102v9h114l79 -111h-56zM552 250c0 -39.333 -3.00195 -75.168 -9.00195 -107.501s-17.833 -60 -35.5 -83s-42.167 -40.667 -73.5 -53s-72.333 -18.5 -123 -18.5c-48.667 0 -89.167 5.16699 -121.5 15.5s-58.333 26.166 -78 47.499s-33.5 48.333 -41.5 81
s-12 71.334 -12 116.001v520h82v-559c0 -18 2.5 -36 7.5 -54s14 -34 27 -48s30.5 -25.5 52.5 -34.5s50 -13.5 84 -13.5c32.667 0 59.334 4.83301 80.001 14.5s36.834 22 48.501 37s19.667 31.333 24 49s6.5 34.834 6.5 51.501v557h82v-518v0z" />
    <glyph glyph-name="Uacute" unicode="&#xda;" horiz-adv-x="610" 
d="M312 791h-56l79 111h114v-9zM552 250c0 -39.333 -3.00195 -75.168 -9.00195 -107.501s-17.833 -60 -35.5 -83s-42.167 -40.667 -73.5 -53s-72.333 -18.5 -123 -18.5c-48.667 0 -89.167 5.16699 -121.5 15.5s-58.333 26.166 -78 47.499s-33.5 48.333 -41.5 81
s-12 71.334 -12 116.001v520h82v-559c0 -18 2.5 -36 7.5 -54s14 -34 27 -48s30.5 -25.5 52.5 -34.5s50 -13.5 84 -13.5c32.667 0 59.334 4.83301 80.001 14.5s36.834 22 48.501 37s19.667 31.333 24 49s6.5 34.834 6.5 51.501v557h82v-518v0z" />
    <glyph glyph-name="Ucircumflex" unicode="&#xdb;" horiz-adv-x="610" 
d="M384 791l-76 51l-76 -51h-49l89 108h72l89 -108h-49zM552 250c0 -39.333 -3.00195 -75.168 -9.00195 -107.501s-17.833 -60 -35.5 -83s-42.167 -40.667 -73.5 -53s-72.333 -18.5 -123 -18.5c-48.667 0 -89.167 5.16699 -121.5 15.5s-58.333 26.166 -78 47.499
s-33.5 48.333 -41.5 81s-12 71.334 -12 116.001v520h82v-559c0 -18 2.5 -36 7.5 -54s14 -34 27 -48s30.5 -25.5 52.5 -34.5s50 -13.5 84 -13.5c32.667 0 59.334 4.83301 80.001 14.5s36.834 22 48.501 37s19.667 31.333 24 49s6.5 34.834 6.5 51.501v557h82v-518v0z" />
    <glyph glyph-name="Udieresis" unicode="&#xdc;" horiz-adv-x="610" 
d="M355 800v89h94v-89h-94zM161 800v89h94v-89h-94zM552 250c0 -39.333 -3.00195 -75.168 -9.00195 -107.501s-17.833 -60 -35.5 -83s-42.167 -40.667 -73.5 -53s-72.333 -18.5 -123 -18.5c-48.667 0 -89.167 5.16699 -121.5 15.5s-58.333 26.166 -78 47.499
s-33.5 48.333 -41.5 81s-12 71.334 -12 116.001v520h82v-559c0 -18 2.5 -36 7.5 -54s14 -34 27 -48s30.5 -25.5 52.5 -34.5s50 -13.5 84 -13.5c32.667 0 59.334 4.83301 80.001 14.5s36.834 22 48.501 37s19.667 31.333 24 49s6.5 34.834 6.5 51.501v557h82v-518v0z" />
    <glyph glyph-name="Yacute" unicode="&#xdd;" horiz-adv-x="560" 
d="M326 322v-322h-82v322l-232 446h90l189 -366l176 366h81zM259 792h-56l79 130h114v-11z" />
    <glyph glyph-name="Thorn" unicode="&#xde;" horiz-adv-x="547" 
d="M515 363c0 -40.667 -6.5 -74.832 -19.5 -102.499s-30.667 -50 -53 -67s-48.5 -29.167 -78.5 -36.5s-62 -11 -96 -11h-124v-146h-82v768h82v-163h121c38 0 72.333 -4.33301 103 -13s57 -22.5 79 -41.5s38.833 -43.833 50.5 -74.5s17.5 -68.334 17.5 -113.001zM433 367.002
c0 24 -3.33301 46.333 -10 67s-16.167 38.5 -28.5 53.5s-27.5 26.833 -45.5 35.5s-38.667 13 -62 13h-143v-320h140c48.667 0 85.667 13.667 111 41s38 64 38 110z" />
    <glyph glyph-name="germandbls" unicode="&#xdf;" horiz-adv-x="475" 
d="M430 217c0 -74.667 -16.3281 -129.498 -48.9951 -164.498s-86.667 -52.5 -162 -52.5h-27v70h6c30.667 0 55.667 2.66699 75 8s34.666 14.5 45.999 27.5s19.166 30.167 23.499 51.5s6.5 47.666 6.5 78.999c0 17.333 -1.83301 34 -5.5 50s-10.334 30.167 -20.001 42.5
s-23.167 22.333 -40.5 30s-39.666 11.5 -66.999 11.5h-7v68h9c18.667 0 34.667 2 48 6s24.166 11.167 32.499 21.5s14.5 24.666 18.5 42.999s6 41.5 6 69.5c0 38.667 -7.83301 70.834 -23.5 96.501s-39.5 38.5 -71.5 38.5c-28 0 -49.167 -10 -63.5 -30
s-21.5 -48.667 -21.5 -86v-597h-81v589c0 34 4.16699 63 12.5 87s19.5 43.667 33.5 59s30.667 26.666 50 33.999s40 11 62 11c33.333 0 61.5 -5.33301 84.5 -16s42 -25 57 -43s25.833 -39.167 32.5 -63.5s10 -50.166 10 -77.499c0 -22 -2.16699 -42.833 -6.5 -62.5
s-11.333 -36.834 -21 -51.501s-21.834 -26.5 -36.501 -35.5s-32.334 -14.167 -53.001 -15.5c44 -3.33301 78.833 -21.5 104.5 -54.5s38.5 -80.833 38.5 -143.5z" />
    <glyph glyph-name="agrave" unicode="&#xe0;" horiz-adv-x="500" 
d="M481 13c-8 -6 -17.498 -11 -28.498 -15s-24.167 -6 -39.5 -6c-43.333 0 -65 33.667 -65 101c-6 -20.667 -14.667 -37.667 -26 -51s-23.833 -24 -37.5 -32s-27.834 -13.667 -42.501 -17s-28.334 -5 -41.001 -5c-52 0 -92 14.333 -120 43s-42 69 -42 121
c0 23.333 4 44.333 12 63s19.167 35.334 33.5 50.001s31.333 27.5 51 38.5s40.834 20.167 63.501 27.5c34 11.333 64.167 18.666 90.5 21.999l54.5 7c0 34 -2 61.667 -6 83s-10.333 38 -19 50s-19.834 20.167 -33.501 24.5s-30.5 6.5 -50.5 6.5s-36.167 -2.5 -48.5 -7.5
s-21.833 -11.5 -28.5 -19.5s-11 -17.167 -13 -27.5s-3 -20.833 -3 -31.5c0 -4.66699 0.333008 -9.33398 1 -14.001s1.66699 -8.66699 3 -12l-81 -7c-0.666992 3.33301 -1.5 9.5 -2.5 18.5s-1.5 17.167 -1.5 24.5c0 44 15 79 45 105s74 39 132 39
c30 0 56.5 -3.16699 79.5 -9.5s42.167 -17 57.5 -32s26.833 -35 34.5 -60s11.5 -56.5 11.5 -94.5v-287c0 -15.333 2.66699 -27.166 8 -35.499s18.333 -12.5 39 -12.5h13v-48v0zM344.002 294c-4 0 -10 -0.50293 -18 -1.50293s-16.667 -2.16699 -26 -3.5
s-18.666 -3.16602 -27.999 -5.49902l-25 -6.5c-47.333 -15.333 -80.666 -33.666 -99.999 -54.999s-29 -48 -29 -80c0 -28 8 -48.5 24 -61.5s40.333 -19.5 73 -19.5c16 0 31.667 3.5 47 10.5s29.166 16.833 41.499 29.5s22.166 27.334 29.499 44.001s11 35 11 55v94z
M255.002 625.997l-137 119v11h114l79 -130h-56z" />
    <glyph glyph-name="aacute" unicode="&#xe1;" horiz-adv-x="500" 
d="M481 13c-8 -6 -17.498 -11 -28.498 -15s-24.167 -6 -39.5 -6c-43.333 0 -65 33.667 -65 101c-6 -20.667 -14.667 -37.667 -26 -51s-23.833 -24 -37.5 -32s-27.834 -13.667 -42.501 -17s-28.334 -5 -41.001 -5c-52 0 -92 14.333 -120 43s-42 69 -42 121
c0 23.333 4 44.333 12 63s19.167 35.334 33.5 50.001s31.333 27.5 51 38.5s40.834 20.167 63.501 27.5c34 11.333 64.167 18.666 90.5 21.999l54.5 7c0 34 -2 61.667 -6 83s-10.333 38 -19 50s-19.834 20.167 -33.501 24.5s-30.5 6.5 -50.5 6.5s-36.167 -2.5 -48.5 -7.5
s-21.833 -11.5 -28.5 -19.5s-11 -17.167 -13 -27.5s-3 -20.833 -3 -31.5c0 -4.66699 0.333008 -9.33398 1 -14.001s1.66699 -8.66699 3 -12l-81 -7c-0.666992 3.33301 -1.5 9.5 -2.5 18.5s-1.5 17.167 -1.5 24.5c0 44 15 79 45 105s74 39 132 39
c30 0 56.5 -3.16699 79.5 -9.5s42.167 -17 57.5 -32s26.833 -35 34.5 -60s11.5 -56.5 11.5 -94.5v-287c0 -15.333 2.66699 -27.166 8 -35.499s18.333 -12.5 39 -12.5h13v-48v0zM344.002 294c-4 0 -10 -0.50293 -18 -1.50293s-16.667 -2.16699 -26 -3.5
s-18.666 -3.16602 -27.999 -5.49902l-25 -6.5c-47.333 -15.333 -80.666 -33.666 -99.999 -54.999s-29 -48 -29 -80c0 -28 8 -48.5 24 -61.5s40.333 -19.5 73 -19.5c16 0 31.667 3.5 47 10.5s29.166 16.833 41.499 29.5s22.166 27.334 29.499 44.001s11 35 11 55v94z
M228.002 624.997h-56l79 130h114v-11z" />
    <glyph glyph-name="acircumflex" unicode="&#xe2;" horiz-adv-x="500" 
d="M481 13c-8 -6 -17.498 -11 -28.498 -15s-24.167 -6 -39.5 -6c-43.333 0 -65 33.667 -65 101c-6 -20.667 -14.667 -37.667 -26 -51s-23.833 -24 -37.5 -32s-27.834 -13.667 -42.501 -17s-28.334 -5 -41.001 -5c-52 0 -92 14.333 -120 43s-42 69 -42 121
c0 23.333 4 44.333 12 63s19.167 35.334 33.5 50.001s31.333 27.5 51 38.5s40.834 20.167 63.501 27.5c34 11.333 64.167 18.666 90.5 21.999l54.5 7c0 34 -2 61.667 -6 83s-10.333 38 -19 50s-19.834 20.167 -33.501 24.5s-30.5 6.5 -50.5 6.5s-36.167 -2.5 -48.5 -7.5
s-21.833 -11.5 -28.5 -19.5s-11 -17.167 -13 -27.5s-3 -20.833 -3 -31.5c0 -4.66699 0.333008 -9.33398 1 -14.001s1.66699 -8.66699 3 -12l-81 -7c-0.666992 3.33301 -1.5 9.5 -2.5 18.5s-1.5 17.167 -1.5 24.5c0 44 15 79 45 105s74 39 132 39
c30 0 56.5 -3.16699 79.5 -9.5s42.167 -17 57.5 -32s26.833 -35 34.5 -60s11.5 -56.5 11.5 -94.5v-287c0 -15.333 2.66699 -27.166 8 -35.499s18.333 -12.5 39 -12.5h13v-48v0zM344.002 294c-4 0 -10 -0.50293 -18 -1.50293s-16.667 -2.16699 -26 -3.5
s-18.666 -3.16602 -27.999 -5.49902l-25 -6.5c-47.333 -15.333 -80.666 -33.666 -99.999 -54.999s-29 -48 -29 -80c0 -28 8 -48.5 24 -61.5s40.333 -19.5 73 -19.5c16 0 31.667 3.5 47 10.5s29.166 16.833 41.499 29.5s22.166 27.334 29.499 44.001s11 35 11 55v94z
M320.002 624.997l-76 59l-76 -59h-49l89 126h72l89 -126h-49z" />
    <glyph glyph-name="atilde" unicode="&#xe3;" horiz-adv-x="500" 
d="M481 13c-8 -6 -17.498 -11 -28.498 -15s-24.167 -6 -39.5 -6c-43.333 0 -65 33.667 -65 101c-6 -20.667 -14.667 -37.667 -26 -51s-23.833 -24 -37.5 -32s-27.834 -13.667 -42.501 -17s-28.334 -5 -41.001 -5c-52 0 -92 14.333 -120 43s-42 69 -42 121
c0 23.333 4 44.333 12 63s19.167 35.334 33.5 50.001s31.333 27.5 51 38.5s40.834 20.167 63.501 27.5c34 11.333 64.167 18.666 90.5 21.999l54.5 7c0 34 -2 61.667 -6 83s-10.333 38 -19 50s-19.834 20.167 -33.501 24.5s-30.5 6.5 -50.5 6.5s-36.167 -2.5 -48.5 -7.5
s-21.833 -11.5 -28.5 -19.5s-11 -17.167 -13 -27.5s-3 -20.833 -3 -31.5c0 -4.66699 0.333008 -9.33398 1 -14.001s1.66699 -8.66699 3 -12l-81 -7c-0.666992 3.33301 -1.5 9.5 -2.5 18.5s-1.5 17.167 -1.5 24.5c0 44 15 79 45 105s74 39 132 39
c30 0 56.5 -3.16699 79.5 -9.5s42.167 -17 57.5 -32s26.833 -35 34.5 -60s11.5 -56.5 11.5 -94.5v-287c0 -15.333 2.66699 -27.166 8 -35.499s18.333 -12.5 39 -12.5h13v-48v0zM344.002 294c-4 0 -10 -0.50293 -18 -1.50293s-16.667 -2.16699 -26 -3.5
s-18.666 -3.16602 -27.999 -5.49902l-25 -6.5c-47.333 -15.333 -80.666 -33.666 -99.999 -54.999s-29 -48 -29 -80c0 -28 8 -48.5 24 -61.5s40.333 -19.5 73 -19.5c16 0 31.667 3.5 47 10.5s29.166 16.833 41.499 29.5s22.166 27.334 29.499 44.001s11 35 11 55v94z
M387.002 698.997c0 -24.667 -6.66797 -42.5 -20.001 -53.5s-34 -16.5 -62 -16.5c-16 0 -30 3.5 -42 10.5s-21.333 13.167 -28 18.5l-21 17c-6.66699 5.33301 -13.167 9.83301 -19.5 13.5s-13.166 5.5 -20.499 5.5c-8.66699 0 -15.334 -2 -20.001 -6s-8 -9.16699 -10 -15.5
s-3 -13.166 -3 -20.499s1 -14.333 3 -21h-39c-6 11.333 -9 27.333 -9 48c0 24 5.5 42.667 16.5 56s30.5 20 58.5 20c19.333 0 35 -3.33301 47 -10s23 -13.667 33 -21l22 -17c6 -4.66699 11.5 -8.33398 16.5 -11.001s11.167 -4 18.5 -4c16 0 26.167 6.33301 30.5 19
s4.83301 26 1.5 40h38c2.66699 -5.33301 4.83398 -11.833 6.50098 -19.5s2.5 -18.5 2.5 -32.5z" />
    <glyph glyph-name="adieresis" unicode="&#xe4;" horiz-adv-x="500" 
d="M481 13c-8 -6 -17.498 -11 -28.498 -15s-24.167 -6 -39.5 -6c-43.333 0 -65 33.667 -65 101c-6 -20.667 -14.667 -37.667 -26 -51s-23.833 -24 -37.5 -32s-27.834 -13.667 -42.501 -17s-28.334 -5 -41.001 -5c-52 0 -92 14.333 -120 43s-42 69 -42 121
c0 23.333 4 44.333 12 63s19.167 35.334 33.5 50.001s31.333 27.5 51 38.5s40.834 20.167 63.501 27.5c34 11.333 64.167 18.666 90.5 21.999l54.5 7c0 34 -2 61.667 -6 83s-10.333 38 -19 50s-19.834 20.167 -33.501 24.5s-30.5 6.5 -50.5 6.5s-36.167 -2.5 -48.5 -7.5
s-21.833 -11.5 -28.5 -19.5s-11 -17.167 -13 -27.5s-3 -20.833 -3 -31.5c0 -4.66699 0.333008 -9.33398 1 -14.001s1.66699 -8.66699 3 -12l-81 -7c-0.666992 3.33301 -1.5 9.5 -2.5 18.5s-1.5 17.167 -1.5 24.5c0 44 15 79 45 105s74 39 132 39
c30 0 56.5 -3.16699 79.5 -9.5s42.167 -17 57.5 -32s26.833 -35 34.5 -60s11.5 -56.5 11.5 -94.5v-287c0 -15.333 2.66699 -27.166 8 -35.499s18.333 -12.5 39 -12.5h13v-48v0zM344.002 294c-4 0 -10 -0.50293 -18 -1.50293s-16.667 -2.16699 -26 -3.5
s-18.666 -3.16602 -27.999 -5.49902l-25 -6.5c-47.333 -15.333 -80.666 -33.666 -99.999 -54.999s-29 -48 -29 -80c0 -28 8 -48.5 24 -61.5s40.333 -19.5 73 -19.5c16 0 31.667 3.5 47 10.5s29.166 16.833 41.499 29.5s22.166 27.334 29.499 44.001s11 35 11 55v94z
M283.002 635.997v105h94v-105h-94zM111.002 635.997v105h94v-105h-94z" />
    <glyph glyph-name="aring" unicode="&#xe5;" horiz-adv-x="500" 
d="M481 13c-8 -6 -17.498 -11 -28.498 -15s-24.167 -6 -39.5 -6c-43.333 0 -65 33.667 -65 101c-6 -20.667 -14.667 -37.667 -26 -51s-23.833 -24 -37.5 -32s-27.834 -13.667 -42.501 -17s-28.334 -5 -41.001 -5c-52 0 -92 14.333 -120 43s-42 69 -42 121
c0 23.333 4 44.333 12 63s19.167 35.334 33.5 50.001s31.333 27.5 51 38.5s40.834 20.167 63.501 27.5c34 11.333 64.167 18.666 90.5 21.999l54.5 7c0 34 -2 61.667 -6 83s-10.333 38 -19 50s-19.834 20.167 -33.501 24.5s-30.5 6.5 -50.5 6.5s-36.167 -2.5 -48.5 -7.5
s-21.833 -11.5 -28.5 -19.5s-11 -17.167 -13 -27.5s-3 -20.833 -3 -31.5c0 -4.66699 0.333008 -9.33398 1 -14.001s1.66699 -8.66699 3 -12l-81 -7c-0.666992 3.33301 -1.5 9.5 -2.5 18.5s-1.5 17.167 -1.5 24.5c0 44 15 79 45 105s74 39 132 39
c30 0 56.5 -3.16699 79.5 -9.5s42.167 -17 57.5 -32s26.833 -35 34.5 -60s11.5 -56.5 11.5 -94.5v-287c0 -15.333 2.66699 -27.166 8 -35.499s18.333 -12.5 39 -12.5h13v-48v0zM344.002 294c-4 0 -10 -0.50293 -18 -1.50293s-16.667 -2.16699 -26 -3.5
s-18.666 -3.16602 -27.999 -5.49902l-25 -6.5c-47.333 -15.333 -80.666 -33.666 -99.999 -54.999s-29 -48 -29 -80c0 -28 8 -48.5 24 -61.5s40.333 -19.5 73 -19.5c16 0 31.667 3.5 47 10.5s29.166 16.833 41.499 29.5s22.166 27.334 29.499 44.001s11 35 11 55v94z
M342.002 719.997c0 -12.667 -2.5 -24.834 -7.5 -36.501s-12 -21.834 -21 -30.501s-19.5 -15.5 -31.5 -20.5s-24.667 -7.5 -38 -7.5s-25.833 2.5 -37.5 7.5s-21.834 11.833 -30.501 20.5s-15.5 18.834 -20.5 30.501s-7.5 23.834 -7.5 36.501c0 26.667 9.33301 49.167 28 67.5
s41.334 27.5 68.001 27.5c13.333 0 26 -2.5 38 -7.5s22.5 -11.667 31.5 -20s16 -18.333 21 -30s7.5 -24.167 7.5 -37.5zM291.002 719.997c0 12 -4.66699 22.5 -14 31.5s-20.333 13.5 -33 13.5c-11.333 0 -21.833 -4.5 -31.5 -13.5s-14.5 -19.5 -14.5 -31.5
s4.83301 -22.5 14.5 -31.5s20.167 -13.5 31.5 -13.5c12.667 0 23.667 4.5 33 13.5s14 19.5 14 31.5z" />
    <glyph glyph-name="ae" unicode="&#xe6;" horiz-adv-x="792" 
d="M423 275c0 -8.66699 0.168945 -17 0.501953 -25s0.833008 -15.667 1.5 -23c4 -62 17.167 -105.833 39.5 -131.5s57.5 -38.5 105.5 -38.5c20.667 0 37.834 3 51.501 9s24.5 14 32.5 24s13.667 21.5 17 34.5s5.33301 26.5 6 40.5v15
c0 2.66699 -0.333008 5.33398 -1 8.00098l77 -8c1.33301 -5.33301 2 -10.666 2 -15.999s-0.333008 -12.333 -1 -21c-3.33301 -48 -21.166 -85.833 -53.499 -113.5s-78.833 -41.5 -139.5 -41.5c-51.333 0 -92.833 10.833 -124.5 32.5s-53.834 53.167 -66.501 94.5
c-13.333 -40 -35 -71.167 -65 -93.5s-64 -33.5 -102 -33.5c-52 0 -92 14.333 -120 43s-42 69 -42 121c0 23.333 4 44.333 12 63s19.167 35.334 33.5 50.001s31.333 27.5 51 38.5s40.834 20.167 63.501 27.5c34 11.333 64.167 18.666 90.5 21.999l54.5 7
c0 34 -2 61.667 -6 83s-10.333 38 -19 50s-19.834 20.167 -33.501 24.5s-30.5 6.5 -50.5 6.5s-36.167 -2.5 -48.5 -7.5s-21.833 -11.5 -28.5 -19.5s-11 -17.167 -13 -27.5s-3 -20.833 -3 -31.5c0 -4.66699 0.333008 -9.33398 1 -14.001s1.66699 -8.66699 3 -12l-81 -7
c-0.666992 3.33301 -1.5 9.5 -2.5 18.5s-1.5 17.167 -1.5 24.5c0 44 15 79 45 105s74 39 132 39c40 0 73 -5.5 99 -16.5s45.333 -30.167 58 -57.5c13.333 24 34.5 42.333 63.5 55s61.833 19 98.5 19c59.333 0 105.666 -18.667 138.999 -56s52.666 -94.333 57.999 -171
c1.33301 -12 2.16602 -25.833 2.49902 -41.5s-0.166992 -31.834 -1.5 -48.501h-334zM676.002 340c0 6.66699 -0.167969 16.001 -0.500977 28.001s-1.16602 22.667 -2.49902 32c-2.66699 17.333 -6.66699 33.5 -12 48.5s-12.5 28.167 -21.5 39.5s-20.167 20.166 -33.5 26.499
s-29.333 9.5 -48 9.5c-42 0 -75 -16.167 -99 -48.5s-36 -77.5 -36 -135.5h253v0zM346.001 294.001c-4 0 -10 -0.50293 -18 -1.50293s-16.667 -2.16699 -26 -3.5s-18.666 -3.16602 -27.999 -5.49902l-25 -6.5c-47.333 -15.333 -80.666 -33.666 -99.999 -54.999
s-29 -48 -29 -80c0 -28 8 -48.5 24 -61.5s40.333 -19.5 73 -19.5c16 0 31.667 3.5 47 10.5s29.166 16.833 41.499 29.5s22.166 27.334 29.499 44.001s11 35 11 55v94z" />
    <glyph glyph-name="ccedilla" unicode="&#xe7;" horiz-adv-x="483" 
d="M445 162c0 -21.333 -3.33203 -42.5039 -9.99902 -63.5039s-17.5 -39.667 -32.5 -56s-34.333 -29.5 -58 -39.5s-52.5 -15 -86.5 -15c-70.667 0 -124.167 22.667 -160.5 68s-54.5 118 -54.5 218c0 58.667 4.66699 108.334 14 149.001s23.333 73.5 42 98.5s42 43 70 54
s60.333 16.5 97 16.5c30 0 55.833 -4.5 77.5 -13.5s39.5 -21.167 53.5 -36.5s24.167 -33.666 30.5 -54.999s9.5 -44 9.5 -68c0 -9.33301 -0.333008 -17.333 -1 -24s-1.66699 -12.667 -3 -18l-73 -4c1.33301 3.33301 2.16602 7 2.49902 11s0.5 9.66699 0.5 17
c0 38 -8.33301 67.5 -25 88.5s-43 31.5 -79 31.5c-48.667 0 -83.5 -18.333 -104.5 -55s-31.5 -91.667 -31.5 -165c0 -48.667 2.66699 -88.834 8 -120.501s13.5 -56.667 24.5 -75s25 -31 42 -38s37.167 -10.5 60.5 -10.5c42 0 71.167 11.833 87.5 35.5
s24.5 57.834 24.5 102.501c0 12.667 -1.66699 26.667 -5 42l73 -4c2 -9.33301 3.66699 -19.666 5 -30.999s2 -24.666 2 -39.999zM377.001 -108.004c0 -28 -10.833 -50.3311 -32.5 -66.998s-53.5 -25 -95.5 -25c-33.333 0 -61.666 3.66699 -84.999 11
s-41.333 15.666 -54 24.999l31 43c12 -8.66699 26.5 -15.5 43.5 -20.5s39.833 -7.5 68.5 -7.5c19.333 0 32.833 4.66699 40.5 14s11.5 18.666 11.5 27.999c0 14.667 -4.33301 25.5 -13 32.5s-20.334 10.5 -35.001 10.5c-12.667 0 -27.667 -3 -45 -9l16 45l16 2l14.5 2
c5 0.666992 9.16699 1 12.5 1c37.333 0 64.333 -7.83301 81 -23.5s25 -36.167 25 -61.5z" />
    <glyph glyph-name="egrave" unicode="&#xe8;" horiz-adv-x="508" 
d="M459 312l0.00195312 -18.502c0 -6.33301 -0.333008 -12.5 -1 -18.5h-334c0 -8.66699 0.166992 -17 0.5 -25s0.833008 -15.667 1.5 -23c4 -62 17.167 -105.833 39.5 -131.5s57.5 -38.5 105.5 -38.5c20.667 0 37.834 3 51.501 9s24.5 14 32.5 24s13.667 21.5 17 34.5
s5.33301 26.5 6 40.5v15c0 2.66699 -0.333008 5.33398 -1 8.00098l77 -8c1.33301 -5.33301 2 -10.666 2 -15.999s-0.333008 -12.333 -1 -21c-3.33301 -48 -21.166 -85.833 -53.499 -113.5s-78.833 -41.5 -139.5 -41.5c-38 0 -70.833 5.16699 -98.5 15.5
s-50.334 27 -68.001 50s-30.834 53 -39.501 90s-13 82.167 -13 135.5c0 58.667 4.66699 108 14 148s23.333 72.167 42 96.5s41.5 41.833 68.5 52.5s57.833 16 92.5 16c59.333 0 105.666 -18.667 138.999 -56s52.666 -94.333 57.999 -171
c0.666992 -7.33301 1.16699 -15.5 1.5 -24.5s0.5 -18.5 0.5 -28.5zM377.002 339.998c0 6.66699 -0.167969 16.001 -0.500977 28.001s-1.16602 22.667 -2.49902 32c-2.66699 17.333 -6.66699 33.5 -12 48.5s-12.5 28.167 -21.5 39.5s-20.167 20.166 -33.5 26.499
s-29.333 9.5 -48 9.5c-42 0 -75 -16.167 -99 -48.5s-36 -77.5 -36 -135.5h253v0zM267.001 624.999l-137 119v11h114l79 -130h-56z" />
    <glyph glyph-name="eacute" unicode="&#xe9;" horiz-adv-x="508" 
d="M459 312l0.00195312 -18.502c0 -6.33301 -0.333008 -12.5 -1 -18.5h-334c0 -8.66699 0.166992 -17 0.5 -25s0.833008 -15.667 1.5 -23c4 -62 17.167 -105.833 39.5 -131.5s57.5 -38.5 105.5 -38.5c20.667 0 37.834 3 51.501 9s24.5 14 32.5 24s13.667 21.5 17 34.5
s5.33301 26.5 6 40.5v15c0 2.66699 -0.333008 5.33398 -1 8.00098l77 -8c1.33301 -5.33301 2 -10.666 2 -15.999s-0.333008 -12.333 -1 -21c-3.33301 -48 -21.166 -85.833 -53.499 -113.5s-78.833 -41.5 -139.5 -41.5c-38 0 -70.833 5.16699 -98.5 15.5
s-50.334 27 -68.001 50s-30.834 53 -39.501 90s-13 82.167 -13 135.5c0 58.667 4.66699 108 14 148s23.333 72.167 42 96.5s41.5 41.833 68.5 52.5s57.833 16 92.5 16c59.333 0 105.666 -18.667 138.999 -56s52.666 -94.333 57.999 -171
c0.666992 -7.33301 1.16699 -15.5 1.5 -24.5s0.5 -18.5 0.5 -28.5zM377.002 339.998c0 6.66699 -0.167969 16.001 -0.500977 28.001s-1.16602 22.667 -2.49902 32c-2.66699 17.333 -6.66699 33.5 -12 48.5s-12.5 28.167 -21.5 39.5s-20.167 20.166 -33.5 26.499
s-29.333 9.5 -48 9.5c-42 0 -75 -16.167 -99 -48.5s-36 -77.5 -36 -135.5h253v0zM268.001 624.999h-56l79 130h114v-11z" />
    <glyph glyph-name="ecircumflex" unicode="&#xea;" horiz-adv-x="508" 
d="M459 312l0.00195312 -18.502c0 -6.33301 -0.333008 -12.5 -1 -18.5h-334c0 -8.66699 0.166992 -17 0.5 -25s0.833008 -15.667 1.5 -23c4 -62 17.167 -105.833 39.5 -131.5s57.5 -38.5 105.5 -38.5c20.667 0 37.834 3 51.501 9s24.5 14 32.5 24s13.667 21.5 17 34.5
s5.33301 26.5 6 40.5v15c0 2.66699 -0.333008 5.33398 -1 8.00098l77 -8c1.33301 -5.33301 2 -10.666 2 -15.999s-0.333008 -12.333 -1 -21c-3.33301 -48 -21.166 -85.833 -53.499 -113.5s-78.833 -41.5 -139.5 -41.5c-38 0 -70.833 5.16699 -98.5 15.5
s-50.334 27 -68.001 50s-30.834 53 -39.501 90s-13 82.167 -13 135.5c0 58.667 4.66699 108 14 148s23.333 72.167 42 96.5s41.5 41.833 68.5 52.5s57.833 16 92.5 16c59.333 0 105.666 -18.667 138.999 -56s52.666 -94.333 57.999 -171
c0.666992 -7.33301 1.16699 -15.5 1.5 -24.5s0.5 -18.5 0.5 -28.5zM377.002 339.998c0 6.66699 -0.167969 16.001 -0.500977 28.001s-1.16602 22.667 -2.49902 32c-2.66699 17.333 -6.66699 33.5 -12 48.5s-12.5 28.167 -21.5 39.5s-20.167 20.166 -33.5 26.499
s-29.333 9.5 -48 9.5c-42 0 -75 -16.167 -99 -48.5s-36 -77.5 -36 -135.5h253v0zM335.001 625.999l-76 59l-76 -59h-49l89 126h72l89 -126h-49z" />
    <glyph glyph-name="edieresis" unicode="&#xeb;" horiz-adv-x="508" 
d="M459 312l0.00195312 -18.502c0 -6.33301 -0.333008 -12.5 -1 -18.5h-334c0 -8.66699 0.166992 -17 0.5 -25s0.833008 -15.667 1.5 -23c4 -62 17.167 -105.833 39.5 -131.5s57.5 -38.5 105.5 -38.5c20.667 0 37.834 3 51.501 9s24.5 14 32.5 24s13.667 21.5 17 34.5
s5.33301 26.5 6 40.5v15c0 2.66699 -0.333008 5.33398 -1 8.00098l77 -8c1.33301 -5.33301 2 -10.666 2 -15.999s-0.333008 -12.333 -1 -21c-3.33301 -48 -21.166 -85.833 -53.499 -113.5s-78.833 -41.5 -139.5 -41.5c-38 0 -70.833 5.16699 -98.5 15.5
s-50.334 27 -68.001 50s-30.834 53 -39.501 90s-13 82.167 -13 135.5c0 58.667 4.66699 108 14 148s23.333 72.167 42 96.5s41.5 41.833 68.5 52.5s57.833 16 92.5 16c59.333 0 105.666 -18.667 138.999 -56s52.666 -94.333 57.999 -171
c0.666992 -7.33301 1.16699 -15.5 1.5 -24.5s0.5 -18.5 0.5 -28.5zM377.002 339.998c0 6.66699 -0.167969 16.001 -0.500977 28.001s-1.16602 22.667 -2.49902 32c-2.66699 17.333 -6.66699 33.5 -12 48.5s-12.5 28.167 -21.5 39.5s-20.167 20.166 -33.5 26.499
s-29.333 9.5 -48 9.5c-42 0 -75 -16.167 -99 -48.5s-36 -77.5 -36 -135.5h253v0zM297.001 625.999v105h94v-105h-94zM125.001 625.999v105h94v-105h-94z" />
    <glyph glyph-name="igrave" unicode="&#xec;" horiz-adv-x="198" 
d="M60 0v574h78v-574h-78zM95 626l-137 119v11h114l79 -130h-56z" />
    <glyph glyph-name="iacute" unicode="&#xed;" horiz-adv-x="198" 
d="M60 0v574h78v-574h-78zM110 626h-56l79 130h114v-11z" />
    <glyph glyph-name="icircumflex" unicode="&#xee;" horiz-adv-x="198" 
d="M60 0v574h78v-574h-78zM177 626l-76 59l-76 -59h-49l89 126h72l89 -126h-49z" />
    <glyph glyph-name="idieresis" unicode="&#xef;" horiz-adv-x="198" 
d="M60 0v574h78v-574h-78zM140 626v105h94v-105h-94zM-32 626v105h94v-105h-94z" />
    <glyph glyph-name="eth" unicode="&#xf0;" horiz-adv-x="526" 
d="M465 311c0 -52 -6.50098 -97.9971 -19.501 -137.997s-30.333 -73.5 -52 -100.5s-46.167 -47.5 -73.5 -61.5s-55.333 -21 -84 -21c-25.333 0 -49.666 4.5 -72.999 13.5s-43.833 24.5 -61.5 46.5s-31.834 51.167 -42.501 87.5s-16 81.833 -16 136.5c0 56 5 103.5 15 142.5
s24 70.833 42 95.5s39.167 42.5 63.5 53.5s50.5 16.5 78.5 16.5c56 0 97 -17.333 123 -52c-4.66699 24 -11.5 48 -20.5 72s-19.833 45.667 -32.5 65c-16.667 -7.33301 -26.334 -15.833 -29.001 -25.5s-0.333984 -19.5 6.99902 -29.5l-46 -16
c-18.667 19.333 -26.667 40.166 -24 62.499s18.667 42.166 48 59.499c-19.333 16.667 -39 25 -59 25c-15.333 0 -29.5 -3.33301 -42.5 -10s-25.5 -14.334 -37.5 -23.001l-36 55c15.333 10 34 18.333 56 25s43.667 10 65 10c26.667 0 49.834 -5.16699 69.501 -15.5
s39.167 -25.5 58.5 -45.5c13.333 4 22 9.5 26 16.5s1.66699 16.5 -7 28.5l46 16c10 -10 17.333 -20.667 22 -32s6.33398 -22.5 5.00098 -33.5s-5.66602 -21.333 -12.999 -31s-18.333 -18.167 -33 -25.5c22 -42 40.333 -94 55 -156s22 -132.333 22 -211zM385.999 286.003
c0 36.667 -3.66602 69.166 -10.999 97.499s-17 52 -29 71s-26 33.333 -42 43s-32.667 14.5 -50 14.5c-22.667 0 -42.334 -3.83301 -59.001 -11.5s-30.334 -20.5 -41.001 -38.5s-18.5 -42.167 -23.5 -72.5s-7.5 -68.166 -7.5 -113.499c0 -40 3 -73.667 9 -101
s14.833 -49.333 26.5 -66s25.834 -28.667 42.501 -36s35.667 -11 57 -11c18.667 0 35.834 3.66699 51.501 11s29.167 19.5 40.5 36.5s20.166 40 26.499 69s9.5 64.833 9.5 107.5z" />
    <glyph glyph-name="ntilde" unicode="&#xf1;" horiz-adv-x="488" 
d="M353 0l0.000976562 373.001c0 27.333 -2 50 -6 68s-10.167 32.333 -18.5 43s-18.833 18.167 -31.5 22.5s-28 6.5 -46 6.5c-18.667 0 -35 -4.66699 -49 -14s-25.833 -22 -35.5 -38s-16.834 -34.333 -21.501 -55s-7 -42.334 -7 -65.001v-341h-78v574h78v-84
c12.667 30.667 31.167 54 55.5 70s52.5 24 84.5 24c20.667 0 40.167 -2.83301 58.5 -8.5s34.5 -15.834 48.5 -30.501s25.167 -34.167 33.5 -58.5s12.5 -55.166 12.5 -92.499v-394h-78zM392.001 695.001c0 -24.667 -6.66797 -42.5 -20.001 -53.5s-34 -16.5 -62 -16.5
c-16 0 -30 3.5 -42 10.5s-21.333 13.167 -28 18.5l-21 17c-6.66699 5.33301 -13.167 9.83301 -19.5 13.5s-13.166 5.5 -20.499 5.5c-8.66699 0 -15.334 -2 -20.001 -6s-8 -9.16699 -10 -15.5s-3 -13.166 -3 -20.499s1 -14.333 3 -21h-39c-6 11.333 -9 27.333 -9 48
c0 24 5.5 42.667 16.5 56s30.5 20 58.5 20c19.333 0 35 -3.33301 47 -10s23 -13.667 33 -21l22 -17c6 -4.66699 11.5 -8.33398 16.5 -11.001s11.167 -4 18.5 -4c16 0 26.167 6.33301 30.5 19s4.83301 26 1.5 40h38c2.66699 -5.33301 4.83398 -11.833 6.50098 -19.5
s2.5 -18.5 2.5 -32.5z" />
    <glyph glyph-name="ograve" unicode="&#xf2;" horiz-adv-x="528" 
d="M485 290c0 -53.333 -5.66699 -99.166 -17 -137.499s-27 -69.666 -47 -93.999s-43.5 -42.166 -70.5 -53.499s-55.833 -17 -86.5 -17s-59.5 5.66699 -86.5 17s-50.5 29.166 -70.5 53.499s-35.667 55.666 -47 93.999s-17 84.166 -17 137.499c0 54 5.66699 100 17 138
s27 69.167 47 93.5s43.5 42.166 70.5 53.499s55.833 17 86.5 17s59.5 -5.66699 86.5 -17s50.5 -29.166 70.5 -53.499s35.667 -55.5 47 -93.5s17 -84 17 -138zM407 290c0 24.667 -1.83301 50.667 -5.5 78s-10.667 52.5 -21 75.5s-24.833 42.167 -43.5 57.5s-43 23 -73 23
s-54.333 -7.66699 -73 -23s-33.167 -34.5 -43.5 -57.5s-17.333 -48.167 -21 -75.5s-5.5 -53.333 -5.5 -78c0 -24 1.83301 -49.667 5.5 -77s10.667 -52.5 21 -75.5s24.833 -42 43.5 -57s43 -22.5 73 -22.5s54.333 7.5 73 22.5s33.167 34 43.5 57s17.333 48.167 21 75.5
s5.5 53 5.5 77zM261 626l-137 119v11h114l79 -130h-56z" />
    <glyph glyph-name="oacute" unicode="&#xf3;" horiz-adv-x="528" 
d="M485 290c0 -53.333 -5.66699 -99.166 -17 -137.499s-27 -69.666 -47 -93.999s-43.5 -42.166 -70.5 -53.499s-55.833 -17 -86.5 -17s-59.5 5.66699 -86.5 17s-50.5 29.166 -70.5 53.499s-35.667 55.666 -47 93.999s-17 84.166 -17 137.499c0 54 5.66699 100 17 138
s27 69.167 47 93.5s43.5 42.166 70.5 53.499s55.833 17 86.5 17s59.5 -5.66699 86.5 -17s50.5 -29.166 70.5 -53.499s35.667 -55.5 47 -93.5s17 -84 17 -138zM407 290c0 24.667 -1.83301 50.667 -5.5 78s-10.667 52.5 -21 75.5s-24.833 42.167 -43.5 57.5s-43 23 -73 23
s-54.333 -7.66699 -73 -23s-33.167 -34.5 -43.5 -57.5s-17.333 -48.167 -21 -75.5s-5.5 -53.333 -5.5 -78c0 -24 1.83301 -49.667 5.5 -77s10.667 -52.5 21 -75.5s24.833 -42 43.5 -57s43 -22.5 73 -22.5s54.333 7.5 73 22.5s33.167 34 43.5 57s17.333 48.167 21 75.5
s5.5 53 5.5 77zM260 626h-56l79 130h114v-11z" />
    <glyph glyph-name="ocircumflex" unicode="&#xf4;" horiz-adv-x="528" 
d="M485 290c0 -53.333 -5.66699 -99.166 -17 -137.499s-27 -69.666 -47 -93.999s-43.5 -42.166 -70.5 -53.499s-55.833 -17 -86.5 -17s-59.5 5.66699 -86.5 17s-50.5 29.166 -70.5 53.499s-35.667 55.666 -47 93.999s-17 84.166 -17 137.499c0 54 5.66699 100 17 138
s27 69.167 47 93.5s43.5 42.166 70.5 53.499s55.833 17 86.5 17s59.5 -5.66699 86.5 -17s50.5 -29.166 70.5 -53.499s35.667 -55.5 47 -93.5s17 -84 17 -138zM407 290c0 24.667 -1.83301 50.667 -5.5 78s-10.667 52.5 -21 75.5s-24.833 42.167 -43.5 57.5s-43 23 -73 23
s-54.333 -7.66699 -73 -23s-33.167 -34.5 -43.5 -57.5s-17.333 -48.167 -21 -75.5s-5.5 -53.333 -5.5 -78c0 -24 1.83301 -49.667 5.5 -77s10.667 -52.5 21 -75.5s24.833 -42 43.5 -57s43 -22.5 73 -22.5s54.333 7.5 73 22.5s33.167 34 43.5 57s17.333 48.167 21 75.5
s5.5 53 5.5 77zM343 626l-76 59l-76 -59h-49l89 126h72l89 -126h-49z" />
    <glyph glyph-name="otilde" unicode="&#xf5;" horiz-adv-x="528" 
d="M485 290c0 -53.333 -5.66699 -99.166 -17 -137.499s-27 -69.666 -47 -93.999s-43.5 -42.166 -70.5 -53.499s-55.833 -17 -86.5 -17s-59.5 5.66699 -86.5 17s-50.5 29.166 -70.5 53.499s-35.667 55.666 -47 93.999s-17 84.166 -17 137.499c0 54 5.66699 100 17 138
s27 69.167 47 93.5s43.5 42.166 70.5 53.499s55.833 17 86.5 17s59.5 -5.66699 86.5 -17s50.5 -29.166 70.5 -53.499s35.667 -55.5 47 -93.5s17 -84 17 -138zM407 290c0 24.667 -1.83301 50.667 -5.5 78s-10.667 52.5 -21 75.5s-24.833 42.167 -43.5 57.5s-43 23 -73 23
s-54.333 -7.66699 -73 -23s-33.167 -34.5 -43.5 -57.5s-17.333 -48.167 -21 -75.5s-5.5 -53.333 -5.5 -78c0 -24 1.83301 -49.667 5.5 -77s10.667 -52.5 21 -75.5s24.833 -42 43.5 -57s43 -22.5 73 -22.5s54.333 7.5 73 22.5s33.167 34 43.5 57s17.333 48.167 21 75.5
s5.5 53 5.5 77zM412 695c0 -24.667 -6.66797 -42.5 -20.001 -53.5s-34 -16.5 -62 -16.5c-16 0 -30 3.5 -42 10.5s-21.333 13.167 -28 18.5l-21 17c-6.66699 5.33301 -13.167 9.83301 -19.5 13.5s-13.166 5.5 -20.499 5.5c-8.66699 0 -15.334 -2 -20.001 -6
s-8 -9.16699 -10 -15.5s-3 -13.166 -3 -20.499s1 -14.333 3 -21h-39c-6 11.333 -9 27.333 -9 48c0 24 5.5 42.667 16.5 56s30.5 20 58.5 20c19.333 0 35 -3.33301 47 -10s23 -13.667 33 -21l22 -17c6 -4.66699 11.5 -8.33398 16.5 -11.001s11.167 -4 18.5 -4
c16 0 26.167 6.33301 30.5 19s4.83301 26 1.5 40h38c2.66699 -5.33301 4.83398 -11.833 6.50098 -19.5s2.5 -18.5 2.5 -32.5z" />
    <glyph glyph-name="odieresis" unicode="&#xf6;" horiz-adv-x="528" 
d="M485 290c0 -53.333 -5.66699 -99.166 -17 -137.499s-27 -69.666 -47 -93.999s-43.5 -42.166 -70.5 -53.499s-55.833 -17 -86.5 -17s-59.5 5.66699 -86.5 17s-50.5 29.166 -70.5 53.499s-35.667 55.666 -47 93.999s-17 84.166 -17 137.499c0 54 5.66699 100 17 138
s27 69.167 47 93.5s43.5 42.166 70.5 53.499s55.833 17 86.5 17s59.5 -5.66699 86.5 -17s50.5 -29.166 70.5 -53.499s35.667 -55.5 47 -93.5s17 -84 17 -138zM407 290c0 24.667 -1.83301 50.667 -5.5 78s-10.667 52.5 -21 75.5s-24.833 42.167 -43.5 57.5s-43 23 -73 23
s-54.333 -7.66699 -73 -23s-33.167 -34.5 -43.5 -57.5s-17.333 -48.167 -21 -75.5s-5.5 -53.333 -5.5 -78c0 -24 1.83301 -49.667 5.5 -77s10.667 -52.5 21 -75.5s24.833 -42 43.5 -57s43 -22.5 73 -22.5s54.333 7.5 73 22.5s33.167 34 43.5 57s17.333 48.167 21 75.5
s5.5 53 5.5 77zM306 626v105h94v-105h-94zM134 626v105h94v-105h-94z" />
    <glyph glyph-name="divide" unicode="&#xf7;" 
d="M554 334c0 -36.667 -6.83301 -71.167 -20.5 -103.5s-32.167 -60.666 -55.5 -84.999s-50.666 -43.5 -81.999 -57.5s-64.666 -21 -99.999 -21s-68.833 7 -100.5 21s-59.334 33.167 -83.001 57.5s-42.334 52.666 -56.001 84.999s-20.5 66.833 -20.5 103.5
s6.83301 71.167 20.5 103.5s32.334 60.666 56.001 84.999s51.334 43.5 83.001 57.5s65.167 21 100.5 21s68.666 -7 99.999 -21s58.666 -33.167 81.999 -57.5s41.833 -52.666 55.5 -84.999s20.5 -66.833 20.5 -103.5zM415 386l-67 169l-25 -100l-194 34l48 -150l-47 -177
l101 82l144 -131l6 159l143 72z" />
    <glyph glyph-name="oslash" unicode="&#xf8;" horiz-adv-x="528" 
d="M485 290c0 -53.333 -5.66699 -99.1689 -17 -137.502s-27 -69.666 -47 -93.999s-43.5 -42.166 -70.5 -53.499s-55.833 -17 -86.5 -17c-26.667 0 -51.834 4.33301 -75.501 13s-45.167 22 -64.5 40l-35 -53h-46l55 84c-17.333 24.667 -30.833 54.834 -40.5 90.501
s-14.5 78.167 -14.5 127.5c0 54 5.66699 100 17 138s27 69.167 47 93.5s43.5 42.166 70.5 53.499s55.833 17 86.5 17c27.333 0 52.833 -4.33301 76.5 -13s44.834 -22 63.501 -40l35 53h46l-55 -83c17.333 -24.667 30.833 -55 40.5 -91s14.5 -78.667 14.5 -128zM362 474.997
c-10.667 15.333 -23.999 27.334 -39.999 36.001s-35.333 13 -58 13c-30 0 -54.333 -7.66699 -73 -23s-33.167 -34.5 -43.5 -57.5s-17.333 -48.167 -21 -75.5s-5.5 -53.333 -5.5 -78c0 -23.333 1.66699 -47.833 5 -73.5s9.66602 -49.834 18.999 -72.501l217 331v0z
M407.001 289.998c0 23.333 -1.66797 48.001 -5.00098 74.001s-9.66602 50.333 -18.999 73l-217 -331c10.667 -14.667 24 -26.334 40 -35.001s35.333 -13 58 -13c30 0 54.333 7.5 73 22.5s33.167 34 43.5 57s17.333 48.167 21 75.5s5.5 53 5.5 77z" />
    <glyph glyph-name="ugrave" unicode="&#xf9;" horiz-adv-x="488" 
d="M350 0l-0.000976562 79c-11.333 -26 -29.5 -47.333 -54.5 -64s-53.5 -25 -85.5 -25c-20.667 0 -40.167 2.83301 -58.5 8.5s-34.5 15.834 -48.5 30.501s-25.167 34.167 -33.5 58.5s-12.5 55.166 -12.5 92.499v394h78v-373c0 -27.333 2 -50 6 -68s10.167 -32.333 18.5 -43
s18.833 -18.167 31.5 -22.5s28 -6.5 46 -6.5c18.667 0 35 5 49 15s25.833 23 35.5 39s16.834 34.333 21.501 55s7 41.667 7 63v341h78v-574h-78zM246.999 626l-137 119v11h114l79 -130h-56z" />
    <glyph glyph-name="uacute" unicode="&#xfa;" horiz-adv-x="488" 
d="M350 0l-0.000976562 79c-11.333 -26 -29.5 -47.333 -54.5 -64s-53.5 -25 -85.5 -25c-20.667 0 -40.167 2.83301 -58.5 8.5s-34.5 15.834 -48.5 30.501s-25.167 34.167 -33.5 58.5s-12.5 55.166 -12.5 92.499v394h78v-373c0 -27.333 2 -50 6 -68s10.167 -32.333 18.5 -43
s18.833 -18.167 31.5 -22.5s28 -6.5 46 -6.5c18.667 0 35 5 49 15s25.833 23 35.5 39s16.834 34.333 21.501 55s7 41.667 7 63v341h78v-574h-78zM247.999 626h-56l79 130h114v-11z" />
    <glyph glyph-name="ucircumflex" unicode="&#xfb;" horiz-adv-x="488" 
d="M350 0l-0.000976562 79c-11.333 -26 -29.5 -47.333 -54.5 -64s-53.5 -25 -85.5 -25c-20.667 0 -40.167 2.83301 -58.5 8.5s-34.5 15.834 -48.5 30.501s-25.167 34.167 -33.5 58.5s-12.5 55.166 -12.5 92.499v394h78v-373c0 -27.333 2 -50 6 -68s10.167 -32.333 18.5 -43
s18.833 -18.167 31.5 -22.5s28 -6.5 46 -6.5c18.667 0 35 5 49 15s25.833 23 35.5 39s16.834 34.333 21.501 55s7 41.667 7 63v341h78v-574h-78zM322.999 626l-76 59l-76 -59h-49l89 126h72l89 -126h-49z" />
    <glyph glyph-name="udieresis" unicode="&#xfc;" horiz-adv-x="488" 
d="M350 0l-0.000976562 79c-11.333 -26 -29.5 -47.333 -54.5 -64s-53.5 -25 -85.5 -25c-20.667 0 -40.167 2.83301 -58.5 8.5s-34.5 15.834 -48.5 30.501s-25.167 34.167 -33.5 58.5s-12.5 55.166 -12.5 92.499v394h78v-373c0 -27.333 2 -50 6 -68s10.167 -32.333 18.5 -43
s18.833 -18.167 31.5 -22.5s28 -6.5 46 -6.5c18.667 0 35 5 49 15s25.833 23 35.5 39s16.834 34.333 21.501 55s7 41.667 7 63v341h78v-574h-78zM285.999 626v105h94v-105h-94zM113.999 626v105h94v-105h-94z" />
    <glyph glyph-name="yacute" unicode="&#xfd;" horiz-adv-x="451" 
d="M295 -5c-8 -34 -16.999 -62.168 -26.999 -84.501s-21.333 -40.333 -34 -54s-26.834 -23.167 -42.501 -28.5s-33.167 -8 -52.5 -8c-42 0 -73.5 8.33301 -94.5 25s-31.5 43.334 -31.5 80.001c0 7.33301 0.5 14 1.5 20l3.5 20h76c-1.33301 -5.33301 -2.33301 -11.5 -3 -18.5
s-1 -13.833 -1 -20.5c0 -12.667 4.16699 -23 12.5 -31s19.5 -12 33.5 -12c17.333 0 32 7 44 21s21.333 39.667 28 77l-197 593h80l155 -472l115 472h75zM240.001 624.999h-56l79 130h114v-11z" />
    <glyph glyph-name="thorn" unicode="&#xfe;" horiz-adv-x="524" 
d="M481 274c0 -54.667 -6.16895 -100.334 -18.502 -137.001s-28.166 -66 -47.499 -88s-41 -37.667 -65 -47s-47.667 -14 -71 -14c-18.667 0 -35.834 2.5 -51.501 7.5s-29.5 11.333 -41.5 19s-22 16.334 -30 26.001s-14 19.5 -18 29.5v-214h-78v912h78v-287
c10 34.667 27.833 60.834 53.5 78.501s53.834 26.5 84.501 26.5c28 0 54.5 -5.5 79.5 -16.5s46.833 -28.833 65.5 -53.5s33.334 -56.834 44.001 -96.501s16 -88.167 16 -145.5zM399.998 276c0 44.667 -2.66309 82.1689 -7.99609 112.502s-13.333 54.666 -24 72.999
s-24.334 31.333 -41.001 39s-36 11.5 -58 11.5s-41.167 -5.5 -57.5 -16.5s-30 -26.5 -41 -46.5s-19.167 -43.833 -24.5 -71.5s-8 -58.167 -8 -91.5c0 -40.667 3.16699 -75.167 9.5 -103.5s15.166 -51.5 26.499 -69.5s25.166 -31 41.499 -39s34.5 -12 54.5 -12
c19.333 0 37 3.33301 53 10s29.667 18.167 41 34.5s20.166 38.166 26.499 65.499s9.5 62 9.5 104z" />
    <glyph glyph-name="ydieresis" unicode="&#xff;" horiz-adv-x="451" 
d="M295 -5c-8 -34 -16.999 -62.168 -26.999 -84.501s-21.333 -40.333 -34 -54s-26.834 -23.167 -42.501 -28.5s-33.167 -8 -52.5 -8c-42 0 -73.5 8.33301 -94.5 25s-31.5 43.334 -31.5 80.001c0 7.33301 0.5 14 1.5 20l3.5 20h76c-1.33301 -5.33301 -2.33301 -11.5 -3 -18.5
s-1 -13.833 -1 -20.5c0 -12.667 4.16699 -23 12.5 -31s19.5 -12 33.5 -12c17.333 0 32 7 44 21s21.333 39.667 28 77l-197 593h80l155 -472l115 472h75zM282.001 624.999v105h94v-105h-94zM110.001 624.999v105h94v-105h-94z" />
    <glyph glyph-name="dotlessi" unicode="&#x131;" horiz-adv-x="198" 
d="M60 0v574h78v-574h-78z" />
    <glyph glyph-name="Lslash" unicode="&#x141;" horiz-adv-x="479" 
d="M82 0v240l-44 -39l-43 54l87 77v436h82v-366l136 115l43 -53l-179 -154v-240h282v-70h-364z" />
    <glyph glyph-name="lslash" unicode="&#x142;" horiz-adv-x="250" 
d="M163 302v-302h-78v238l-47 -39l-42 52l89 76v441h78v-380l47 39l44 -51z" />
    <glyph glyph-name="OE" unicode="&#x152;" horiz-adv-x="982" 
d="M526 0l0.000976562 77c-12.667 -16 -25.667 -29.667 -39 -41s-27.666 -20.5 -42.999 -27.5s-32.5 -12.167 -51.5 -15.5s-40.833 -5 -65.5 -5c-96.667 -0.666992 -167.834 30.333 -213.501 93s-68.5 163.667 -68.5 303c0 136.667 24.667 236.834 74 300.501
s118.666 95.5 207.999 95.5c30.667 0 57 -3.16699 79 -9.5s40.833 -14.333 56.5 -24s28.5 -19.834 38.5 -30.501s18.333 -20.667 25 -30v82h402v-69h-322v-270h295v-69h-295v-291h345v-69h-425zM527.001 384c0 112 -17 194.668 -51 248.001s-83.667 80 -149 80
c-63.333 0 -112.166 -26.333 -146.499 -79s-51.5 -135.667 -51.5 -249c0 -58.667 3.83301 -108.834 11.5 -150.501s19.5 -75.667 35.5 -102s36.5 -45.5 61.5 -57.5s54.833 -18 89.5 -18c37.333 0 68.666 6.5 93.999 19.5s45.833 33 61.5 60s27 61.167 34 102.5
s10.5 90 10.5 146z" />
    <glyph glyph-name="oe" unicode="&#x153;" horiz-adv-x="868" 
d="M819 311l-0.00195312 -17.999c0 -6 -0.333008 -12 -1 -18h-334c0 -8.66699 0.166992 -17 0.5 -25s0.833008 -15.667 1.5 -23c4 -62 17.167 -105.833 39.5 -131.5s57.5 -38.5 105.5 -38.5c20.667 0 37.834 3 51.501 9s24.5 14 32.5 24s13.667 21.5 17 34.5
s5.33301 26.5 6 40.5v15c0 2.66699 -0.333008 5.33398 -1 8.00098l77 -8c1.33301 -5.33301 2 -10.666 2 -15.999s-0.333008 -12.333 -1 -21c-3.33301 -48 -21.166 -85.833 -53.499 -113.5s-78.833 -41.5 -139.5 -41.5c-50 0 -89 8.16699 -117 24.5s-50.333 41.5 -67 75.5
c-38 -65.333 -96 -98.666 -174 -99.999c-30.667 0 -59.5 5.66699 -86.5 17s-50.5 29.166 -70.5 53.499s-35.667 55.666 -47 93.999s-17 84.166 -17 137.499c0 54 5.66699 100 17 138s27 69.167 47 93.5s43.5 42.166 70.5 53.499s55.833 17 86.5 17
c42 0 77.333 -8.83301 106 -26.5s52.334 -43.834 71.001 -78.501c8.66699 18 18 33.5 28 46.5s21.833 23.833 35.5 32.5s29.834 15.167 48.501 19.5s41 6.5 67 6.5c59.333 0 105.666 -18.667 138.999 -56s52.666 -94.333 57.999 -171
c0.666992 -7.33301 1.16699 -15.666 1.5 -24.999s0.5 -19 0.5 -29zM736.998 343.001c0 6.66699 -0.167969 15.501 -0.500977 26.501s-1.16602 21.167 -2.49902 30.5c-2.66699 17.333 -6.66699 33.5 -12 48.5s-12.5 28.167 -21.5 39.5s-20.167 20.166 -33.5 26.499
s-29.333 9.5 -48 9.5c-42 0 -75 -15.667 -99 -47s-36 -76 -36 -134h253v0zM406.997 290.002c0 24.667 -1.83301 50.667 -5.5 78s-10.667 52.5 -21 75.5s-24.833 42.167 -43.5 57.5s-43 23 -73 23s-54.333 -7.66699 -73 -23s-33.167 -34.5 -43.5 -57.5
s-17.333 -48.167 -21 -75.5s-5.5 -53.333 -5.5 -78c0 -24 1.83301 -49.667 5.5 -77s10.667 -52.5 21 -75.5s24.833 -42 43.5 -57s43 -22.5 73 -22.5s54.333 7.5 73 22.5s33.167 34 43.5 57s17.333 48.167 21 75.5s5.5 53 5.5 77z" />
    <glyph glyph-name="Scaron" unicode="&#x160;" horiz-adv-x="562" 
d="M515 196c0 -36.667 -5.49609 -68.0029 -16.4961 -94.0029s-27 -47.5 -48 -64.5s-46.5 -29.5 -76.5 -37.5s-64 -12 -102 -12c-72.667 0 -127.834 14.5 -165.501 43.5s-56.5 73.167 -56.5 132.5c0 15.333 1 28.5 3 39.5s4.33301 22.833 7 35.5l80 3
c-2.66699 -9.33301 -4.66699 -18.833 -6 -28.5s-2 -20.5 -2 -32.5c0 -44 11.333 -75.333 34 -94s59 -28 109 -28c52.667 0 92 10 118 30s39 55 39 105c0 18.667 -2.83301 35.5 -8.5 50.5s-14.834 29 -27.501 42s-29.167 25.5 -49.5 37.5s-45.5 24.333 -75.5 37l-93 40
c-38.667 16 -69.334 36.833 -92.001 62.5s-34 60.167 -34 103.5c0 31.333 4.16699 60 12.5 86s21.166 48.5 38.499 67.5s39.5 33.667 66.5 44s59.167 15.5 96.5 15.5c32.667 0 62.167 -4.5 88.5 -13.5s48.833 -21.667 67.5 -38s33.167 -35.833 43.5 -58.5
s15.5 -47.667 15.5 -75c0 -13.333 -0.5 -23.5 -1.5 -30.5s-2.5 -14.5 -4.5 -22.5l-78 -2c1.33301 5.33301 2.5 11 3.5 17s1.5 12.667 1.5 20c0 18 -2.5 35.167 -7.5 51.5s-13.167 30.666 -24.5 42.999s-25.833 22.166 -43.5 29.499s-39.5 11 -65.5 11
c-43.333 0 -75 -10.667 -95 -32s-30 -50.666 -30 -87.999c0 -17.333 2.16699 -32.166 6.5 -44.499s11.333 -23.5 21 -33.5s22 -19.333 37 -28s33.167 -17.667 54.5 -27l115 -51c26.667 -12 49.167 -25.667 67.5 -41s33.333 -32.166 45 -50.499s20 -37.666 25 -57.999
s7.5 -41.166 7.5 -62.499zM302.004 790.997h-57l-109 142h78l59 -79l62 79h75z" />
    <glyph glyph-name="scaron" unicode="&#x161;" horiz-adv-x="455" 
d="M414 173c0 -60.667 -15 -106.668 -45 -138.001s-77.333 -47 -142 -47c-62.667 0 -108 12.167 -136 36.5s-42 57.5 -42 99.5c0 12.667 1.33301 25.167 4 37.5s5.66699 23.5 9 33.5l68 -8l-4.5 -23c-1.66699 -8.66699 -2.5 -16 -2.5 -22c0 -28 7.16699 -49.833 21.5 -65.5
s40.833 -23.5 79.5 -23.5c36.667 0 65.5 8.5 86.5 25.5s31.5 41.833 31.5 74.5c0 14 -2 25.667 -6 35s-10.667 17.833 -20 25.5s-21.333 14.834 -36 21.501s-33 14 -55 22l-62 23c-16.667 6 -31.667 13 -45 21s-24.833 17.667 -34.5 29s-17 24.5 -22 39.5
s-7.5 32.833 -7.5 53.5c0 52 14.333 93.167 43 123.5s69 45.5 121 45.5c28 0 53 -3.5 75 -10.5s40.333 -16.667 55 -29s25.834 -27 33.501 -44s11.5 -35.167 11.5 -54.5v-14.5c0 -4.33301 -0.666992 -8.5 -2 -12.5l-78 -10c0 5.33301 0.333008 11.166 1 17.499
s0.666992 12.833 0 19.5c-1.33301 19.333 -9.33301 36.333 -24 51s-37.334 22 -68.001 22c-32 0 -56.333 -8 -73 -24s-25 -37.667 -25 -65c0 -22.667 6.83301 -40.167 20.5 -52.5s35.5 -24.166 65.5 -35.499l68 -26c21.333 -8 40.5 -16.667 57.5 -26
s31.333 -19.833 43 -31.5s20.5 -25.167 26.5 -40.5s9 -33 9 -53zM256 624.999h-57l-109 142h78l59 -79l62 79h75z" />
    <glyph glyph-name="Ydieresis" unicode="&#x178;" horiz-adv-x="560" 
d="M321 792v89h94v-89h-94zM149 792v89h94v-89h-94zM326 322v-322h-82v322l-232 446h90l189 -366l176 366h81z" />
    <glyph glyph-name="Zcaron" unicode="&#x17d;" horiz-adv-x="532" 
d="M39 0v90l373 609h-337v69h415v-92l-372 -607h372v-69h-451zM315 792h-57l-109 142h78l59 -79l62 79h75z" />
    <glyph glyph-name="zcaron" unicode="&#x17e;" horiz-adv-x="449" 
d="M29 0v59l273 447h-248v68h346v-51l-276 -452h276v-71h-371zM263 625h-57l-109 142h78l59 -79l62 79h75z" />
    <glyph glyph-name="florin" unicode="&#x192;" horiz-adv-x="347" 
d="M348 682c1.33301 -13.333 1.16602 -25.665 -0.500977 -36.998s-4.16699 -21.666 -7.5 -30.999l-65 5c2.66699 10.667 4 22.667 4 36c0 19.333 -4 34.833 -12 46.5s-22.667 17.5 -44 17.5c-10.667 0 -21.334 -5.5 -32.001 -16.5s-16 -29.167 -16 -54.5v-210h100v-66h-98
v-394c0 -24 -1.66699 -45.667 -5 -65s-9.5 -35.833 -18.5 -49.5s-21.333 -24.334 -37 -32.001s-35.5 -11.5 -59.5 -11.5c-24.667 0 -44.834 3.33301 -60.501 10s-27.667 15 -36 25s-14.166 20.667 -17.499 32s-5.33301 21.666 -6 30.999
c-1.33301 13.333 -1.16602 25.666 0.500977 36.999s4.16699 21.666 7.5 30.999l64 -4c-1.33301 -7.33301 -2.16602 -14 -2.49902 -20s-0.5 -12.667 -0.5 -20c0 -20 3.16699 -35.167 9.5 -45.5s20.166 -15.5 41.499 -15.5c17.333 0 28.5 6.5 33.5 19.5s7.5 33.5 7.5 61.5v410
h-75v66h75v186c0 48 9.83301 86 29.5 114s51.5 42 95.5 42c25.333 0 45.833 -3.33301 61.5 -10s28.167 -15 37.5 -25s15.833 -20.667 19.5 -32s5.83398 -21.666 6.50098 -30.999z" />
    <glyph glyph-name="circumflex" unicode="&#x2c6;" horiz-adv-x="540" 
d="M346 636l-76 59l-76 -59h-49l89 126h72l89 -126h-49z" />
    <glyph glyph-name="caron" unicode="&#x2c7;" horiz-adv-x="540" 
d="M302 635h-57l-109 142h78l59 -79l62 79h75z" />
    <glyph glyph-name="breve" unicode="&#x2d8;" horiz-adv-x="540" 
d="M425 744c-7.33301 -38 -25.001 -65.499 -53.001 -82.499s-62 -25.5 -102 -25.5s-74 8.5 -102 25.5s-45.667 44.5 -53 82.5h51c4 -13.333 13.5 -25 28.5 -35s40.167 -15 75.5 -15c17.333 0 32 1.16699 44 3.5s22 5.66602 30 9.99902s14.333 9.5 19 15.5
s8.33398 13 11.001 21h51v0z" />
    <glyph glyph-name="dotaccent" unicode="&#x2d9;" horiz-adv-x="540" 
d="M221 635v100h99v-100h-99z" />
    <glyph glyph-name="ring" unicode="&#x2da;" horiz-adv-x="540" 
d="M368 673c0 -12.667 -2.5 -24.834 -7.5 -36.501s-12 -21.834 -21 -30.501s-19.5 -15.5 -31.5 -20.5s-24.667 -7.5 -38 -7.5s-25.833 2.5 -37.5 7.5s-21.834 11.833 -30.501 20.5s-15.5 18.834 -20.5 30.501s-7.5 23.834 -7.5 36.501c0 26.667 9.33301 49.167 28 67.5
s41.334 27.5 68.001 27.5c13.333 0 26 -2.5 38 -7.5s22.5 -11.667 31.5 -20s16 -18.333 21 -30s7.5 -24.167 7.5 -37.5zM317 673c0 12 -4.66699 22.5 -14 31.5s-20.333 13.5 -33 13.5c-11.333 0 -21.833 -4.5 -31.5 -13.5s-14.5 -19.5 -14.5 -31.5s4.83301 -22.5 14.5 -31.5
s20.167 -13.5 31.5 -13.5c12.667 0 23.667 4.5 33 13.5s14 19.5 14 31.5z" />
    <glyph glyph-name="ogonek" unicode="&#x2db;" horiz-adv-x="540" 
d="M334 -106c0 -18 -7.66992 -31.832 -23.0029 -41.499s-34.666 -14.5 -57.999 -14.5c-24.667 0 -43.167 5.5 -55.5 16.5s-18.5 26.167 -18.5 45.5c0 10 2.5 19.667 7.5 29s11.167 18 18.5 26s15.833 15.5 25.5 22.5s18.834 13.167 27.501 18.5l7 4h50l-9 -6
c-4 -2.66699 -9.66699 -7.16699 -17 -13.5s-14.833 -13.833 -22.5 -22.5s-14.167 -18 -19.5 -28s-8 -20 -8 -30c0 -18.667 5.33301 -28 16 -28c8.66699 0 14.667 2.5 18 7.5s5 10.833 5 17.5c0 5.33301 -0.666992 11 -2 17s-2.66602 11 -3.99902 15h58
c2.66699 -12.667 4 -24.334 4 -35.001z" />
    <glyph glyph-name="tilde" unicode="&#x2dc;" horiz-adv-x="540" 
d="M416 705c0 -24.667 -6.66797 -42.5 -20.001 -53.5s-34 -16.5 -62 -16.5c-16 0 -30 3.5 -42 10.5s-21.333 13.167 -28 18.5l-21 17c-6.66699 5.33301 -13.167 9.83301 -19.5 13.5s-13.166 5.5 -20.499 5.5c-8.66699 0 -15.334 -2 -20.001 -6s-8 -9.16699 -10 -15.5
s-3 -13.166 -3 -20.499s1 -14.333 3 -21h-39c-6 11.333 -9 27.333 -9 48c0 24 5.5 42.667 16.5 56s30.5 20 58.5 20c19.333 0 35 -3.33301 47 -10s23 -13.667 33 -21l22 -17c6 -4.66699 11.5 -8.33398 16.5 -11.001s11.167 -4 18.5 -4c16 0 26.167 6.33301 30.5 19
s4.83301 26 1.5 40h38c2.66699 -5.33301 4.83398 -11.833 6.50098 -19.5s2.5 -18.5 2.5 -32.5z" />
    <glyph glyph-name="hungarumlaut" unicode="&#x2dd;" horiz-adv-x="540" 
d="M301 635h-42l56 104h107v-9zM164 635h-41l56 104h96v-9z" />
    <glyph glyph-name="Delta" unicode="&#x394;" 
d="M554 334c0 -36.667 -6.83301 -71.167 -20.5 -103.5s-32.167 -60.666 -55.5 -84.999s-50.666 -43.5 -81.999 -57.5s-64.666 -21 -99.999 -21s-68.833 7 -100.5 21s-59.334 33.167 -83.001 57.5s-42.334 52.666 -56.001 84.999s-20.5 66.833 -20.5 103.5
s6.83301 71.167 20.5 103.5s32.334 60.666 56.001 84.999s51.334 43.5 83.001 57.5s65.167 21 100.5 21s68.666 -7 99.999 -21s58.666 -33.167 81.999 -57.5s41.833 -52.666 55.5 -84.999s20.5 -66.833 20.5 -103.5zM415 386l-67 169l-25 -100l-194 34l48 -150l-47 -177
l101 82l144 -131l6 159l143 72z" />
    <glyph glyph-name="Omega" unicode="&#x3a9;" 
d="M554 334c0 -36.667 -6.83301 -71.167 -20.5 -103.5s-32.167 -60.666 -55.5 -84.999s-50.666 -43.5 -81.999 -57.5s-64.666 -21 -99.999 -21s-68.833 7 -100.5 21s-59.334 33.167 -83.001 57.5s-42.334 52.666 -56.001 84.999s-20.5 66.833 -20.5 103.5
s6.83301 71.167 20.5 103.5s32.334 60.666 56.001 84.999s51.334 43.5 83.001 57.5s65.167 21 100.5 21s68.666 -7 99.999 -21s58.666 -33.167 81.999 -57.5s41.833 -52.666 55.5 -84.999s20.5 -66.833 20.5 -103.5zM415 386l-67 169l-25 -100l-194 34l48 -150l-47 -177
l101 82l144 -131l6 159l143 72z" />
    <glyph glyph-name="pi" unicode="&#x3c0;" horiz-adv-x="779" 
d="M738 397c0 -48.667 -9.33398 -94.334 -28.001 -137.001s-44 -80 -76 -112s-69.333 -57.333 -112 -76s-88 -28 -136 -28c-48.667 0 -94.5 9.33301 -137.5 28s-80.5 44 -112.5 76s-57.333 69.333 -76 112s-28 88.334 -28 137.001s9.33301 94.5 28 137.5s44 80.667 76 113
s69.5 57.833 112.5 76.5s88.833 28 137.5 28s94.334 -9.33301 137.001 -28s80 -44.167 112 -76.5s57.167 -70 75.5 -113s27.5 -88.833 27.5 -137.5zM687.999 397c0 42 -8.00195 81.667 -24.002 119s-37.667 70 -65 98s-59.5 50.333 -96.5 67s-76.167 25 -117.5 25
c-42 0 -81.333 -8.33301 -118 -25s-68.667 -39 -96 -67s-49 -60.667 -65 -98s-24 -77 -24 -119c0 -42.667 7.83301 -82.667 23.5 -120s37.334 -69.833 65.001 -97.5s59.834 -49.5 96.501 -65.5s76 -24 118 -24c41.333 0 80.5 8 117.5 24s69.167 37.833 96.5 65.5
s49 60.167 65 97.5s24 77.333 24 120zM531.997 468c0 -38.667 -11.5 -68.334 -34.5 -89.001s-55.167 -31 -96.5 -31h-55v-160h-66v407h128c18 0 34.667 -2.16699 50 -6.5s28.5 -11.5 39.5 -21.5s19.5 -23.167 25.5 -39.5s9 -36.166 9 -59.499zM467.997 467
c0 27.333 -6 46.833 -18 58.5s-27 17.5 -45 17.5h-59v-144h60c18.667 0 33.667 6 45 18s17 28.667 17 50z" />
    <glyph glyph-name="endash" unicode="&#x2013;" horiz-adv-x="500" 
d="M0 294v69h500v-69h-500z" />
    <glyph glyph-name="emdash" unicode="&#x2014;" horiz-adv-x="1000" 
d="M0 294v69h1000v-69h-1000z" />
    <glyph glyph-name="quoteleft" unicode="&#x2018;" horiz-adv-x="215" 
d="M182 720c-10.667 -3.33301 -20.834 -6.99902 -30.501 -10.999s-17.834 -8.66699 -24.501 -14c-9.33301 -9.33301 -15.666 -20.333 -18.999 -33s-3.33301 -25.667 0 -39h52v-124h-113v124c0 28 3.83301 50.333 11.5 67s19.834 31 36.501 43
c9.33301 7.33301 20.833 13.166 34.5 17.499s28.167 7.5 43.5 9.5l9 -40v0z" />
    <glyph glyph-name="quoteright" unicode="&#x2019;" horiz-adv-x="215" 
d="M171 644c0 -28 -3.83301 -50.334 -11.5 -67.001s-19.834 -31 -36.501 -43c-9.33301 -7.33301 -20.833 -13.166 -34.5 -17.499s-28.167 -7.5 -43.5 -9.5l-9 40c10.667 3.33301 20.834 7 30.501 11s17.834 8.66699 24.501 14c9.33301 9.33301 15.666 20.333 18.999 33
s3.33301 25.667 0 39h-52v124h113v-124v0z" />
    <glyph glyph-name="quotesinglbase" unicode="&#x201a;" horiz-adv-x="215" 
d="M171 0c0 -28 -3.83301 -50.334 -11.5 -67.001s-19.834 -31 -36.501 -43c-9.33301 -7.33301 -20.833 -13.166 -34.5 -17.499s-28.167 -7.5 -43.5 -9.5l-9 40c10.667 3.33301 20.834 7 30.501 11s17.834 8.66699 24.501 14c9.33301 9.33301 15.666 20.333 18.999 33
s3.33301 25.667 0 39h-52v124h113v-124v0z" />
    <glyph glyph-name="quotedblleft" unicode="&#x201c;" horiz-adv-x="392" 
d="M358 720c-10.667 -3.33301 -20.834 -6.99902 -30.501 -10.999s-17.834 -8.66699 -24.501 -14c-9.33301 -9.33301 -15.666 -20.333 -18.999 -33s-3.33301 -25.667 0 -39h52v-124h-113v124c0 28 3.83301 50.333 11.5 67s19.834 31 36.501 43
c9.33301 7.33301 20.833 13.166 34.5 17.499s28.167 7.5 43.5 9.5l9 -40v0zM182 720.001c-10.667 -3.33301 -20.834 -6.99902 -30.501 -10.999s-17.834 -8.66699 -24.501 -14c-9.33301 -9.33301 -15.666 -20.333 -18.999 -33s-3.33301 -25.667 0 -39h52v-124h-113v124
c0 28 3.83301 50.333 11.5 67s19.834 31 36.501 43c9.33301 7.33301 20.833 13.166 34.5 17.499s28.167 7.5 43.5 9.5l9 -40v0z" />
    <glyph glyph-name="quotedblright" unicode="&#x201d;" horiz-adv-x="392" 
d="M347 644c0 -28 -3.83301 -50.334 -11.5 -67.001s-19.834 -31 -36.501 -43c-9.33301 -7.33301 -20.833 -13.166 -34.5 -17.499s-28.167 -7.5 -43.5 -9.5l-9 40c10.667 3.33301 20.834 7 30.501 11s17.834 8.66699 24.501 14c9.33301 9.33301 15.666 20.333 18.999 33
s3.33301 25.667 0 39h-52v124h113v-124v0zM171 643.999c0 -28 -3.83301 -50.334 -11.5 -67.001s-19.834 -31 -36.501 -43c-9.33301 -7.33301 -20.833 -13.166 -34.5 -17.499s-28.167 -7.5 -43.5 -9.5l-9 40c10.667 3.33301 20.834 7 30.501 11s17.834 8.66699 24.501 14
c9.33301 9.33301 15.666 20.333 18.999 33s3.33301 25.667 0 39h-52v124h113v-124v0z" />
    <glyph glyph-name="quotedblbase" unicode="&#x201e;" horiz-adv-x="392" 
d="M347 0c0 -28 -3.83301 -50.334 -11.5 -67.001s-19.834 -31 -36.501 -43c-9.33301 -7.33301 -20.833 -13.166 -34.5 -17.499s-28.167 -7.5 -43.5 -9.5l-9 40c10.667 3.33301 20.834 7 30.501 11s17.834 8.66699 24.501 14c9.33301 9.33301 15.666 20.333 18.999 33
s3.33301 25.667 0 39h-52v124h113v-124v0zM171 -0.000976562c0 -28 -3.83301 -50.334 -11.5 -67.001s-19.834 -31 -36.501 -43c-9.33301 -7.33301 -20.833 -13.166 -34.5 -17.499s-28.167 -7.5 -43.5 -9.5l-9 40c10.667 3.33301 20.834 7 30.501 11
s17.834 8.66699 24.501 14c9.33301 9.33301 15.666 20.333 18.999 33s3.33301 25.667 0 39h-52v124h113v-124v0z" />
    <glyph glyph-name="dagger" unicode="&#x2020;" horiz-adv-x="544" 
d="M311 492v-636h-78v636h-175v69h175v207h78v-207h175v-69h-175z" />
    <glyph glyph-name="daggerdbl" unicode="&#x2021;" horiz-adv-x="544" 
d="M311 52v-198h-78v198h-175v70h175v382h-175v69h175v195h78v-195h175v-69h-175v-382h175v-70h-175z" />
    <glyph glyph-name="bullet" unicode="&#x2022;" horiz-adv-x="500" 
d="M430 382c0 -24 -4.66699 -46.833 -14 -68.5s-22.333 -40.5 -39 -56.5s-35.834 -28.667 -57.501 -38s-45.167 -14 -70.5 -14c-24.667 0 -47.834 4.66699 -69.501 14s-40.667 22 -57 38s-29.166 34.833 -38.499 56.5s-14 44.5 -14 68.5c0 24.667 4.66699 47.834 14 69.501
s22.166 40.667 38.499 57s35.333 29.166 57 38.499s44.834 14 69.501 14c25.333 0 48.833 -4.66699 70.5 -14s40.834 -22.166 57.501 -38.499s29.667 -35.333 39 -57s14 -44.834 14 -69.501z" />
    <glyph glyph-name="ellipsis" unicode="&#x2026;" horiz-adv-x="864" 
d="M661 0v126h119v-126h-119zM373 0v126h119v-126h-119zM85 0v126h119v-126h-119z" />
    <glyph glyph-name="perthousand" unicode="&#x2030;" horiz-adv-x="1024" 
d="M304 579c0 -30 -1.83301 -57.167 -5.5 -81.5s-10.5 -45.333 -20.5 -63s-23.5 -31.334 -40.5 -41.001s-39.167 -14.5 -66.5 -14.5c-26.667 0 -48.667 4.83301 -66 14.5s-31 23.334 -41 41.001s-16.833 38.667 -20.5 63s-5.5 51.5 -5.5 81.5s1.83301 57.333 5.5 82
s10.5 45.834 20.5 63.501s23.667 31.334 41 41.001s39.333 14.5 66 14.5c27.333 0 49.5 -4.83301 66.5 -14.5s30.5 -23.334 40.5 -41.001s16.833 -38.834 20.5 -63.501s5.5 -52 5.5 -82zM170 0h-65l422 768h64zM988 188c0 -30 -1.83301 -57.167 -5.5 -81.5
s-10.5 -45.333 -20.5 -63s-23.5 -31.334 -40.5 -41.001s-39.167 -14.5 -66.5 -14.5c-26.667 0 -48.667 4.83301 -66 14.5s-31 23.334 -41 41.001s-16.833 38.667 -20.5 63s-5.5 51.5 -5.5 81.5s1.83301 57.333 5.5 82s10.5 45.834 20.5 63.501s23.667 31.334 41 41.001
s39.333 14.5 66 14.5c27.333 0 49.5 -4.83301 66.5 -14.5s30.5 -23.334 40.5 -41.001s16.833 -38.834 20.5 -63.501s5.5 -52 5.5 -82zM658 188c0 -30 -1.83301 -57.167 -5.5 -81.5s-10.5 -45.333 -20.5 -63s-23.5 -31.334 -40.5 -41.001s-39.167 -14.5 -66.5 -14.5
c-26.667 0 -48.667 4.83301 -66 14.5s-31 23.334 -41 41.001s-16.833 38.667 -20.5 63s-5.5 51.5 -5.5 81.5s1.83301 57.333 5.5 82s10.5 45.834 20.5 63.501s23.667 31.334 41 41.001s39.333 14.5 66 14.5c27.333 0 49.5 -4.83301 66.5 -14.5s30.5 -23.334 40.5 -41.001
s16.833 -38.834 20.5 -63.501s5.5 -52 5.5 -82zM232 579c0 26.667 -0.5 49 -1.5 67s-3.5 32.5 -7.5 43.5s-10.167 18.833 -18.5 23.5s-19.5 7 -33.5 7s-25.167 -2.33301 -33.5 -7s-14.5 -12.5 -18.5 -23.5s-6.5 -25.5 -7.5 -43.5s-1.5 -40.333 -1.5 -67s0.5 -49 1.5 -67
s3.5 -32.5 7.5 -43.5s10.167 -18.833 18.5 -23.5s19.5 -7 33.5 -7s25.167 2.33301 33.5 7s14.5 12.5 18.5 23.5s6.5 25.5 7.5 43.5s1.5 40.333 1.5 67zM916 188c0 26.667 -0.5 49 -1.5 67s-3.5 32.5 -7.5 43.5s-10.167 18.833 -18.5 23.5s-19.5 7 -33.5 7
s-25.167 -2.33301 -33.5 -7s-14.5 -12.5 -18.5 -23.5s-6.5 -25.5 -7.5 -43.5s-1.5 -40.333 -1.5 -67s0.5 -49 1.5 -67s3.5 -32.5 7.5 -43.5s10.167 -18.833 18.5 -23.5s19.5 -7 33.5 -7s25.167 2.33301 33.5 7s14.5 12.5 18.5 23.5s6.5 25.5 7.5 43.5s1.5 40.333 1.5 67z
M586 188c0 26.667 -0.5 49 -1.5 67s-3.5 32.5 -7.5 43.5s-10.167 18.833 -18.5 23.5s-19.5 7 -33.5 7s-25.167 -2.33301 -33.5 -7s-14.5 -12.5 -18.5 -23.5s-6.5 -25.5 -7.5 -43.5s-1.5 -40.333 -1.5 -67s0.5 -49 1.5 -67s3.5 -32.5 7.5 -43.5s10.167 -18.833 18.5 -23.5
s19.5 -7 33.5 -7s25.167 2.33301 33.5 7s14.5 12.5 18.5 23.5s6.5 25.5 7.5 43.5s1.5 40.333 1.5 67z" />
    <glyph glyph-name="guilsinglleft" unicode="&#x2039;" horiz-adv-x="376" 
d="M55 229v95l252 191v-98l-178 -141l178 -142v-98z" />
    <glyph glyph-name="guilsinglright" unicode="&#x203a;" horiz-adv-x="376" 
d="M67 36v98l181 142l-181 141v98l254 -191v-95z" />
    <glyph glyph-name="fraction" unicode="&#x2044;" horiz-adv-x="111" 
d="M-124 0h-63l422 768h62z" />
    <glyph glyph-name="Euro" unicode="&#x20ac;" horiz-adv-x="558" 
d="M175 263c2 -32 5.66797 -60.665 11.001 -85.998s13.333 -46.833 24 -64.5s24.5 -31.334 41.5 -41.001s38.5 -14.5 64.5 -14.5s46.667 5.5 62 16.5s27 26.167 35 45.5s13.333 42.166 16 68.499s4.33398 54.5 5.00098 84.5l81 -7c-2 -91.333 -18.5 -160.333 -49.5 -207
s-81.833 -70 -152.5 -70c-39.333 0 -72.333 6.16699 -99 18.5s-48.5 30.333 -65.5 54s-29.833 52.5 -38.5 86.5s-14.667 72.667 -18 116h-65v69h62v30v23c0 8 0.333008 17 1 27h-63v69h68c10 105.333 33.667 181.5 71 228.5s89 70.5 155 70.5c41.333 0 75.333 -8 102 -24
s47.167 -36.667 61.5 -62s23.666 -54.166 27.999 -86.499s5.16602 -65.166 2.49902 -98.499h-82c3.33301 28 3.33301 54.167 0 78.5s-9.83301 45.666 -19.5 63.999s-22.5 32.666 -38.5 42.999s-35.667 15.5 -59 15.5c-44 0 -76.833 -19.333 -98.5 -58
s-35.5 -95.667 -41.5 -171h205v-69h-209v-39v-41h209v-69h-206v0z" />
    <glyph glyph-name="trademark" unicode="&#x2122;" horiz-adv-x="623" 
d="M488 537v181l-48 -181h-55l-51 181v-181h-49v231h82l48 -177l47 177h82v-231h-56zM187 722v-185h-62v185h-63v46h190v-46h-65z" />
    <glyph glyph-name="partialdiff" unicode="&#x2202;" 
d="M554 334c0 -36.667 -6.83301 -71.167 -20.5 -103.5s-32.167 -60.666 -55.5 -84.999s-50.666 -43.5 -81.999 -57.5s-64.666 -21 -99.999 -21s-68.833 7 -100.5 21s-59.334 33.167 -83.001 57.5s-42.334 52.666 -56.001 84.999s-20.5 66.833 -20.5 103.5
s6.83301 71.167 20.5 103.5s32.334 60.666 56.001 84.999s51.334 43.5 83.001 57.5s65.167 21 100.5 21s68.666 -7 99.999 -21s58.666 -33.167 81.999 -57.5s41.833 -52.666 55.5 -84.999s20.5 -66.833 20.5 -103.5zM415 386l-67 169l-25 -100l-194 34l48 -150l-47 -177
l101 82l144 -131l6 159l143 72z" />
    <glyph glyph-name="product" unicode="&#x220f;" 
d="M554 334c0 -36.667 -6.83301 -71.167 -20.5 -103.5s-32.167 -60.666 -55.5 -84.999s-50.666 -43.5 -81.999 -57.5s-64.666 -21 -99.999 -21s-68.833 7 -100.5 21s-59.334 33.167 -83.001 57.5s-42.334 52.666 -56.001 84.999s-20.5 66.833 -20.5 103.5
s6.83301 71.167 20.5 103.5s32.334 60.666 56.001 84.999s51.334 43.5 83.001 57.5s65.167 21 100.5 21s68.666 -7 99.999 -21s58.666 -33.167 81.999 -57.5s41.833 -52.666 55.5 -84.999s20.5 -66.833 20.5 -103.5zM415 386l-67 169l-25 -100l-194 34l48 -150l-47 -177
l101 82l144 -131l6 159l143 72z" />
    <glyph glyph-name="summation" unicode="&#x2211;" 
d="M554 334c0 -36.667 -6.83301 -71.167 -20.5 -103.5s-32.167 -60.666 -55.5 -84.999s-50.666 -43.5 -81.999 -57.5s-64.666 -21 -99.999 -21s-68.833 7 -100.5 21s-59.334 33.167 -83.001 57.5s-42.334 52.666 -56.001 84.999s-20.5 66.833 -20.5 103.5
s6.83301 71.167 20.5 103.5s32.334 60.666 56.001 84.999s51.334 43.5 83.001 57.5s65.167 21 100.5 21s68.666 -7 99.999 -21s58.666 -33.167 81.999 -57.5s41.833 -52.666 55.5 -84.999s20.5 -66.833 20.5 -103.5zM415 386l-67 169l-25 -100l-194 34l48 -150l-47 -177
l101 82l144 -131l6 159l143 72z" />
    <glyph glyph-name="minus" unicode="&#x2212;" 
d="M554 334c0 -36.667 -6.83301 -71.167 -20.5 -103.5s-32.167 -60.666 -55.5 -84.999s-50.666 -43.5 -81.999 -57.5s-64.666 -21 -99.999 -21s-68.833 7 -100.5 21s-59.334 33.167 -83.001 57.5s-42.334 52.666 -56.001 84.999s-20.5 66.833 -20.5 103.5
s6.83301 71.167 20.5 103.5s32.334 60.666 56.001 84.999s51.334 43.5 83.001 57.5s65.167 21 100.5 21s68.666 -7 99.999 -21s58.666 -33.167 81.999 -57.5s41.833 -52.666 55.5 -84.999s20.5 -66.833 20.5 -103.5zM415 386l-67 169l-25 -100l-194 34l48 -150l-47 -177
l101 82l144 -131l6 159l143 72z" />
    <glyph glyph-name="radical" unicode="&#x221a;" horiz-adv-x="602" 
d="M586 850c-9.33301 -12 -19.999 -28.3311 -31.999 -48.998s-24.333 -43.834 -37 -69.501l-38.5 -81l-37.5 -85l-33.5 -81c-10.333 -25.667 -19.166 -48.5 -26.499 -68.5c-13.333 -36.667 -26.5 -75.167 -39.5 -115.5s-25.167 -80 -36.5 -119s-21.5 -76.667 -30.5 -113
s-16.167 -69.166 -21.5 -98.499l-69 -33l-148 290l86 44l83 -227c4.66699 27.333 11.5 59.166 20.5 95.499s18.833 72.666 29.5 108.999l31.5 103.5c10.333 32.667 19.166 59 26.499 79c30.667 81.333 59.167 152 85.5 212s54.166 114 83.499 162l104 45v0z" />
    <glyph glyph-name="infinity" unicode="&#x221e;" horiz-adv-x="746" 
d="M690 686c0 -11.333 -0.666992 -20.832 -2 -28.499s-2.66602 -14.167 -3.99902 -19.5l-81 4c2 2.66699 3.5 7.16699 4.5 13.5s1.5 13.166 1.5 20.499c0 13.333 -5.66699 24.333 -17 33s-33.333 13 -66 13c-36 0 -61.333 -6.66699 -76 -20s-22 -34 -22 -62v-66h109v-68
h-109v-506h-78v506h-180v-506h-78v506h-85v68h85v46c0 49.333 13.5 88.333 40.5 117s70.167 43 129.5 43c30 0 55.167 -4.66699 75.5 -14s36.166 -18.666 47.499 -27.999c13.333 13.333 30.833 23.666 52.5 30.999s49.167 11 82.5 11c52 0 93.333 -7.83301 124 -23.5
s46 -39.167 46 -70.5zM608 0.000976562v574h78v-574h-78zM356 681.001c-6.66699 8 -17.832 16.833 -33.499 26.5s-33.834 14.5 -54.501 14.5c-36 0 -61.333 -6.66699 -76 -20s-22 -34 -22 -62v-66h180v46c0 22.667 2 43 6 61z" />
    <glyph glyph-name="integral" unicode="&#x222b;" 
d="M554 334c0 -36.667 -6.83301 -71.167 -20.5 -103.5s-32.167 -60.666 -55.5 -84.999s-50.666 -43.5 -81.999 -57.5s-64.666 -21 -99.999 -21s-68.833 7 -100.5 21s-59.334 33.167 -83.001 57.5s-42.334 52.666 -56.001 84.999s-20.5 66.833 -20.5 103.5
s6.83301 71.167 20.5 103.5s32.334 60.666 56.001 84.999s51.334 43.5 83.001 57.5s65.167 21 100.5 21s68.666 -7 99.999 -21s58.666 -33.167 81.999 -57.5s41.833 -52.666 55.5 -84.999s20.5 -66.833 20.5 -103.5zM415 386l-67 169l-25 -100l-194 34l48 -150l-47 -177
l101 82l144 -131l6 159l143 72z" />
    <glyph glyph-name="approxequal" unicode="&#x2248;" 
d="M554 334c0 -36.667 -6.83301 -71.167 -20.5 -103.5s-32.167 -60.666 -55.5 -84.999s-50.666 -43.5 -81.999 -57.5s-64.666 -21 -99.999 -21s-68.833 7 -100.5 21s-59.334 33.167 -83.001 57.5s-42.334 52.666 -56.001 84.999s-20.5 66.833 -20.5 103.5
s6.83301 71.167 20.5 103.5s32.334 60.666 56.001 84.999s51.334 43.5 83.001 57.5s65.167 21 100.5 21s68.666 -7 99.999 -21s58.666 -33.167 81.999 -57.5s41.833 -52.666 55.5 -84.999s20.5 -66.833 20.5 -103.5zM415 386l-67 169l-25 -100l-194 34l48 -150l-47 -177
l101 82l144 -131l6 159l143 72z" />
    <glyph glyph-name="notequal" unicode="&#x2260;" horiz-adv-x="545" 
d="M514 645c6 21.333 6.66797 39.001 2.00098 53.001s-18 21 -40 21c-15.333 0 -27.166 -5.66699 -35.499 -17s-12.5 -28 -12.5 -50v-78h109v-68h-109v-506h-78v506h-180v-506h-78v506h-85v68h85v46c0 57.333 15.333 98.333 46 123s72 37 124 37
c25.333 0 47.833 -3.66699 67.5 -11s36.167 -16 49.5 -26c9.33301 11.333 21.666 20.333 36.999 27s34.666 10 57.999 10c26 0 47 -4.16699 63 -12.5s28 -19.333 36 -33s12.5 -28.834 13.5 -45.501s-1.16699 -33 -6.5 -49zM354.001 682.001
c-10 11.333 -22.667 20.835 -38 28.502s-31.333 11.5 -48 11.5c-36 0 -61.333 -6.66699 -76 -20s-22 -34 -22 -62v-66h180v58c0 9.33301 0.333008 18.166 1 26.499s1.66699 16.166 3 23.499z" />
    <glyph glyph-name="lessequal" unicode="&#x2264;" 
d="M554 334c0 -36.667 -6.83301 -71.167 -20.5 -103.5s-32.167 -60.666 -55.5 -84.999s-50.666 -43.5 -81.999 -57.5s-64.666 -21 -99.999 -21s-68.833 7 -100.5 21s-59.334 33.167 -83.001 57.5s-42.334 52.666 -56.001 84.999s-20.5 66.833 -20.5 103.5
s6.83301 71.167 20.5 103.5s32.334 60.666 56.001 84.999s51.334 43.5 83.001 57.5s65.167 21 100.5 21s68.666 -7 99.999 -21s58.666 -33.167 81.999 -57.5s41.833 -52.666 55.5 -84.999s20.5 -66.833 20.5 -103.5zM415 386l-67 169l-25 -100l-194 34l48 -150l-47 -177
l101 82l144 -131l6 159l143 72z" />
    <glyph glyph-name="greaterequal" unicode="&#x2265;" 
d="M554 334c0 -36.667 -6.83301 -71.167 -20.5 -103.5s-32.167 -60.666 -55.5 -84.999s-50.666 -43.5 -81.999 -57.5s-64.666 -21 -99.999 -21s-68.833 7 -100.5 21s-59.334 33.167 -83.001 57.5s-42.334 52.666 -56.001 84.999s-20.5 66.833 -20.5 103.5
s6.83301 71.167 20.5 103.5s32.334 60.666 56.001 84.999s51.334 43.5 83.001 57.5s65.167 21 100.5 21s68.666 -7 99.999 -21s58.666 -33.167 81.999 -57.5s41.833 -52.666 55.5 -84.999s20.5 -66.833 20.5 -103.5zM415 386l-67 169l-25 -100l-194 34l48 -150l-47 -177
l101 82l144 -131l6 159l143 72z" />
    <glyph glyph-name="lozenge" unicode="&#x25ca;" 
d="M554 334c0 -36.667 -6.83301 -71.167 -20.5 -103.5s-32.167 -60.666 -55.5 -84.999s-50.666 -43.5 -81.999 -57.5s-64.666 -21 -99.999 -21s-68.833 7 -100.5 21s-59.334 33.167 -83.001 57.5s-42.334 52.666 -56.001 84.999s-20.5 66.833 -20.5 103.5
s6.83301 71.167 20.5 103.5s32.334 60.666 56.001 84.999s51.334 43.5 83.001 57.5s65.167 21 100.5 21s68.666 -7 99.999 -21s58.666 -33.167 81.999 -57.5s41.833 -52.666 55.5 -84.999s20.5 -66.833 20.5 -103.5zM415 386l-67 169l-25 -100l-194 34l48 -150l-47 -177
l101 82l144 -131l6 159l143 72z" />
    <glyph glyph-name="apple" unicode="&#xf8ff;" 
d="M554 334c0 -36.667 -6.83301 -71.167 -20.5 -103.5s-32.167 -60.666 -55.5 -84.999s-50.666 -43.5 -81.999 -57.5s-64.666 -21 -99.999 -21s-68.833 7 -100.5 21s-59.334 33.167 -83.001 57.5s-42.334 52.666 -56.001 84.999s-20.5 66.833 -20.5 103.5
s6.83301 71.167 20.5 103.5s32.334 60.666 56.001 84.999s51.334 43.5 83.001 57.5s65.167 21 100.5 21s68.666 -7 99.999 -21s58.666 -33.167 81.999 -57.5s41.833 -52.666 55.5 -84.999s20.5 -66.833 20.5 -103.5zM415 386l-67 169l-25 -100l-194 34l48 -150l-47 -177
l101 82l144 -131l6 159l143 72z" />
    <glyph glyph-name="NUL" horiz-adv-x="0" 
 />
    <glyph glyph-name="nonmarkingreturn" horiz-adv-x="240" 
 />
    </font>
</defs>
</svg>
