<svg xmlns="http://www.w3.org/2000/svg" viewBox="4522.731 -581.934 22.718 22.62">
  <defs>
    <style>
      .cls-1 {
        fill: #ccc;
        stroke: #ccc;
        stroke-width: 0.25px;
      }
    </style>
  </defs>
  <g id="path596" transform="translate(1790 84.5)">
    <path id="path596-2" data-name="path596" class="cls-1" d="M74.5,115.743l-.027-2-1.595-.049c-1.412-.044-1.626-.073-1.872-.253-.632-.464-.622-.38-.622-5.758s-.009-5.294.622-5.758c.246-.181.461-.21,1.872-.253l1.595-.049L74.5,98.5l.026-3.129H88.706l.026,3.129.026,3.129,1.595.049c1.412.044,1.626.073,1.872.253.632.464.622.38.622,5.758s.009,5.294-.622,5.758c-.246.181-.461.21-1.872.253l-1.595.049-.027,2-.027,2H74.523Zm13.425-2.932v-4.04H75.307v8.081H87.92Zm-11.14,1.963c-.088-.164-.075-.243.061-.394.164-.181.363-.189,4.772-.189s4.608.008,4.772.189c.136.151.149.23.061.394-.109.2-.148.205-4.833.205S76.89,114.977,76.781,114.774Zm.008-1.759c-.132-.247-.13-.26.053-.443.135-.135.624-.155,3.873-.155a21.074,21.074,0,0,1,3.836.118c.169.169.146.54-.038.61-.086.033-1.836.06-3.889.06C77.034,113.205,76.887,113.2,76.788,113.015Zm.053-1.738c-.183-.183-.185-.2-.053-.443.1-.184.256-.191,4.825-.191s4.727.006,4.825.191c.132.247.13.26-.053.443-.136.136-.706.155-4.772.155S76.978,111.413,76.841,111.276Zm-2.346-.9.026-2.488H88.705l.026,2.488.026,2.488,1.368.027c1.1.022,1.413,0,1.6-.125l.233-.153v-4.893c0-4.414-.016-4.91-.163-5.073s-.6-.18-10.167-.18c-9.17,0-10.019.014-10.184.163s-.18.441-.18,5.069V112.6l.222.156c.181.127.472.151,1.6.129l1.38-.027Zm14.652-5a.832.832,0,0,1,.52-1.433c.441,0,.606.086.769.4a.712.712,0,0,1-.144.986A.753.753,0,0,1,89.148,105.375Zm-1.227-6.41v-2.71H75.307v5.42H87.92Z" transform="translate(2662.476 -761.678)"/>
  </g>
</svg>
